<?xml version="1.0" encoding="utf-8"?>
<!-- Generator: Adobe Illustrator 16.0.0, SVG Export Plug-In . SVG Version: 6.00 Build 0)  -->
<!DOCTYPE svg PUBLIC "-//W3C//DTD SVG 1.1//EN" "http://www.w3.org/Graphics/SVG/1.1/DTD/svg11.dtd">
<svg version="1.1" id="Layer_1" xmlns="http://www.w3.org/2000/svg" xmlns:xlink="http://www.w3.org/1999/xlink" x="0px" y="0px"
	 width="595.279px" height="841.891px" viewBox="0 0 595.279 841.891" enable-background="new 0 0 595.279 841.891"
	 xml:space="preserve">
<rect x="92.765" y="467.823" fill="#FFFFFF" stroke="#000000" stroke-width="0.5067" stroke-miterlimit="10" width="408.263" height="256.095"/>
<rect x="93.013" y="113.26" fill="#FFFFFF" stroke="#000000" stroke-width="0.5064" stroke-miterlimit="10" width="408.015" height="255.846"/>
<polyline fill="none" stroke="#000000" stroke-miterlimit="10" points="441.499,132.73 461.838,132.73 461.838,151.084 "/>
<path d="M128.978,359.061v-10.913h11.657v10.913H128.978z"/>
<line fill="none" stroke="#000000" stroke-miterlimit="10" x1="463.823" y1="358.44" x2="463.823" y2="280.062"/>
<path d="M129.102,133.97v-10.914h102.934v10.914H129.102z"/>
<path d="M252.002,358.937v-10.913h212.44v10.913H252.002z"/>
<path stroke="#FFFFFF" stroke-width="0.7931" stroke-miterlimit="10" d="M207.356,225.247v-7.317h5.705v-5.208l8.681-4.961v10.169
	h6.945v7.317h-6.945v16.618h6.945v7.317h-8.185l-7.193-4.216v-19.843h-5.953V225.247z"/>
<path stroke="#FFFFFF" stroke-width="0.7931" stroke-miterlimit="10" d="M243.817,249.306h-8.681V203.42h8.681v16.618l4.465-2.604
	h8.186l7.192,4.217v27.531h-8.681v-24.183h-11.286L243.817,249.306L243.817,249.306z"/>
<path stroke="#FFFFFF" stroke-width="0.7931" stroke-miterlimit="10" d="M318.723,221.774v27.531h-8.682v-24.307h-10.665v24.307
	h-8.681v-31.748h7.068l1.488,2.604l4.465-2.604h7.564L318.723,221.774z"/>
<path stroke="#FFFFFF" stroke-width="0.7931" stroke-miterlimit="10" d="M333.977,203.544v27.036h0.124l9.673-12.65h9.798
	l-11.161,14.014l13.146,17.362H345.51l-8.185-11.161l-3.473,4.34v6.697h-8.682v-45.886L333.977,203.544L333.977,203.544z"/>
<path stroke="#FFFFFF" stroke-width="0.7931" stroke-miterlimit="10" d="M359.401,225.247v-7.317h5.704v-5.208l8.682-4.961v10.169
	h6.944v7.317h-6.944v16.618h6.944v7.317h-8.185l-7.193-4.216v-19.843h-5.952V225.247z"/>
<rect x="320.707" y="230.952" fill="#FFFFFF" stroke="#FFFFFF" stroke-width="0.7931" stroke-miterlimit="10" width="34.353" height="29.144"/>
<path stroke="#FFFFFF" stroke-width="0.7931" stroke-miterlimit="10" d="M270.357,218.674v-8.681h9.177v8.681H270.357z"/>
<line fill="none" stroke="#000000" stroke-miterlimit="10" x1="356.672" y1="217.558" x2="356.672" y2="298.913"/>
<polyline fill="none" stroke="#000000" stroke-width="3" stroke-miterlimit="10" points="284.742,195.234 334.597,195.234 
	356.672,217.682 "/>
<g>
	<g>
		<line fill="none" stroke="#000000" stroke-miterlimit="10" x1="222.238" y1="257.739" x2="226.206" y2="257.739"/>
		
			<line fill="none" stroke="#000000" stroke-miterlimit="10" stroke-dasharray="8,5" x1="231.167" y1="257.739" x2="278.789" y2="257.739"/>
		<polyline fill="none" stroke="#000000" stroke-miterlimit="10" points="281.766,257.739 285.239,257.739 285.239,254.267 		"/>
		
			<line fill="none" stroke="#000000" stroke-miterlimit="10" stroke-dasharray="7,4" x1="285.239" y1="249.306" x2="285.239" y2="205.652"/>
		<line fill="none" stroke="#000000" stroke-miterlimit="10" x1="285.239" y1="203.668" x2="285.239" y2="199.699"/>
	</g>
</g>
<line fill="none" stroke="#000000" stroke-width="2.3792" stroke-miterlimit="10" x1="201.776" y1="267.66" x2="220.378" y2="257.739"/>
<rect x="359.649" y="258.111" fill="none" width="69.201" height="61.76"/>
<g enable-background="new    ">
	<path d="M363.774,263.295c0.065,0,0.139-0.008,0.222-0.026v0.42c-0.171,0.04-0.344,0.06-0.521,0.06
		c-0.25,0-0.433-0.066-0.546-0.197c-0.114-0.131-0.178-0.337-0.193-0.617h-0.022c-0.162,0.303-0.354,0.52-0.575,0.653
		c-0.222,0.132-0.495,0.199-0.819,0.199c-0.396,0-0.692-0.107-0.893-0.323c-0.2-0.215-0.3-0.51-0.3-0.885
		c0-0.873,0.567-1.315,1.702-1.328l0.885-0.015v-0.221c0-0.328-0.066-0.563-0.198-0.707c-0.133-0.144-0.344-0.215-0.634-0.215
		c-0.295,0-0.508,0.052-0.638,0.157s-0.208,0.268-0.232,0.488l-0.705-0.064c0.115-0.73,0.644-1.095,1.586-1.095
		c0.5,0,0.876,0.117,1.127,0.351c0.251,0.234,0.377,0.572,0.377,1.015v1.748c0,0.2,0.026,0.351,0.079,0.452
		C363.527,263.245,363.626,263.295,363.774,263.295z M361.49,263.273c0.24,0,0.453-0.057,0.638-0.172
		c0.186-0.115,0.329-0.269,0.432-0.461c0.103-0.192,0.153-0.391,0.153-0.596v-0.333L362,261.724
		c-0.296,0.005-0.521,0.038-0.676,0.098c-0.154,0.06-0.275,0.152-0.361,0.276c-0.087,0.124-0.13,0.288-0.13,0.493
		s0.056,0.37,0.167,0.495S361.275,263.273,361.49,263.273z"/>
</g>
<g enable-background="new    ">
	<path d="M360.132,273.982c0-0.675,0.161-1.194,0.484-1.556c0.322-0.362,0.788-0.544,1.398-0.544c0.455,0,0.83,0.109,1.125,0.328
		s0.478,0.513,0.548,0.883l-0.721,0.053c-0.04-0.228-0.14-0.407-0.3-0.538c-0.16-0.131-0.388-0.197-0.683-0.197
		c-0.395,0-0.685,0.123-0.868,0.368s-0.275,0.641-0.275,1.189c0,0.555,0.092,0.96,0.275,1.217s0.472,0.384,0.864,0.384
		c0.271,0,0.494-0.066,0.672-0.199s0.287-0.335,0.33-0.607l0.712,0.045c-0.032,0.24-0.123,0.458-0.271,0.654
		s-0.346,0.35-0.591,0.461s-0.519,0.167-0.821,0.167c-0.612,0-1.079-0.18-1.398-0.54
		C360.292,275.189,360.132,274.667,360.132,273.982z"/>
	<path d="M368.173,272.572c-0.28-0.048-0.545-0.071-0.795-0.071c-0.402,0-0.728,0.151-0.976,0.454
		c-0.247,0.303-0.371,0.688-0.371,1.155v1.905h-0.675v-2.629c0-0.19-0.017-0.414-0.051-0.671c-0.033-0.257-0.082-0.51-0.145-0.757
		h0.642c0.1,0.345,0.16,0.658,0.18,0.938h0.019c0.125-0.28,0.248-0.486,0.368-0.617c0.12-0.131,0.263-0.23,0.428-0.296
		s0.366-0.1,0.604-0.1c0.26,0,0.518,0.021,0.772,0.064V272.572z"/>
	<path d="M370.071,274.128c0,0.455,0.101,0.811,0.302,1.069c0.201,0.257,0.477,0.386,0.826,0.386c0.258,0,0.483-0.056,0.678-0.167
		c0.193-0.111,0.322-0.263,0.388-0.456l0.593,0.168c-0.11,0.31-0.312,0.548-0.605,0.713c-0.294,0.165-0.645,0.248-1.053,0.248
		c-0.59,0-1.043-0.184-1.361-0.551c-0.317-0.368-0.476-0.894-0.476-1.579c0-0.667,0.155-1.181,0.467-1.54
		c0.312-0.358,0.761-0.538,1.348-0.538c0.588,0,1.033,0.179,1.335,0.537c0.303,0.357,0.454,0.897,0.454,1.62v0.09H370.071z
		 M371.184,272.381c-0.335,0-0.6,0.109-0.795,0.328s-0.299,0.52-0.312,0.902h2.19C372.198,272.791,371.836,272.381,371.184,272.381z
		"/>
	<path d="M377.6,275.598c0.065,0,0.139-0.008,0.222-0.026v0.42c-0.171,0.04-0.344,0.06-0.521,0.06c-0.25,0-0.433-0.066-0.546-0.197
		c-0.114-0.131-0.178-0.337-0.193-0.617h-0.022c-0.162,0.303-0.354,0.52-0.575,0.653c-0.222,0.132-0.495,0.199-0.819,0.199
		c-0.396,0-0.692-0.107-0.893-0.323c-0.2-0.215-0.3-0.51-0.3-0.885c0-0.873,0.567-1.315,1.702-1.328l0.885-0.015v-0.221
		c0-0.328-0.066-0.563-0.198-0.707c-0.133-0.144-0.344-0.215-0.634-0.215c-0.295,0-0.508,0.052-0.638,0.157
		s-0.208,0.268-0.232,0.488l-0.705-0.064c0.115-0.73,0.644-1.095,1.586-1.095c0.5,0,0.876,0.117,1.127,0.351
		c0.251,0.234,0.377,0.572,0.377,1.015v1.748c0,0.2,0.026,0.351,0.079,0.452C377.353,275.548,377.452,275.598,377.6,275.598z
		 M375.316,275.576c0.24,0,0.453-0.057,0.638-0.172c0.186-0.115,0.329-0.269,0.432-0.461c0.103-0.192,0.153-0.391,0.153-0.596
		v-0.333l-0.712,0.015c-0.296,0.005-0.521,0.038-0.676,0.098c-0.154,0.06-0.275,0.152-0.361,0.276
		c-0.087,0.124-0.13,0.288-0.13,0.493s0.056,0.37,0.167,0.495S375.101,275.576,375.316,275.576z"/>
	<path d="M378.793,272.49v-0.533h0.637l0.218-1.058h0.45v1.058h1.62v0.533h-1.62v2.445c0,0.198,0.053,0.344,0.159,0.439
		c0.106,0.095,0.281,0.143,0.523,0.143c0.335,0,0.706-0.042,1.113-0.128v0.514c-0.422,0.115-0.841,0.172-1.256,0.172
		c-0.405,0-0.709-0.085-0.911-0.257c-0.203-0.171-0.304-0.442-0.304-0.812v-2.516H378.793z"/>
	<path d="M385.484,275.482h1.425v0.533h-3.683v-0.533h1.583v-2.992h-1.196v-0.533h1.871V275.482z M384.734,271.169v-0.72h0.75v0.72
		H384.734z"/>
	<path d="M389.98,276.015h-0.799l-1.624-4.058h0.758l1.005,2.64l0.063,0.199l0.195,0.69l0.131-0.438l0.146-0.443l1.035-2.647h0.754
		L389.98,276.015z"/>
	<path d="M393.115,274.128c0,0.455,0.101,0.811,0.302,1.069c0.201,0.257,0.477,0.386,0.826,0.386c0.258,0,0.483-0.056,0.678-0.167
		c0.193-0.111,0.322-0.263,0.388-0.456l0.593,0.168c-0.11,0.31-0.312,0.548-0.605,0.713c-0.294,0.165-0.645,0.248-1.053,0.248
		c-0.59,0-1.043-0.184-1.361-0.551c-0.317-0.368-0.476-0.894-0.476-1.579c0-0.667,0.155-1.181,0.467-1.54
		c0.312-0.358,0.761-0.538,1.348-0.538c0.588,0,1.033,0.179,1.335,0.537c0.303,0.357,0.454,0.897,0.454,1.62v0.09H393.115z
		 M394.228,272.381c-0.335,0-0.6,0.109-0.795,0.328s-0.299,0.52-0.312,0.902h2.19C395.241,272.791,394.88,272.381,394.228,272.381z"
		/>
</g>
<g enable-background="new    ">
	<path d="M363.774,287.899c0.065,0,0.139-0.008,0.222-0.025v0.42c-0.171,0.04-0.344,0.06-0.521,0.06
		c-0.25,0-0.433-0.065-0.546-0.196c-0.114-0.132-0.178-0.337-0.193-0.617h-0.022c-0.162,0.303-0.354,0.52-0.575,0.652
		c-0.222,0.133-0.495,0.199-0.819,0.199c-0.396,0-0.692-0.107-0.893-0.323c-0.2-0.215-0.3-0.51-0.3-0.885
		c0-0.872,0.567-1.315,1.702-1.327l0.885-0.016v-0.221c0-0.328-0.066-0.563-0.198-0.707c-0.133-0.144-0.344-0.216-0.634-0.216
		c-0.295,0-0.508,0.053-0.638,0.157c-0.13,0.105-0.208,0.268-0.232,0.488l-0.705-0.064c0.115-0.729,0.644-1.095,1.586-1.095
		c0.5,0,0.876,0.117,1.127,0.351s0.377,0.572,0.377,1.015v1.747c0,0.2,0.026,0.351,0.079,0.452S363.626,287.899,363.774,287.899z
		 M361.49,287.877c0.24,0,0.453-0.057,0.638-0.172c0.186-0.115,0.329-0.269,0.432-0.462c0.103-0.192,0.153-0.391,0.153-0.596v-0.334
		L362,286.328c-0.296,0.006-0.521,0.038-0.676,0.098c-0.154,0.061-0.275,0.152-0.361,0.276c-0.087,0.123-0.13,0.288-0.13,0.493
		s0.056,0.369,0.167,0.494S361.275,287.877,361.49,287.877z"/>
	<path d="M365.623,284.259v2.572c0,0.39,0.061,0.661,0.184,0.812c0.122,0.151,0.341,0.228,0.656,0.228
		c0.322,0,0.577-0.11,0.765-0.33s0.281-0.53,0.281-0.931v-2.351h0.679v3.191c0,0.473,0.008,0.761,0.022,0.866h-0.637
		c-0.003-0.013-0.006-0.047-0.008-0.102c-0.003-0.055-0.006-0.118-0.01-0.189s-0.008-0.205-0.013-0.403h-0.012
		c-0.155,0.28-0.334,0.479-0.538,0.595c-0.203,0.116-0.457,0.175-0.759,0.175c-0.445,0-0.771-0.111-0.978-0.332
		c-0.206-0.222-0.31-0.587-0.31-1.098v-2.703H365.623z"/>
	<path d="M372.095,287.664c-0.122,0.262-0.285,0.453-0.487,0.571c-0.202,0.119-0.455,0.179-0.758,0.179
		c-0.505,0-0.876-0.174-1.113-0.521c-0.238-0.348-0.356-0.871-0.356-1.571c0-1.415,0.49-2.123,1.47-2.123
		c0.303,0,0.556,0.054,0.76,0.161c0.204,0.108,0.367,0.284,0.489,0.529h0.008l-0.008-0.566v-1.571h0.675v4.729
		c0,0.423,0.008,0.702,0.022,0.837h-0.645c-0.01-0.038-0.019-0.129-0.026-0.274c-0.008-0.145-0.012-0.271-0.012-0.378H372.095z
		 M370.077,286.299c0,0.555,0.074,0.959,0.224,1.213c0.148,0.254,0.391,0.381,0.726,0.381c0.364,0,0.635-0.132,0.81-0.396
		s0.263-0.684,0.263-1.259c0-0.537-0.084-0.929-0.253-1.174c-0.169-0.244-0.439-0.367-0.812-0.367c-0.337,0-0.581,0.129-0.73,0.387
		C370.153,285.341,370.077,285.746,370.077,286.299z"/>
	<path d="M376.265,287.783h1.425v0.533h-3.683v-0.533h1.583v-2.992h-1.196v-0.532h1.871V287.783z M375.515,283.471v-0.72h0.75v0.72
		H375.515z"/>
	<path d="M382.195,286.283c0,0.683-0.157,1.205-0.471,1.566c-0.314,0.361-0.768,0.542-1.359,0.542c-0.58,0-1.024-0.183-1.334-0.548
		c-0.309-0.365-0.463-0.885-0.463-1.561c0-0.697,0.158-1.222,0.475-1.573c0.316-0.351,0.765-0.526,1.345-0.526
		c0.609,0,1.063,0.174,1.361,0.521C382.045,285.053,382.195,285.578,382.195,286.283z M381.486,286.283
		c0-0.537-0.086-0.938-0.257-1.203c-0.172-0.266-0.448-0.397-0.831-0.397c-0.388,0-0.671,0.135-0.852,0.404
		c-0.18,0.271-0.27,0.669-0.27,1.196c0,0.525,0.09,0.925,0.27,1.198c0.181,0.274,0.45,0.411,0.811,0.411
		c0.397,0,0.685-0.134,0.862-0.401S381.486,286.821,381.486,286.283z"/>
</g>
<g enable-background="new    ">
	<path d="M363.733,298.571c0,1.415-0.49,2.123-1.471,2.123c-0.614,0-1.028-0.23-1.241-0.69h-0.019
		c0.01,0.02,0.015,0.228,0.015,0.622v1.587h-0.679v-4.812c0-0.425-0.007-0.705-0.022-0.84h0.656c0.003,0.01,0.007,0.047,0.012,0.11
		s0.011,0.157,0.017,0.281c0.007,0.124,0.01,0.216,0.01,0.275h0.015c0.125-0.263,0.284-0.453,0.479-0.571
		c0.193-0.119,0.446-0.179,0.759-0.179c0.495,0,0.864,0.171,1.106,0.512C363.612,297.332,363.733,297.858,363.733,298.571z
		 M363.034,298.571c0-0.564-0.076-0.968-0.229-1.209s-0.393-0.362-0.72-0.362c-0.378,0-0.65,0.137-0.817,0.411
		c-0.168,0.273-0.252,0.688-0.252,1.243c0,0.532,0.084,0.922,0.252,1.17c0.167,0.247,0.438,0.371,0.81,0.371
		c0.333,0,0.575-0.126,0.728-0.379S363.034,299.148,363.034,298.571z"/>
	<path d="M368.173,297.177c-0.28-0.048-0.545-0.071-0.795-0.071c-0.402,0-0.728,0.15-0.976,0.453
		c-0.247,0.303-0.371,0.688-0.371,1.155v1.905h-0.675v-2.629c0-0.19-0.017-0.414-0.051-0.672c-0.033-0.257-0.082-0.51-0.145-0.757
		h0.642c0.1,0.345,0.16,0.657,0.18,0.938h0.019c0.125-0.28,0.248-0.486,0.368-0.617s0.263-0.229,0.428-0.296s0.366-0.1,0.604-0.1
		c0.26,0,0.518,0.021,0.772,0.063V297.177z"/>
	<path d="M372.977,298.586c0,0.683-0.157,1.205-0.471,1.566c-0.314,0.361-0.768,0.542-1.359,0.542c-0.58,0-1.024-0.183-1.334-0.548
		c-0.309-0.365-0.463-0.885-0.463-1.561c0-0.697,0.158-1.222,0.475-1.573c0.316-0.351,0.765-0.526,1.345-0.526
		c0.609,0,1.063,0.174,1.361,0.521C372.827,297.355,372.977,297.881,372.977,298.586z M372.268,298.586
		c0-0.537-0.086-0.938-0.257-1.203c-0.172-0.266-0.448-0.397-0.831-0.397c-0.388,0-0.671,0.135-0.852,0.404
		c-0.18,0.271-0.27,0.669-0.27,1.196c0,0.525,0.09,0.925,0.27,1.198c0.181,0.274,0.45,0.411,0.811,0.411
		c0.397,0,0.685-0.134,0.862-0.401S372.268,299.124,372.268,298.586z"/>
	<path d="M376.703,299.967c-0.122,0.262-0.285,0.453-0.487,0.571c-0.202,0.119-0.455,0.179-0.758,0.179
		c-0.505,0-0.876-0.174-1.113-0.521c-0.238-0.348-0.356-0.871-0.356-1.571c0-1.415,0.49-2.123,1.47-2.123
		c0.303,0,0.556,0.054,0.76,0.161c0.204,0.108,0.367,0.284,0.489,0.529h0.008l-0.008-0.566v-1.571h0.675v4.729
		c0,0.423,0.008,0.702,0.022,0.837h-0.645c-0.01-0.038-0.019-0.129-0.026-0.274c-0.008-0.145-0.012-0.271-0.012-0.378H376.703z
		 M374.686,298.602c0,0.555,0.074,0.959,0.224,1.213c0.148,0.254,0.391,0.381,0.726,0.381c0.364,0,0.635-0.132,0.81-0.396
		s0.263-0.684,0.263-1.259c0-0.537-0.084-0.929-0.253-1.174c-0.169-0.244-0.439-0.367-0.812-0.367c-0.337,0-0.581,0.129-0.73,0.387
		C374.761,297.644,374.686,298.049,374.686,298.602z"/>
	<path d="M379.449,296.562v2.572c0,0.39,0.061,0.661,0.184,0.812c0.122,0.151,0.341,0.228,0.656,0.228
		c0.322,0,0.577-0.11,0.765-0.33s0.281-0.53,0.281-0.931v-2.351h0.679v3.191c0,0.473,0.008,0.761,0.022,0.866H381.4
		c-0.003-0.013-0.006-0.047-0.008-0.102c-0.003-0.055-0.006-0.118-0.01-0.189s-0.008-0.205-0.013-0.403h-0.012
		c-0.155,0.28-0.334,0.479-0.538,0.595c-0.203,0.116-0.457,0.175-0.759,0.175c-0.445,0-0.771-0.111-0.978-0.332
		c-0.206-0.222-0.31-0.587-0.31-1.098v-2.703H379.449z"/>
	<path d="M383.177,298.586c0-0.675,0.161-1.193,0.484-1.556c0.322-0.362,0.788-0.544,1.398-0.544c0.455,0,0.83,0.109,1.125,0.328
		s0.478,0.513,0.548,0.883l-0.721,0.053c-0.04-0.228-0.14-0.407-0.3-0.538s-0.388-0.197-0.683-0.197
		c-0.395,0-0.685,0.123-0.868,0.368s-0.275,0.641-0.275,1.188c0,0.555,0.092,0.961,0.275,1.217c0.184,0.257,0.472,0.385,0.864,0.385
		c0.271,0,0.494-0.066,0.672-0.199c0.178-0.132,0.287-0.335,0.33-0.607l0.712,0.045c-0.032,0.24-0.123,0.458-0.271,0.654
		s-0.346,0.351-0.591,0.462s-0.519,0.167-0.821,0.167c-0.612,0-1.079-0.181-1.398-0.54
		C383.337,299.794,383.177,299.271,383.177,298.586z"/>
	<path d="M388.011,297.094v-0.532h0.637l0.218-1.058h0.45v1.058h1.62v0.532h-1.62v2.445c0,0.197,0.053,0.344,0.159,0.438
		s0.281,0.143,0.523,0.143c0.335,0,0.706-0.042,1.113-0.128v0.515c-0.422,0.114-0.841,0.172-1.256,0.172
		c-0.405,0-0.709-0.085-0.911-0.257c-0.203-0.171-0.304-0.441-0.304-0.812v-2.517H388.011z"/>
	<path d="M394.7,300.086h1.425v0.533h-3.683v-0.533h1.583v-2.992h-1.196v-0.532h1.871V300.086z M393.95,295.773v-0.72h0.75v0.72
		H393.95z"/>
	<path d="M400.63,298.586c0,0.683-0.157,1.205-0.471,1.566c-0.314,0.361-0.768,0.542-1.359,0.542c-0.58,0-1.024-0.183-1.334-0.548
		c-0.309-0.365-0.463-0.885-0.463-1.561c0-0.697,0.158-1.222,0.475-1.573c0.316-0.351,0.765-0.526,1.345-0.526
		c0.609,0,1.063,0.174,1.361,0.521C400.481,297.355,400.63,297.881,400.63,298.586z M399.921,298.586
		c0-0.537-0.086-0.938-0.257-1.203c-0.172-0.266-0.448-0.397-0.831-0.397c-0.388,0-0.671,0.135-0.852,0.404
		c-0.18,0.271-0.27,0.669-0.27,1.196c0,0.525,0.09,0.925,0.27,1.198c0.181,0.274,0.45,0.411,0.811,0.411
		c0.397,0,0.685-0.134,0.862-0.401S399.921,299.124,399.921,298.586z"/>
	<path d="M404.38,300.619v-2.606c0-0.34-0.065-0.593-0.196-0.758c-0.132-0.165-0.341-0.247-0.629-0.247
		c-0.31,0-0.564,0.113-0.763,0.339c-0.199,0.227-0.298,0.533-0.298,0.921v2.352h-0.676v-3.191c0-0.473-0.007-0.762-0.022-0.866
		h0.638c0.003,0.013,0.005,0.046,0.008,0.101c0.002,0.056,0.006,0.118,0.009,0.189c0.004,0.071,0.009,0.206,0.014,0.403h0.011
		c0.263-0.513,0.695-0.769,1.298-0.769c0.433,0,0.755,0.117,0.968,0.351c0.212,0.233,0.318,0.593,0.318,1.078v2.704H404.38z"/>
</g>
<g enable-background="new    ">
	<path d="M361.82,309.298v3.525h-0.675v-3.525h-0.982v-0.533h0.982v-0.094c0-0.513,0.121-0.876,0.362-1.091s0.643-0.322,1.205-0.322
		c0.181,0,0.375,0.008,0.583,0.024c0.209,0.017,0.366,0.035,0.471,0.055v0.543c-0.075-0.012-0.227-0.026-0.455-0.041
		c-0.229-0.015-0.402-0.022-0.52-0.022c-0.26,0-0.456,0.029-0.589,0.086c-0.133,0.057-0.229,0.151-0.291,0.281
		c-0.061,0.13-0.092,0.311-0.092,0.543v0.038h1.842v0.533H361.82z"/>
	<path d="M368.383,312.407c0.065,0,0.139-0.008,0.222-0.026v0.42c-0.171,0.04-0.344,0.06-0.521,0.06
		c-0.25,0-0.433-0.066-0.546-0.197c-0.114-0.131-0.178-0.337-0.193-0.617h-0.022c-0.162,0.303-0.354,0.52-0.575,0.653
		c-0.222,0.132-0.495,0.199-0.819,0.199c-0.396,0-0.692-0.107-0.893-0.323c-0.2-0.215-0.3-0.51-0.3-0.885
		c0-0.873,0.567-1.315,1.702-1.328l0.885-0.015v-0.221c0-0.328-0.066-0.563-0.198-0.707c-0.133-0.144-0.344-0.215-0.634-0.215
		c-0.295,0-0.508,0.052-0.638,0.157s-0.208,0.268-0.232,0.488l-0.705-0.064c0.115-0.73,0.644-1.095,1.586-1.095
		c0.5,0,0.876,0.117,1.127,0.351c0.251,0.234,0.377,0.572,0.377,1.015v1.748c0,0.2,0.026,0.351,0.079,0.452
		C368.136,312.356,368.236,312.407,368.383,312.407z M366.099,312.384c0.24,0,0.453-0.057,0.638-0.172
		c0.186-0.115,0.329-0.269,0.432-0.461c0.103-0.192,0.153-0.391,0.153-0.596v-0.333l-0.712,0.015
		c-0.296,0.005-0.521,0.038-0.676,0.098c-0.154,0.06-0.275,0.152-0.361,0.276c-0.087,0.124-0.13,0.288-0.13,0.493
		s0.056,0.37,0.167,0.495S365.884,312.384,366.099,312.384z"/>
	<path d="M369.35,310.791c0-0.675,0.161-1.194,0.484-1.556c0.322-0.362,0.788-0.544,1.398-0.544c0.455,0,0.83,0.109,1.125,0.328
		s0.478,0.513,0.548,0.883l-0.721,0.053c-0.04-0.228-0.14-0.407-0.3-0.538c-0.16-0.131-0.388-0.197-0.683-0.197
		c-0.395,0-0.685,0.123-0.868,0.368s-0.275,0.641-0.275,1.189c0,0.555,0.092,0.96,0.275,1.217s0.472,0.384,0.864,0.384
		c0.271,0,0.494-0.066,0.672-0.199s0.287-0.335,0.33-0.607l0.712,0.045c-0.032,0.24-0.123,0.458-0.271,0.654
		s-0.346,0.35-0.591,0.461s-0.519,0.167-0.821,0.167c-0.612,0-1.079-0.18-1.398-0.54C369.51,311.998,369.35,311.476,369.35,310.791z
		"/>
	<path d="M376.265,312.291h1.425v0.533h-3.683v-0.533h1.583v-2.992h-1.196v-0.533h1.871V312.291z M375.515,307.978v-0.72h0.75v0.72
		H375.515z"/>
	<path d="M380.84,312.291h1.426v0.533h-3.683v-0.533h1.582v-4.5h-1.084v-0.532h1.759V312.291z"/>
	<path d="M385.484,312.291h1.425v0.533h-3.683v-0.533h1.583v-2.992h-1.196v-0.533h1.871V312.291z M384.734,307.978v-0.72h0.75v0.72
		H384.734z"/>
	<path d="M388.011,309.298v-0.533h0.637l0.218-1.058h0.45v1.058h1.62v0.533h-1.62v2.445c0,0.198,0.053,0.344,0.159,0.439
		c0.106,0.095,0.281,0.143,0.523,0.143c0.335,0,0.706-0.042,1.113-0.128v0.514c-0.422,0.115-0.841,0.172-1.256,0.172
		c-0.405,0-0.709-0.085-0.911-0.257c-0.203-0.171-0.304-0.442-0.304-0.812v-2.516H388.011z"/>
	<path d="M393.001,314.417c-0.185,0-0.34-0.014-0.465-0.041v-0.506c0.095,0.015,0.2,0.022,0.315,0.022
		c0.197,0,0.383-0.074,0.557-0.221s0.32-0.383,0.44-0.705l0.067-0.184l-1.763-4.017h0.721l0.99,2.408
		c0.227,0.56,0.35,0.877,0.367,0.952l0.153-0.412l1.163-2.948h0.712l-1.71,4.058c-0.223,0.587-0.453,1-0.691,1.237
		C393.619,314.298,393.334,314.417,393.001,314.417z"/>
</g>
<polygon points="422.401,164.975 431.206,164.975 420.788,178.864 412.356,178.864 "/>
<rect x="286.851" y="303.873" width="27.035" height="8.682"/>
<polygon points="148.944,235.416 157.749,235.416 147.332,249.306 138.775,249.306 "/>
<polyline fill="none" stroke="#000000" stroke-miterlimit="10" stroke-dasharray="11.0861,6.9288" points="127.986,312.307 
	198.923,312.307 198.923,359.433 "/>
<rect x="130.094" y="613.171" fill="none" width="123.396" height="77.883"/>
<g enable-background="new    ">
	<path d="M133.605,622.438c-0.811,0-1.46-0.226-1.948-0.676c-0.488-0.451-0.794-1.099-0.918-1.942l1.805-0.267
		c0.083,0.488,0.217,0.853,0.403,1.092c0.186,0.24,0.41,0.36,0.67,0.36c0.302,0,0.542-0.122,0.72-0.366s0.267-0.594,0.267-1.049
		v-4.212h-1.867v-1.434h3.691v5.603c0,0.901-0.25,1.608-0.751,2.121C135.176,622.182,134.486,622.438,133.605,622.438z"/>
	<path d="M144.784,618.951c0,1.112-0.281,1.972-0.844,2.577c-0.562,0.606-1.371,0.909-2.426,0.909c-1.017,0-1.807-0.303-2.37-0.909
		c-0.562-0.605-0.844-1.465-0.844-2.577c0-1.108,0.279-1.965,0.837-2.568c0.559-0.604,1.363-0.906,2.413-0.906
		C143.706,615.477,144.784,616.635,144.784,618.951z M142.96,618.951c0-0.794-0.105-1.372-0.316-1.734
		c-0.211-0.361-0.567-0.543-1.067-0.543c-0.513,0-0.882,0.183-1.107,0.546c-0.225,0.364-0.338,0.941-0.338,1.731
		c0,0.798,0.115,1.38,0.344,1.746s0.57,0.549,1.021,0.549c0.513,0,0.885-0.181,1.117-0.543
		C142.844,620.342,142.96,619.758,142.96,618.951z"/>
	<path d="M152.204,620.354c0,0.649-0.266,1.159-0.797,1.528c-0.531,0.371-1.267,0.556-2.206,0.556c-0.922,0-1.628-0.146-2.119-0.438
		c-0.49-0.291-0.815-0.745-0.977-1.361l1.533-0.229c0.086,0.318,0.236,0.544,0.45,0.676c0.213,0.133,0.584,0.198,1.113,0.198
		c0.488,0,0.844-0.062,1.067-0.186c0.223-0.124,0.335-0.318,0.335-0.583c0-0.215-0.09-0.386-0.27-0.512s-0.485-0.233-0.915-0.32
		c-0.984-0.194-1.648-0.375-1.991-0.542c-0.344-0.168-0.605-0.385-0.785-0.651c-0.18-0.268-0.27-0.595-0.27-0.983
		c0-0.642,0.247-1.141,0.741-1.498c0.494-0.358,1.194-0.537,2.1-0.537c0.798,0,1.44,0.155,1.926,0.465
		c0.486,0.311,0.789,0.76,0.909,1.347l-1.545,0.161c-0.049-0.272-0.171-0.477-0.366-0.611c-0.194-0.134-0.502-0.201-0.924-0.201
		c-0.414,0-0.724,0.053-0.931,0.158c-0.207,0.105-0.31,0.282-0.31,0.53c0,0.194,0.08,0.349,0.239,0.462
		c0.159,0.114,0.427,0.208,0.803,0.282c0.525,0.108,0.992,0.219,1.399,0.332c0.407,0.114,0.734,0.25,0.98,0.406
		c0.246,0.157,0.442,0.359,0.589,0.605C152.13,619.653,152.204,619.969,152.204,620.354z"/>
	<path d="M155.584,616.941c0.236-0.513,0.531-0.886,0.887-1.117c0.355-0.231,0.78-0.348,1.272-0.348
		c0.695,0,1.216,0.211,1.563,0.633c0.348,0.422,0.521,1.071,0.521,1.948v4.256h-1.737v-3.853c0-0.624-0.083-1.06-0.251-1.306
		s-0.442-0.369-0.822-0.369c-0.422,0-0.762,0.181-1.021,0.543c-0.258,0.361-0.388,0.826-0.388,1.393v3.592h-1.743v-9.206h1.743
		v2.513c0,0.45-0.017,0.891-0.05,1.321H155.584z"/>
	<path d="M163.184,615.601v3.766c0,0.571,0.092,1.009,0.276,1.312s0.448,0.456,0.791,0.456c0.372,0,0.679-0.183,0.921-0.549
		c0.242-0.366,0.363-0.828,0.363-1.387v-3.599h1.743v5.212c0,0.57,0.017,1.071,0.05,1.501h-1.663
		c-0.049-0.596-0.074-1.04-0.074-1.334h-0.031c-0.443,0.972-1.121,1.458-2.035,1.458c-0.678,0-1.195-0.216-1.551-0.648
		c-0.356-0.432-0.534-1.074-0.534-1.926v-4.263H163.184z"/>
	<path d="M170.951,622.438c-0.649,0-1.156-0.177-1.52-0.53c-0.364-0.354-0.546-0.851-0.546-1.492c0-0.694,0.216-1.223,0.648-1.585
		s1.079-0.549,1.939-0.562l1.383-0.024v-0.342c0-0.426-0.072-0.748-0.217-0.968c-0.145-0.219-0.378-0.328-0.701-0.328
		c-0.302,0-0.524,0.075-0.667,0.226c-0.143,0.151-0.23,0.393-0.264,0.724l-1.818-0.087c0.224-1.328,1.165-1.992,2.823-1.992
		c0.835,0,1.476,0.205,1.92,0.614c0.445,0.41,0.667,1.012,0.667,1.806v2.432c0,0.377,0.042,0.636,0.127,0.778
		c0.084,0.144,0.227,0.215,0.425,0.215c0.132,0,0.261-0.013,0.385-0.038v0.943c-0.104,0.024-0.197,0.048-0.279,0.068
		s-0.166,0.037-0.248,0.05c-0.083,0.012-0.171,0.022-0.264,0.031c-0.093,0.008-0.202,0.012-0.326,0.012
		c-0.438,0-0.762-0.107-0.971-0.322c-0.208-0.215-0.334-0.531-0.375-0.949h-0.037c-0.261,0.468-0.558,0.805-0.891,1.011
		C171.812,622.334,171.414,622.438,170.951,622.438z M172.856,619.205l-0.831,0.013c-0.373,0.009-0.642,0.047-0.81,0.115
		c-0.167,0.067-0.295,0.178-0.382,0.328c-0.087,0.151-0.13,0.357-0.13,0.617c0,0.629,0.249,0.943,0.745,0.943
		c0.401,0,0.736-0.158,1.005-0.475c0.269-0.316,0.403-0.717,0.403-1.2V619.205z"/>
	<path d="M184.785,622.313v-8.369h1.83v6.955h3.821v1.414H184.785z"/>
	<path d="M193.117,624.95c-0.438,0-0.815-0.027-1.129-0.081v-1.24l0.316,0.031l0.316,0.019c0.248,0,0.454-0.04,0.617-0.118
		c0.163-0.079,0.31-0.209,0.44-0.391c0.13-0.183,0.276-0.49,0.438-0.925l-2.779-6.645h1.842l1.179,3.27
		c0.166,0.451,0.375,1.142,0.626,2.072l0.056-0.229l0.502-1.817l1.117-3.295h1.824l-2.779,7.066
		c-0.331,0.852-0.693,1.445-1.085,1.78C194.225,624.782,193.725,624.95,193.117,624.95z"/>
	<path d="M203.837,622.313v-3.84c0-0.583-0.08-1.012-0.239-1.284c-0.159-0.273-0.433-0.41-0.822-0.41
		c-0.43,0-0.775,0.184-1.033,0.55c-0.258,0.365-0.388,0.828-0.388,1.386v3.599h-1.743v-5.211c0-0.36-0.005-0.654-0.016-0.884
		c-0.01-0.23-0.021-0.436-0.034-0.618h1.663c0.013,0.079,0.029,0.289,0.05,0.63c0.021,0.342,0.031,0.576,0.031,0.704h0.025
		c0.236-0.513,0.531-0.885,0.887-1.116c0.355-0.231,0.78-0.348,1.272-0.348c1.39,0,2.084,0.86,2.084,2.581v4.262H203.837z"/>
	<path d="M211.462,622.313v-3.84c0-0.583-0.08-1.012-0.239-1.284c-0.159-0.273-0.433-0.41-0.822-0.41
		c-0.43,0-0.775,0.184-1.033,0.55c-0.258,0.365-0.388,0.828-0.388,1.386v3.599h-1.743v-5.211c0-0.36-0.005-0.654-0.016-0.884
		c-0.01-0.23-0.021-0.436-0.034-0.618h1.663c0.013,0.079,0.029,0.289,0.05,0.63c0.021,0.342,0.031,0.576,0.031,0.704h0.025
		c0.236-0.513,0.531-0.885,0.887-1.116c0.355-0.231,0.78-0.348,1.272-0.348c1.39,0,2.084,0.86,2.084,2.581v4.262H211.462z"/>
</g>
<g enable-background="new    ">
	<path d="M136.137,636.277c0,1.155-0.27,2.043-0.808,2.664c-0.539,0.621-1.307,0.932-2.305,0.932h-2.21v-7.081h1.895
		c1.148,0,2.006,0.288,2.575,0.863C135.853,634.231,136.137,635.105,136.137,636.277z M134.578,636.277
		c0-0.794-0.149-1.374-0.449-1.74c-0.299-0.365-0.781-0.549-1.446-0.549h-0.32v4.688h0.535
		C134.018,638.676,134.578,637.877,134.578,636.277z"/>
	<path d="M140.725,638.876h1.853v0.997h-5.401v-0.997h2.073v-3.686h-1.522v-0.997h2.998V638.876z M139.25,633.17v-1.087h1.475v1.087
		H139.25z"/>
	<path d="M148.683,635.422c-0.392-0.066-0.763-0.1-1.113-0.1c-0.546,0-0.979,0.206-1.299,0.619c-0.32,0.413-0.48,0.957-0.48,1.633
		v2.299h-1.47v-3.68c0-0.266-0.024-0.579-0.071-0.939c-0.047-0.36-0.114-0.714-0.202-1.061h1.422
		c0.126,0.455,0.207,0.854,0.242,1.197h0.021c0.175-0.477,0.411-0.812,0.708-1.009c0.297-0.195,0.684-0.294,1.16-0.294
		c0.364,0,0.724,0.03,1.081,0.09V635.422z"/>
	<path d="M152.746,639.979c-0.882,0-1.562-0.261-2.042-0.78s-0.719-1.25-0.719-2.191c0-0.63,0.113-1.162,0.338-1.596
		c0.226-0.434,0.547-0.763,0.963-0.987c0.417-0.224,0.91-0.336,1.48-0.336c0.829,0,1.473,0.277,1.932,0.83s0.688,1.338,0.688,2.356
		v0.042h-3.853c0,0.515,0.115,0.923,0.344,1.224c0.229,0.301,0.543,0.451,0.942,0.451c0.259,0,0.488-0.055,0.688-0.165
		c0.199-0.11,0.334-0.281,0.404-0.512l1.391,0.12c-0.192,0.493-0.513,0.874-0.96,1.142
		C153.893,639.844,153.362,639.979,152.746,639.979z M152.746,635.018c-0.36,0-0.647,0.121-0.861,0.364
		c-0.214,0.244-0.327,0.58-0.341,1.011h2.415c-0.024-0.42-0.144-0.754-0.359-1.002C153.384,635.142,153.099,635.018,152.746,635.018
		z"/>
	<path d="M159.187,639.979c-0.861,0-1.526-0.257-1.995-0.77s-0.703-1.228-0.703-2.145c0-0.938,0.236-1.668,0.708-2.191
		c0.472-0.523,1.143-0.785,2.01-0.785c0.668,0,1.221,0.168,1.659,0.504c0.438,0.337,0.712,0.8,0.824,1.392l-1.485,0.073
		c-0.042-0.29-0.147-0.522-0.315-0.695s-0.406-0.26-0.714-0.26c-0.759,0-1.139,0.635-1.139,1.905c0,1.309,0.387,1.963,1.16,1.963
		c0.28,0,0.514-0.088,0.703-0.265s0.306-0.44,0.352-0.79l1.48,0.068c-0.052,0.389-0.191,0.734-0.417,1.039
		c-0.226,0.305-0.522,0.54-0.89,0.706C160.058,639.895,159.645,639.979,159.187,639.979z"/>
	<path d="M164.084,635.19h-0.876v-0.997h0.95l0.462-1.48h0.924v1.48h2.021v0.997h-2.021v2.782c0,0.309,0.029,0.516,0.086,0.622
		s0.151,0.19,0.281,0.252s0.312,0.092,0.546,0.092c0.434,0,0.88-0.047,1.339-0.142v0.977c-0.497,0.08-0.849,0.129-1.055,0.145
		s-0.422,0.023-0.646,0.023c-0.445,0-0.816-0.061-1.116-0.182c-0.299-0.12-0.525-0.31-0.677-0.566
		c-0.152-0.257-0.228-0.618-0.228-1.084L164.084,635.19z"/>
	<path d="M174.782,637.028c0,0.941-0.238,1.668-0.714,2.181s-1.16,0.77-2.052,0.77c-0.861,0-1.529-0.257-2.005-0.77
		s-0.714-1.239-0.714-2.181c0-0.938,0.236-1.662,0.708-2.174c0.473-0.511,1.153-0.767,2.042-0.767
		C173.87,634.088,174.782,635.068,174.782,637.028z M173.239,637.028c0-0.672-0.089-1.161-0.268-1.468
		c-0.178-0.306-0.479-0.459-0.903-0.459c-0.434,0-0.746,0.154-0.937,0.462c-0.19,0.308-0.286,0.796-0.286,1.465
		c0,0.675,0.097,1.168,0.292,1.478s0.482,0.464,0.864,0.464c0.434,0,0.749-0.152,0.945-0.459
		C173.141,638.205,173.239,637.71,173.239,637.028z"/>
	<path d="M180.94,635.422c-0.392-0.066-0.763-0.1-1.113-0.1c-0.546,0-0.979,0.206-1.299,0.619c-0.32,0.413-0.48,0.957-0.48,1.633
		v2.299h-1.47v-3.68c0-0.266-0.024-0.579-0.071-0.939c-0.047-0.36-0.114-0.714-0.202-1.061h1.422
		c0.126,0.455,0.207,0.854,0.242,1.197h0.021c0.175-0.477,0.411-0.812,0.708-1.009c0.297-0.195,0.684-0.294,1.16-0.294
		c0.364,0,0.724,0.03,1.081,0.09V635.422z"/>
</g>
<g enable-background="new    ">
	<path d="M135.369,652.329c0,1.075-0.198,1.896-0.594,2.464c-0.396,0.568-0.98,0.853-1.754,0.853c-0.773,0-1.354-0.282-1.742-0.848
		c-0.388-0.564-0.582-1.388-0.582-2.469c0-1.11,0.189-1.941,0.568-2.491c0.378-0.551,0.974-0.826,1.785-0.826
		c0.792,0,1.377,0.278,1.754,0.833C135.181,650.4,135.369,651.228,135.369,652.329z M134.496,652.329
		c0-0.923-0.112-1.59-0.336-2.002c-0.224-0.412-0.594-0.618-1.109-0.618c-0.528,0-0.907,0.203-1.138,0.61
		c-0.23,0.407-0.346,1.077-0.346,2.01c0,0.906,0.117,1.568,0.351,1.987c0.234,0.418,0.605,0.627,1.114,0.627
		c0.506,0,0.876-0.215,1.112-0.644C134.378,653.87,134.496,653.213,134.496,652.329z M132.473,652.901v-1.188h1.121v1.188H132.473z"
		/>
	<path d="M136.657,655.55v-0.559c0.156-0.347,0.398-0.695,0.728-1.047c0.329-0.352,0.777-0.754,1.343-1.205
		c0.506-0.404,0.87-0.756,1.093-1.055s0.334-0.587,0.334-0.864c0-0.353-0.11-0.625-0.329-0.815c-0.22-0.191-0.533-0.286-0.94-0.286
		c-0.362,0-0.656,0.099-0.88,0.298c-0.224,0.199-0.357,0.478-0.398,0.838l-0.878-0.082c0.063-0.54,0.285-0.969,0.663-1.285
		c0.379-0.317,0.876-0.476,1.494-0.476c0.678,0,1.206,0.153,1.584,0.458c0.378,0.306,0.568,0.738,0.568,1.299
		c0,0.365-0.121,0.73-0.363,1.095c-0.242,0.364-0.603,0.737-1.083,1.119c-0.655,0.521-1.109,0.906-1.362,1.152
		c-0.253,0.247-0.432,0.486-0.537,0.719h3.45v0.696H136.657z"/>
	<path d="M142.585,655.55v-0.692h2.095v-4.872c-0.118,0.248-0.397,0.465-0.837,0.649c-0.441,0.185-0.875,0.276-1.301,0.276v-0.706
		c0.471,0,0.916-0.104,1.334-0.311c0.418-0.206,0.71-0.468,0.875-0.782h0.792v5.745h1.685v0.692H142.585z"/>
	<path d="M158.829,652.329c0,1.075-0.198,1.896-0.594,2.464c-0.396,0.568-0.98,0.853-1.754,0.853c-0.773,0-1.354-0.282-1.742-0.848
		c-0.388-0.564-0.582-1.388-0.582-2.469c0-1.11,0.189-1.941,0.568-2.491c0.378-0.551,0.974-0.826,1.785-0.826
		c0.792,0,1.377,0.278,1.754,0.833C158.64,650.4,158.829,651.228,158.829,652.329z M157.955,652.329c0-0.923-0.112-1.59-0.336-2.002
		c-0.224-0.412-0.594-0.618-1.109-0.618c-0.528,0-0.907,0.203-1.138,0.61c-0.23,0.407-0.346,1.077-0.346,2.01
		c0,0.906,0.117,1.568,0.351,1.987c0.234,0.418,0.605,0.627,1.114,0.627c0.506,0,0.876-0.215,1.112-0.644
		C157.838,653.87,157.955,653.213,157.955,652.329z M155.932,652.901v-1.188h1.121v1.188H155.932z"/>
	<path d="M164.675,653.431c0,0.442-0.094,0.831-0.282,1.165c-0.188,0.334-0.462,0.592-0.823,0.775
		c-0.361,0.183-0.788,0.274-1.281,0.274c-0.626,0-1.132-0.137-1.518-0.411c-0.385-0.273-0.628-0.669-0.73-1.188l0.869-0.101
		c0.181,0.665,0.647,0.997,1.398,0.997c0.449,0,0.807-0.133,1.074-0.4c0.268-0.268,0.401-0.632,0.401-1.093
		c0-0.395-0.132-0.718-0.396-0.969s-0.617-0.377-1.06-0.377c-0.232,0-0.448,0.036-0.649,0.109c-0.2,0.073-0.401,0.197-0.601,0.372
		h-0.84l0.224-3.474h3.822v0.691h-3.03l-0.138,2.028c0.372-0.286,0.835-0.429,1.389-0.429c0.649,0,1.173,0.187,1.572,0.561
		C164.475,652.338,164.675,652.826,164.675,653.431z"/>
	<path d="M170.397,649.775c-1.505,2.163-2.257,4.088-2.257,5.774h-0.897c0-0.837,0.195-1.739,0.585-2.708s0.969-1.981,1.739-3.038
		h-3.517v-0.691h4.348V649.775z"/>
	<path d="M181.497,654.027v1.522h-0.859v-1.522h-3.121v-0.668l3.03-4.247h0.95v4.237h0.897v0.678H181.497z M180.637,650.043
		l-2.386,3.307h2.386V650.043z"/>
	<path d="M188.12,653.422c0,0.674-0.193,1.213-0.58,1.617s-0.917,0.606-1.591,0.606c-0.751,0-1.329-0.274-1.732-0.823
		c-0.404-0.549-0.606-1.327-0.606-2.336c0-1.107,0.21-1.963,0.63-2.567s1.012-0.907,1.775-0.907c1.015,0,1.654,0.457,1.918,1.37
		l-0.821,0.147c-0.168-0.547-0.538-0.82-1.107-0.82c-0.487,0-0.865,0.221-1.136,0.663s-0.406,1.062-0.406,1.861
		c0.156-0.29,0.375-0.51,0.659-0.661s0.607-0.227,0.974-0.227c0.611,0,1.101,0.188,1.47,0.565S188.12,652.792,188.12,653.422z
		 M187.247,653.46c0-0.458-0.122-0.814-0.365-1.069c-0.243-0.255-0.573-0.382-0.99-0.382c-0.235,0-0.458,0.054-0.668,0.16
		s-0.375,0.254-0.494,0.443c-0.12,0.189-0.179,0.403-0.179,0.643c0,0.483,0.128,0.887,0.384,1.212
		c0.256,0.324,0.584,0.486,0.985,0.486c0.404,0,0.726-0.134,0.966-0.4C187.127,654.285,187.247,653.921,187.247,653.46z"/>
	<path d="M193.975,653.746c0,0.585-0.198,1.048-0.594,1.389c-0.396,0.34-0.961,0.511-1.696,0.511c-0.719,0-1.281-0.167-1.687-0.501
		s-0.608-0.797-0.608-1.389c0-0.411,0.125-0.76,0.377-1.048s0.573-0.465,0.964-0.532v-0.019c-0.356-0.086-0.643-0.268-0.859-0.544
		c-0.216-0.277-0.325-0.594-0.325-0.95c0-0.312,0.088-0.595,0.265-0.85c0.176-0.254,0.425-0.451,0.747-0.592
		c0.321-0.14,0.69-0.21,1.107-0.21c0.436,0,0.816,0.071,1.14,0.213c0.325,0.142,0.573,0.338,0.745,0.589
		c0.172,0.252,0.258,0.538,0.258,0.859c0,0.359-0.11,0.678-0.329,0.954c-0.22,0.277-0.508,0.45-0.864,0.521v0.019
		c0.413,0.067,0.744,0.241,0.99,0.522C193.852,652.971,193.975,653.323,193.975,653.746z M193.083,653.665
		c0-0.382-0.124-0.676-0.372-0.881s-0.597-0.308-1.045-0.308c-0.433,0-0.772,0.11-1.019,0.332c-0.247,0.221-0.37,0.513-0.37,0.875
		c0,0.43,0.12,0.757,0.36,0.981c0.24,0.224,0.592,0.336,1.057,0.336c0.468,0,0.816-0.109,1.045-0.329
		S193.083,654.116,193.083,653.665z M192.916,650.721c0-0.354-0.107-0.62-0.322-0.8c-0.215-0.18-0.524-0.27-0.928-0.27
		c-0.392,0-0.696,0.091-0.914,0.272c-0.218,0.181-0.327,0.446-0.327,0.797c0,0.353,0.109,0.627,0.329,0.82
		c0.22,0.194,0.526,0.291,0.921,0.291C192.502,651.832,192.916,651.462,192.916,650.721z"/>
	<path d="M199.807,652.195c0,1.101-0.212,1.951-0.635,2.551c-0.423,0.6-1.023,0.899-1.799,0.899c-0.525,0-0.946-0.11-1.262-0.332
		c-0.316-0.221-0.543-0.578-0.68-1.071l0.821-0.129c0.172,0.561,0.551,0.84,1.136,0.84c0.49,0,0.873-0.222,1.148-0.666
		c0.275-0.443,0.416-1.057,0.422-1.839c-0.127,0.286-0.345,0.516-0.654,0.689c-0.309,0.173-0.647,0.26-1.017,0.26
		c-0.601,0-1.084-0.203-1.448-0.608s-0.546-0.935-0.546-1.587c0-0.674,0.2-1.208,0.599-1.601c0.399-0.393,0.945-0.59,1.639-0.59
		C199.049,649.012,199.807,650.073,199.807,652.195z M198.872,651.437c0-0.513-0.127-0.929-0.382-1.248
		c-0.254-0.32-0.584-0.479-0.988-0.479c-0.414,0-0.74,0.138-0.978,0.415c-0.239,0.276-0.358,0.637-0.358,1.078
		c0,0.455,0.119,0.822,0.358,1.101c0.238,0.278,0.561,0.417,0.969,0.417c0.242,0,0.47-0.055,0.685-0.164
		c0.215-0.11,0.384-0.263,0.508-0.458C198.81,651.901,198.872,651.682,198.872,651.437z"/>
</g>
<g enable-background="new    ">
	<path d="M134.095,671.359c0,0.595-0.178,1.06-0.534,1.394c-0.356,0.334-0.864,0.501-1.522,0.501c-0.251,0-0.507-0.021-0.768-0.062
		c-0.261-0.041-0.463-0.089-0.606-0.143v-0.668c0.478,0.107,0.912,0.162,1.303,0.162c0.407,0,0.72-0.105,0.94-0.315
		c0.219-0.21,0.329-0.504,0.329-0.883v-4.604h-1.942v-0.678h2.801V671.359z M133.141,665.06v-0.916h0.954v0.916H133.141z"/>
	<path d="M141.205,668.639c0,0.869-0.2,1.533-0.599,1.993c-0.399,0.459-0.976,0.689-1.73,0.689c-0.738,0-1.304-0.232-1.696-0.697
		c-0.393-0.464-0.589-1.126-0.589-1.985c0-0.887,0.201-1.555,0.604-2.001c0.402-0.447,0.973-0.671,1.711-0.671
		c0.776,0,1.354,0.221,1.732,0.663C141.016,667.072,141.205,667.742,141.205,668.639z M140.303,668.639
		c0-0.684-0.109-1.194-0.327-1.531c-0.218-0.337-0.57-0.506-1.057-0.506c-0.493,0-0.854,0.172-1.083,0.516
		c-0.229,0.343-0.343,0.851-0.343,1.521c0,0.669,0.114,1.177,0.343,1.525c0.229,0.348,0.573,0.522,1.031,0.522
		c0.506,0,0.872-0.17,1.098-0.511C140.191,669.835,140.303,669.323,140.303,668.639z"/>
	<path d="M146.894,669.751c0,0.49-0.186,0.874-0.556,1.152s-0.884,0.418-1.539,0.418s-1.154-0.103-1.496-0.308
		c-0.342-0.206-0.565-0.529-0.67-0.972l0.759-0.147c0.061,0.273,0.19,0.473,0.389,0.599c0.199,0.126,0.538,0.188,1.019,0.188
		c0.859,0,1.289-0.272,1.289-0.816c0-0.203-0.078-0.368-0.234-0.493c-0.156-0.126-0.395-0.229-0.716-0.309
		c-0.84-0.206-1.373-0.369-1.599-0.486c-0.226-0.118-0.399-0.265-0.52-0.441c-0.121-0.177-0.182-0.396-0.182-0.661
		c0-0.468,0.169-0.833,0.506-1.098c0.337-0.264,0.826-0.396,1.465-0.396c0.56,0,1.007,0.105,1.341,0.317
		c0.334,0.211,0.542,0.519,0.625,0.923l-0.773,0.096c-0.035-0.229-0.148-0.402-0.339-0.521c-0.191-0.117-0.476-0.177-0.854-0.177
		c-0.78,0-1.169,0.24-1.169,0.721c0,0.191,0.066,0.344,0.198,0.458c0.132,0.115,0.344,0.207,0.637,0.277l0.568,0.147
		c0.519,0.128,0.892,0.253,1.119,0.377c0.228,0.124,0.407,0.279,0.537,0.466C146.829,669.252,146.894,669.48,146.894,669.751z"/>
	<path d="M148.583,664.144h0.864v1.861c0,0.188-0.014,0.501-0.043,0.94h0.014c0.334-0.652,0.874-0.979,1.618-0.979
		c1.113,0,1.67,0.606,1.67,1.818v3.44h-0.864v-3.316c0-0.433-0.083-0.754-0.25-0.964s-0.434-0.315-0.799-0.315
		c-0.395,0-0.718,0.145-0.971,0.432c-0.253,0.288-0.379,0.679-0.379,1.172v2.992h-0.859V664.144z"/>
	<path d="M155.307,666.062v3.273c0,0.496,0.078,0.841,0.234,1.033s0.434,0.288,0.835,0.288c0.411,0,0.735-0.14,0.974-0.42
		c0.239-0.279,0.358-0.674,0.358-1.183v-2.992h0.864v4.061c0,0.602,0.01,0.969,0.029,1.103h-0.812
		c-0.003-0.016-0.006-0.059-0.009-0.129c-0.003-0.07-0.007-0.15-0.012-0.241c-0.004-0.091-0.01-0.262-0.017-0.513h-0.014
		c-0.197,0.356-0.426,0.608-0.685,0.757c-0.259,0.147-0.581,0.222-0.966,0.222c-0.566,0-0.98-0.141-1.243-0.423
		c-0.262-0.281-0.394-0.746-0.394-1.396v-3.44H155.307z"/>
	<path d="M164.684,670.696c0.083,0,0.177-0.012,0.282-0.034v0.535c-0.216,0.051-0.438,0.076-0.663,0.076
		c-0.318,0-0.55-0.084-0.695-0.251c-0.145-0.167-0.227-0.429-0.246-0.785h-0.028c-0.207,0.386-0.451,0.662-0.733,0.831
		c-0.281,0.168-0.629,0.253-1.042,0.253c-0.503,0-0.881-0.137-1.136-0.411c-0.255-0.273-0.382-0.648-0.382-1.126
		c0-1.11,0.722-1.673,2.167-1.689l1.126-0.019v-0.281c0-0.417-0.084-0.717-0.253-0.9c-0.169-0.183-0.438-0.274-0.807-0.274
		c-0.375,0-0.646,0.067-0.812,0.201c-0.165,0.133-0.264,0.34-0.296,0.62l-0.897-0.081c0.146-0.929,0.819-1.394,2.019-1.394
		c0.636,0,1.114,0.148,1.434,0.446c0.32,0.297,0.479,0.728,0.479,1.291v2.224c0,0.255,0.034,0.446,0.101,0.575
		C164.369,670.632,164.497,670.696,164.684,670.696z M161.778,670.667c0.306,0,0.576-0.073,0.812-0.22
		c0.235-0.146,0.418-0.342,0.549-0.587c0.13-0.244,0.196-0.497,0.196-0.759v-0.424l-0.907,0.019
		c-0.375,0.007-0.662,0.048-0.859,0.124s-0.351,0.193-0.46,0.351c-0.109,0.158-0.165,0.367-0.165,0.628s0.071,0.471,0.212,0.63
		S161.505,670.667,161.778,670.667z"/>
	<path d="M170.969,667.623c0,0.947-0.131,1.702-0.394,2.264c-0.262,0.562-0.616,0.843-1.062,0.843c-0.455,0-0.683-0.25-0.683-0.749
		v-0.039l0.01-0.143h-0.029c-0.108,0.28-0.26,0.505-0.456,0.675c-0.196,0.171-0.418,0.256-0.666,0.256
		c-0.337,0-0.601-0.159-0.79-0.478c-0.189-0.318-0.284-0.771-0.284-1.36c0-0.512,0.077-0.995,0.231-1.45s0.364-0.813,0.63-1.076
		s0.562-0.394,0.89-0.394c0.226,0,0.411,0.065,0.556,0.198c0.145,0.132,0.252,0.341,0.322,0.627h0.024l0.153-0.721h0.554
		l-0.473,2.42c-0.127,0.668-0.191,1.11-0.191,1.326c0,0.28,0.078,0.42,0.234,0.42c0.248,0,0.451-0.236,0.608-0.711
		c0.158-0.474,0.236-1.106,0.236-1.899c0-0.871-0.173-1.578-0.52-2.121c-0.347-0.542-0.807-0.813-1.379-0.813
		c-0.471,0-0.888,0.171-1.25,0.513c-0.362,0.343-0.643,0.823-0.84,1.444c-0.197,0.62-0.296,1.326-0.296,2.118
		c0,0.983,0.185,1.77,0.554,2.357c0.369,0.589,0.875,0.883,1.518,0.883c0.299,0,0.587-0.056,0.864-0.167s0.576-0.307,0.897-0.587
		l0.339,0.415c-0.366,0.315-0.72,0.544-1.064,0.688s-0.705,0.215-1.083,0.215c-0.525,0-0.987-0.154-1.386-0.463
		s-0.706-0.753-0.918-1.334c-0.213-0.58-0.32-1.249-0.32-2.007c0-0.909,0.123-1.717,0.368-2.422c0.245-0.704,0.595-1.248,1.05-1.632
		c0.455-0.383,0.981-0.575,1.58-0.575c0.502,0,0.939,0.145,1.31,0.432c0.371,0.288,0.656,0.695,0.857,1.222
		C170.869,666.324,170.969,666.933,170.969,667.623z M168.993,667.484c0-0.337-0.056-0.593-0.167-0.766
		c-0.111-0.174-0.261-0.261-0.448-0.261c-0.201,0-0.385,0.106-0.554,0.317c-0.169,0.212-0.305,0.511-0.408,0.897
		s-0.155,0.79-0.155,1.21c0,0.894,0.181,1.341,0.544,1.341c0.235,0,0.447-0.151,0.635-0.453c0.188-0.303,0.327-0.703,0.417-1.203
		C168.948,668.068,168.993,667.707,168.993,667.484z"/>
	<path d="M172.067,666.74v-0.678h0.811l0.277-1.346h0.573v1.346h2.062v0.678h-2.062v3.111c0,0.251,0.067,0.438,0.203,0.558
		c0.135,0.121,0.357,0.182,0.666,0.182c0.426,0,0.898-0.054,1.417-0.162v0.653c-0.538,0.146-1.07,0.22-1.599,0.22
		c-0.515,0-0.902-0.108-1.16-0.327c-0.257-0.218-0.386-0.562-0.386-1.033v-3.201H172.067z"/>
	<path d="M177.908,664.144h0.864v1.861c0,0.188-0.014,0.501-0.043,0.94h0.014c0.334-0.652,0.874-0.979,1.618-0.979
		c1.113,0,1.67,0.606,1.67,1.818v3.44h-0.864v-3.316c0-0.433-0.083-0.754-0.25-0.964s-0.434-0.315-0.799-0.315
		c-0.395,0-0.718,0.145-0.971,0.432c-0.253,0.288-0.379,0.679-0.379,1.172v2.992h-0.859V664.144z"/>
	<path d="M186.445,670.548h1.813v0.678h-4.686v-0.678h2.014v-3.808h-1.522v-0.678h2.381V670.548z M185.49,665.06v-0.916h0.955v0.916
		H185.49z"/>
	<path d="M192.897,671.226v-3.316c0-0.433-0.083-0.754-0.25-0.964s-0.434-0.315-0.799-0.315c-0.395,0-0.718,0.145-0.971,0.432
		c-0.253,0.288-0.379,0.679-0.379,1.172v2.992h-0.859v-4.062c0-0.601-0.009-0.969-0.029-1.102h0.812
		c0.003,0.016,0.006,0.059,0.009,0.129c0.003,0.069,0.007,0.15,0.012,0.24c0.005,0.091,0.01,0.262,0.017,0.514h0.014
		c0.334-0.652,0.885-0.979,1.651-0.979c0.55,0,0.961,0.148,1.231,0.446c0.271,0.297,0.406,0.755,0.406,1.372v3.44H192.897z"/>
	<path d="M198.982,671.226l-1.747-2.381l-0.63,0.467v1.914h-0.859v-7.082h0.859v4.424l2.267-2.505h1.007l-2.095,2.219l2.205,2.944
		H198.982z"/>
	<path d="M201.391,666.74v-0.678h0.811l0.277-1.346h0.573v1.346h2.062v0.678h-2.062v3.111c0,0.251,0.067,0.438,0.203,0.558
		c0.135,0.121,0.357,0.182,0.666,0.182c0.426,0,0.898-0.054,1.417-0.162v0.653c-0.538,0.146-1.07,0.22-1.599,0.22
		c-0.515,0-0.902-0.108-1.16-0.327c-0.257-0.218-0.386-0.562-0.386-1.033v-3.201H201.391z"/>
	<path d="M208.717,671.226v-1.427h1.121v1.427H208.717z"/>
	<path d="M212.835,668.639c0-0.858,0.205-1.519,0.615-1.98c0.411-0.461,1.004-0.691,1.78-0.691c0.579,0,1.056,0.139,1.432,0.418
		c0.375,0.278,0.607,0.652,0.697,1.123l-0.917,0.067c-0.051-0.29-0.178-0.518-0.382-0.686c-0.204-0.167-0.493-0.25-0.868-0.25
		c-0.503,0-0.871,0.156-1.105,0.468s-0.351,0.815-0.351,1.513c0,0.706,0.117,1.223,0.351,1.549s0.601,0.488,1.1,0.488
		c0.343,0,0.628-0.084,0.854-0.253c0.226-0.168,0.366-0.426,0.42-0.772l0.907,0.058c-0.042,0.305-0.157,0.583-0.346,0.832
		c-0.189,0.25-0.44,0.445-0.752,0.587c-0.312,0.142-0.66,0.213-1.045,0.213c-0.779,0-1.373-0.229-1.78-0.688
		C213.038,670.176,212.835,669.511,212.835,668.639z"/>
	<path d="M223.314,668.639c0,0.869-0.2,1.533-0.599,1.993c-0.399,0.459-0.976,0.689-1.73,0.689c-0.738,0-1.304-0.232-1.696-0.697
		c-0.393-0.464-0.589-1.126-0.589-1.985c0-0.887,0.201-1.555,0.604-2.001c0.402-0.447,0.973-0.671,1.711-0.671
		c0.776,0,1.354,0.221,1.732,0.663C223.125,667.072,223.314,667.742,223.314,668.639z M222.412,668.639
		c0-0.684-0.109-1.194-0.327-1.531c-0.218-0.337-0.57-0.506-1.057-0.506c-0.493,0-0.854,0.172-1.083,0.516
		c-0.229,0.343-0.343,0.851-0.343,1.521c0,0.669,0.114,1.177,0.343,1.525c0.229,0.348,0.573,0.522,1.031,0.522
		c0.506,0,0.872-0.17,1.098-0.511C222.3,669.835,222.412,669.323,222.412,668.639z"/>
	<path d="M226.479,671.226v-3.273c0-0.49-0.039-0.833-0.117-1.028c-0.078-0.196-0.22-0.294-0.427-0.294
		c-0.204,0-0.368,0.153-0.494,0.458c-0.126,0.306-0.188,0.72-0.188,1.241v2.896h-0.807v-4.062c0-0.601-0.009-0.969-0.028-1.102
		h0.711l0.028,0.605v0.229h0.01c0.108-0.324,0.245-0.561,0.41-0.709c0.166-0.147,0.373-0.222,0.621-0.222
		c0.28,0,0.489,0.076,0.627,0.229c0.139,0.153,0.238,0.389,0.298,0.707h0.01c0.127-0.338,0.279-0.578,0.456-0.721
		c0.176-0.144,0.4-0.215,0.67-0.215c0.375,0,0.644,0.137,0.807,0.41c0.162,0.273,0.243,0.743,0.243,1.408v3.44h-0.802v-3.273
		c0-0.49-0.039-0.833-0.117-1.028c-0.078-0.196-0.22-0.294-0.427-0.294c-0.21,0-0.376,0.134-0.499,0.401
		c-0.123,0.267-0.184,0.668-0.184,1.202v2.992H226.479z"/>
</g>
<rect x="234.02" y="495.355" fill="none" width="230.299" height="67.713"/>
<g enable-background="new    ">
	<path d="M426.156,501.124c0,0.672-0.256,1.2-0.769,1.583s-1.226,0.575-2.14,0.575c-0.822,0-1.492-0.174-2.01-0.521
		c-0.519-0.346-0.851-0.85-0.998-1.512l1.496-0.194c0.081,0.329,0.249,0.589,0.504,0.78c0.256,0.19,0.605,0.286,1.05,0.286
		c0.462,0,0.805-0.074,1.026-0.221c0.223-0.147,0.333-0.376,0.333-0.688c0-0.231-0.098-0.427-0.294-0.586
		c-0.195-0.159-0.48-0.284-0.855-0.375c-0.752-0.182-1.283-0.34-1.593-0.475s-0.558-0.286-0.743-0.454s-0.328-0.365-0.428-0.591
		s-0.149-0.479-0.149-0.759c0-0.612,0.246-1.097,0.737-1.454c0.492-0.356,1.141-0.535,1.945-0.535c0.783,0,1.396,0.154,1.837,0.465
		c0.441,0.31,0.727,0.79,0.855,1.44l-1.501,0.152c-0.154-0.641-0.562-0.961-1.223-0.961c-0.371,0-0.655,0.069-0.851,0.208
		c-0.196,0.138-0.294,0.337-0.294,0.596c0,0.171,0.047,0.313,0.142,0.428c0.095,0.113,0.223,0.21,0.386,0.288
		c0.163,0.079,0.494,0.184,0.995,0.312c0.657,0.161,1.163,0.341,1.517,0.538c0.354,0.198,0.612,0.437,0.777,0.717
		C426.073,500.449,426.156,500.768,426.156,501.124z"/>
	<path d="M428.213,498.494h-0.877v-0.997h0.95l0.462-1.48h0.924v1.48h2.021v0.997h-2.021v2.782c0,0.309,0.029,0.516,0.087,0.622
		s0.151,0.19,0.281,0.252c0.129,0.062,0.312,0.092,0.546,0.092c0.434,0,0.88-0.047,1.338-0.142v0.977
		c-0.496,0.08-0.849,0.129-1.055,0.145c-0.207,0.016-0.422,0.023-0.646,0.023c-0.444,0-0.816-0.061-1.115-0.182
		c-0.3-0.12-0.525-0.31-0.678-0.566s-0.229-0.618-0.229-1.084L428.213,498.494z"/>
	<path d="M435.126,497.497v3.187c0,0.482,0.078,0.853,0.233,1.11c0.156,0.257,0.379,0.386,0.67,0.386
		c0.314,0,0.574-0.155,0.779-0.465s0.307-0.701,0.307-1.173v-3.045h1.476v4.409c0,0.483,0.014,0.906,0.042,1.271h-1.407
		c-0.042-0.504-0.062-0.88-0.062-1.129h-0.026c-0.375,0.822-0.948,1.234-1.722,1.234c-0.574,0-1.012-0.184-1.312-0.549
		c-0.301-0.366-0.451-0.909-0.451-1.63v-3.606H435.126z"/>
	<path d="M443.684,503.177c-0.015-0.053-0.031-0.185-0.05-0.396c-0.02-0.212-0.029-0.388-0.029-0.527h-0.021
		c-0.186,0.374-0.414,0.64-0.688,0.795c-0.272,0.156-0.597,0.234-0.971,0.234c-0.627,0-1.12-0.263-1.48-0.788
		c-0.36-0.524-0.541-1.24-0.541-2.146c0-0.928,0.182-1.65,0.544-2.168c0.362-0.519,0.874-0.777,1.535-0.777
		c0.374,0,0.7,0.085,0.977,0.255s0.488,0.419,0.635,0.748h0.011l-0.011-0.935v-2.084h1.476v6.551c0,0.351,0.014,0.764,0.042,1.239
		H443.684z M443.615,500.311c0-0.605-0.099-1.074-0.294-1.406c-0.196-0.333-0.468-0.499-0.813-0.499
		c-0.351,0-0.615,0.163-0.796,0.49c-0.18,0.328-0.271,0.812-0.271,1.452c0,0.644,0.092,1.126,0.276,1.446
		c0.184,0.32,0.443,0.479,0.779,0.479c0.217,0,0.411-0.077,0.582-0.233c0.172-0.155,0.304-0.379,0.396-0.669
		S443.615,500.728,443.615,500.311z"/>
	<path d="M450.014,502.18h1.853v0.997h-5.401v-0.997h2.074v-3.686h-1.522v-0.997h2.997V502.18z M448.539,496.474v-1.087h1.475v1.087
		H448.539z"/>
	<path d="M458.266,500.332c0,0.941-0.238,1.668-0.714,2.181c-0.477,0.513-1.16,0.77-2.053,0.77c-0.861,0-1.529-0.257-2.005-0.77
		c-0.477-0.513-0.714-1.239-0.714-2.181c0-0.938,0.235-1.662,0.708-2.174c0.473-0.511,1.153-0.767,2.042-0.767
		C457.354,497.392,458.266,498.372,458.266,500.332z M456.722,500.332c0-0.672-0.089-1.161-0.268-1.468
		c-0.179-0.306-0.479-0.459-0.902-0.459c-0.435,0-0.747,0.154-0.938,0.462s-0.286,0.796-0.286,1.465
		c0,0.675,0.098,1.168,0.292,1.478c0.193,0.31,0.481,0.464,0.863,0.464c0.434,0,0.749-0.152,0.944-0.459
		C456.624,501.509,456.722,501.014,456.722,500.332z"/>
</g>
<g enable-background="new    ">
	<path d="M331.269,516.867l-1.572-2.47h-1.022v2.47h-0.82v-5.794h2.07c0.667,0,1.176,0.139,1.525,0.414
		c0.349,0.276,0.523,0.673,0.523,1.188c0,0.426-0.134,0.785-0.401,1.077c-0.268,0.293-0.626,0.476-1.076,0.55l1.718,2.564H331.269z
		 M331.149,512.688c0-0.639-0.436-0.958-1.306-0.958h-1.169v2.019h1.203c0.409,0,0.724-0.092,0.942-0.274
		C331.039,513.291,331.149,513.029,331.149,512.688z"/>
	<path d="M337.165,516.391c0.074,0,0.159-0.01,0.254-0.03v0.481c-0.195,0.045-0.394,0.068-0.598,0.068
		c-0.286,0-0.494-0.075-0.625-0.226c-0.13-0.15-0.203-0.386-0.221-0.706h-0.025c-0.187,0.346-0.406,0.595-0.66,0.747
		c-0.253,0.151-0.565,0.228-0.938,0.228c-0.453,0-0.794-0.123-1.022-0.369c-0.229-0.246-0.344-0.584-0.344-1.014
		c0-0.999,0.649-1.506,1.95-1.521l1.014-0.018v-0.253c0-0.375-0.076-0.646-0.229-0.81c-0.151-0.165-0.394-0.247-0.726-0.247
		c-0.338,0-0.581,0.06-0.729,0.181c-0.149,0.12-0.238,0.306-0.267,0.558l-0.808-0.072c0.132-0.836,0.737-1.255,1.816-1.255
		c0.573,0,1.003,0.134,1.291,0.402c0.288,0.268,0.432,0.654,0.432,1.161v2.002c0,0.229,0.03,0.401,0.09,0.518
		C336.882,516.332,336.996,516.391,337.165,516.391z M334.55,516.364c0.274,0,0.518-0.065,0.729-0.197s0.377-0.308,0.494-0.528
		s0.177-0.448,0.177-0.683v-0.383l-0.816,0.018c-0.338,0.006-0.596,0.043-0.773,0.111c-0.178,0.069-0.315,0.175-0.414,0.316
		s-0.148,0.33-0.148,0.564s0.063,0.424,0.191,0.567C334.116,516.293,334.304,516.364,334.55,516.364z"/>
	<path d="M341.443,516.867v-2.985c0-0.389-0.074-0.678-0.225-0.867s-0.391-0.283-0.72-0.283c-0.355,0-0.646,0.129-0.874,0.389
		c-0.228,0.259-0.342,0.61-0.342,1.054v2.693h-0.772v-3.655c0-0.541-0.009-0.871-0.026-0.992h0.73
		c0.003,0.015,0.006,0.054,0.009,0.116c0.003,0.063,0.006,0.136,0.011,0.217c0.004,0.082,0.009,0.235,0.015,0.462h0.013
		c0.301-0.587,0.796-0.881,1.486-0.881c0.495,0,0.864,0.134,1.108,0.402c0.243,0.268,0.365,0.679,0.365,1.234v3.097H341.443z"/>
	<path d="M346.696,516.12c-0.141,0.301-0.326,0.519-0.559,0.654c-0.231,0.137-0.521,0.204-0.867,0.204
		c-0.578,0-1.004-0.198-1.275-0.597c-0.272-0.397-0.408-0.998-0.408-1.8c0-1.62,0.562-2.431,1.684-2.431
		c0.347,0,0.637,0.062,0.87,0.185c0.232,0.123,0.42,0.325,0.56,0.605h0.009l-0.009-0.648v-1.8h0.773v5.416
		c0,0.484,0.009,0.804,0.026,0.958h-0.739c-0.012-0.043-0.021-0.147-0.03-0.313s-0.013-0.311-0.013-0.434H346.696z M344.385,514.557
		c0,0.636,0.085,1.099,0.256,1.39c0.17,0.29,0.447,0.436,0.831,0.436c0.418,0,0.727-0.151,0.928-0.453c0.2-0.302,0.3-0.782,0.3-1.44
		c0-0.616-0.096-1.064-0.289-1.345s-0.504-0.421-0.931-0.421c-0.386,0-0.665,0.147-0.837,0.442S344.385,513.924,344.385,514.557z"/>
	<path d="M352.985,514.539c0,0.782-0.18,1.38-0.539,1.793c-0.359,0.414-0.879,0.621-1.558,0.621c-0.664,0-1.173-0.209-1.526-0.627
		s-0.53-1.014-0.53-1.787c0-0.799,0.181-1.399,0.543-1.802s0.876-0.604,1.54-0.604c0.698,0,1.218,0.199,1.559,0.598
		C352.814,513.129,352.985,513.731,352.985,514.539z M352.172,514.539c0-0.615-0.098-1.075-0.294-1.378
		c-0.196-0.304-0.513-0.456-0.951-0.456c-0.444,0-0.769,0.155-0.975,0.464c-0.206,0.31-0.31,0.767-0.31,1.37
		c0,0.602,0.104,1.059,0.31,1.372s0.515,0.471,0.928,0.471c0.455,0,0.784-0.153,0.987-0.46
		C352.071,515.616,352.172,515.155,352.172,514.539z"/>
	<path d="M356.712,516.257h1.632v0.61h-4.218v-0.61h1.812v-5.153h-1.241v-0.61h2.015V516.257z"/>
	<path d="M363.511,514.522c0,1.62-0.562,2.431-1.684,2.431c-0.704,0-1.179-0.264-1.422-0.79h-0.021
		c0.012,0.022,0.018,0.261,0.018,0.713v1.816h-0.777v-5.51c0-0.487-0.009-0.808-0.026-0.963h0.752
		c0.003,0.012,0.007,0.054,0.013,0.127s0.013,0.181,0.02,0.322s0.011,0.247,0.011,0.315h0.017c0.144-0.301,0.326-0.519,0.548-0.654
		c0.222-0.137,0.512-0.204,0.87-0.204c0.566,0,0.989,0.195,1.267,0.586C363.372,513.103,363.511,513.706,363.511,514.522z
		 M362.712,514.522c0-0.647-0.088-1.109-0.262-1.386c-0.175-0.276-0.45-0.414-0.825-0.414c-0.433,0-0.744,0.156-0.937,0.471
		c-0.191,0.313-0.287,0.788-0.287,1.423c0,0.61,0.096,1.057,0.287,1.341c0.192,0.283,0.501,0.425,0.928,0.425
		c0.381,0,0.659-0.145,0.834-0.434C362.624,515.659,362.712,515.184,362.712,514.522z"/>
	<path d="M364.903,510.493h0.777v1.676c0,0.169-0.014,0.45-0.039,0.846h0.013c0.301-0.587,0.786-0.881,1.456-0.881
		c1.002,0,1.504,0.546,1.504,1.637v3.097h-0.778v-2.985c0-0.389-0.074-0.678-0.225-0.867s-0.391-0.283-0.72-0.283
		c-0.355,0-0.646,0.129-0.874,0.389c-0.228,0.259-0.342,0.61-0.342,1.054v2.693h-0.772V510.493z"/>
	<path d="M379.509,515.278c0,0.526-0.192,0.938-0.578,1.232c-0.385,0.295-0.934,0.442-1.646,0.442c-1.309,0-2.069-0.513-2.281-1.538
		l0.795-0.158c0.08,0.369,0.246,0.638,0.498,0.805c0.252,0.168,0.589,0.252,1.01,0.252c0.455,0,0.801-0.089,1.037-0.267
		s0.354-0.43,0.354-0.756c0-0.2-0.047-0.363-0.14-0.489c-0.094-0.126-0.216-0.229-0.367-0.31c-0.152-0.08-0.323-0.146-0.514-0.195
		s-0.383-0.1-0.577-0.148c-0.461-0.12-0.79-0.228-0.986-0.322s-0.353-0.202-0.47-0.324c-0.118-0.121-0.206-0.261-0.267-0.419
		c-0.061-0.157-0.09-0.342-0.09-0.554c0-0.495,0.174-0.877,0.521-1.145s0.847-0.401,1.497-0.401c0.606,0,1.07,0.105,1.392,0.317
		c0.32,0.212,0.544,0.57,0.67,1.074l-0.808,0.142c-0.068-0.321-0.206-0.554-0.412-0.698s-0.488-0.217-0.847-0.217
		c-0.81,0-1.215,0.305-1.215,0.915c0,0.172,0.038,0.312,0.113,0.419c0.076,0.107,0.179,0.195,0.31,0.266
		c0.13,0.07,0.282,0.129,0.455,0.174c0.173,0.046,0.358,0.095,0.557,0.146c0.397,0.101,0.684,0.184,0.858,0.251
		s0.33,0.145,0.466,0.23c0.137,0.085,0.253,0.188,0.351,0.305s0.174,0.255,0.229,0.412S379.509,515.063,379.509,515.278z"/>
	<path d="M380.759,512.83v-0.61h0.729l0.249-1.211h0.516v1.211h1.855v0.61h-1.855v2.8c0,0.227,0.061,0.395,0.183,0.503
		s0.321,0.163,0.6,0.163c0.383,0,0.809-0.049,1.275-0.146v0.588c-0.484,0.132-0.964,0.197-1.439,0.197
		c-0.464,0-0.812-0.098-1.043-0.294c-0.232-0.196-0.349-0.506-0.349-0.93v-2.882H380.759z"/>
	<path d="M386.334,518.426l0.726-2.843h1.139l-1.336,2.843H386.334z"/>
	<path d="M396.474,516.867v-5.794h3.947v0.67h-3.127v1.812h2.869v0.661h-2.869v1.98h3.304v0.67H396.474z"/>
	<path d="M404.759,516.12c-0.141,0.301-0.326,0.519-0.559,0.654c-0.231,0.137-0.521,0.204-0.867,0.204
		c-0.578,0-1.004-0.198-1.275-0.597c-0.272-0.397-0.408-0.998-0.408-1.8c0-1.62,0.562-2.431,1.684-2.431
		c0.347,0,0.637,0.062,0.87,0.185c0.232,0.123,0.42,0.325,0.56,0.605h0.009l-0.009-0.648v-1.8h0.773v5.416
		c0,0.484,0.009,0.804,0.026,0.958h-0.739c-0.012-0.043-0.021-0.147-0.03-0.313s-0.013-0.311-0.013-0.434H404.759z M402.448,514.557
		c0,0.636,0.085,1.099,0.256,1.39c0.17,0.29,0.447,0.436,0.831,0.436c0.418,0,0.727-0.151,0.928-0.453c0.2-0.302,0.3-0.782,0.3-1.44
		c0-0.616-0.096-1.064-0.289-1.345s-0.504-0.421-0.931-0.421c-0.386,0-0.665,0.147-0.837,0.442S402.448,513.924,402.448,514.557z"/>
	<path d="M407.718,514.707c0,0.521,0.115,0.929,0.346,1.224s0.546,0.442,0.947,0.442c0.295,0,0.554-0.063,0.775-0.19
		c0.222-0.128,0.37-0.302,0.444-0.522l0.679,0.193c-0.126,0.355-0.357,0.627-0.693,0.816c-0.337,0.188-0.738,0.283-1.205,0.283
		c-0.676,0-1.195-0.211-1.56-0.632c-0.363-0.421-0.545-1.023-0.545-1.808c0-0.765,0.178-1.353,0.534-1.763
		c0.357-0.411,0.872-0.617,1.545-0.617s1.182,0.205,1.528,0.614c0.347,0.41,0.52,1.028,0.52,1.855v0.104H407.718z M408.993,512.705
		c-0.384,0-0.687,0.126-0.91,0.376c-0.224,0.251-0.342,0.595-0.356,1.033h2.508C410.155,513.175,409.741,512.705,408.993,512.705z"
		/>
	<path d="M415.341,516.867v-2.985c0-0.389-0.074-0.678-0.225-0.867s-0.391-0.283-0.72-0.283c-0.355,0-0.646,0.129-0.874,0.389
		c-0.228,0.259-0.342,0.61-0.342,1.054v2.693h-0.772v-3.655c0-0.541-0.009-0.871-0.026-0.992h0.73
		c0.003,0.015,0.006,0.054,0.009,0.116c0.003,0.063,0.006,0.136,0.011,0.217c0.004,0.082,0.009,0.235,0.015,0.462h0.013
		c0.301-0.587,0.796-0.881,1.486-0.881c0.495,0,0.864,0.134,1.108,0.402c0.243,0.268,0.365,0.679,0.365,1.234v3.097H415.341z"/>
	<path d="M425.216,511.743v5.124h-0.815v-5.124h-1.903v-0.67h4.622v0.67H425.216z"/>
	<path d="M428.008,514.539c0-0.772,0.185-1.367,0.554-1.782s0.903-0.623,1.603-0.623c0.521,0,0.95,0.126,1.288,0.376
		c0.338,0.251,0.547,0.588,0.627,1.012l-0.824,0.061c-0.046-0.261-0.161-0.467-0.344-0.617c-0.184-0.15-0.444-0.225-0.782-0.225
		c-0.452,0-0.783,0.14-0.994,0.421c-0.21,0.28-0.315,0.734-0.315,1.361c0,0.636,0.105,1.1,0.315,1.394
		c0.211,0.293,0.541,0.44,0.99,0.44c0.31,0,0.565-0.076,0.769-0.228c0.203-0.152,0.329-0.384,0.378-0.696l0.816,0.052
		c-0.037,0.274-0.142,0.524-0.312,0.749c-0.17,0.226-0.396,0.401-0.677,0.528c-0.28,0.128-0.594,0.191-0.94,0.191
		c-0.701,0-1.235-0.206-1.602-0.618C428.191,515.922,428.008,515.324,428.008,514.539z"/>
	<path d="M434.111,514.707c0,0.521,0.115,0.929,0.346,1.224s0.546,0.442,0.947,0.442c0.295,0,0.554-0.063,0.775-0.19
		c0.222-0.128,0.37-0.302,0.444-0.522l0.679,0.193c-0.126,0.355-0.357,0.627-0.693,0.816c-0.337,0.188-0.738,0.283-1.205,0.283
		c-0.676,0-1.195-0.211-1.56-0.632c-0.363-0.421-0.545-1.023-0.545-1.808c0-0.765,0.178-1.353,0.534-1.763
		c0.357-0.411,0.872-0.617,1.545-0.617s1.182,0.205,1.528,0.614c0.347,0.41,0.52,1.028,0.52,1.855v0.104H434.111z M435.386,512.705
		c-0.384,0-0.687,0.126-0.91,0.376c-0.224,0.251-0.342,0.595-0.356,1.033h2.508C436.547,513.175,436.134,512.705,435.386,512.705z"
		/>
	<path d="M439.118,518.426l0.726-2.843h1.139l-1.336,2.843H439.118z"/>
	<path d="M453.004,516.867l-0.593-1.641h-2.418l-0.589,1.641h-0.842l2.19-5.794h0.932l2.152,5.794H453.004z M451.208,511.691
		l-0.052,0.168l-0.296,0.91l-0.648,1.817h1.988l-0.743-2.147L451.208,511.691z"/>
	<path d="M457.767,516.867l-1.572-2.144l-0.566,0.421v1.723h-0.773v-6.374h0.773v3.981l2.04-2.255h0.906l-1.886,1.997l1.984,2.65
		H457.767z"/>
</g>
<g enable-background="new    ">
	<path d="M405.859,527.659c0,0.968-0.179,1.708-0.535,2.219s-0.882,0.767-1.578,0.767c-0.695,0-1.218-0.254-1.567-0.763
		c-0.35-0.508-0.524-1.249-0.524-2.223c0-0.999,0.171-1.746,0.512-2.241c0.341-0.496,0.876-0.743,1.606-0.743
		c0.713,0,1.238,0.25,1.578,0.749C405.689,525.924,405.859,526.669,405.859,527.659z M405.073,527.659
		c0-0.83-0.101-1.431-0.303-1.802c-0.202-0.37-0.534-0.556-0.998-0.556c-0.476,0-0.817,0.184-1.024,0.55
		c-0.208,0.366-0.312,0.969-0.312,1.808c0,0.816,0.105,1.413,0.315,1.789c0.211,0.377,0.545,0.564,1.003,0.564
		c0.455,0,0.789-0.192,1.001-0.579S405.073,528.455,405.073,527.659z M403.251,528.175v-1.069h1.01v1.069H403.251z"/>
	<path d="M411.069,527.539c0,0.991-0.19,1.756-0.571,2.296s-0.921,0.81-1.619,0.81c-0.473,0-0.852-0.1-1.137-0.299
		c-0.284-0.198-0.488-0.521-0.611-0.964l0.738-0.116c0.154,0.504,0.495,0.756,1.022,0.756c0.44,0,0.785-0.199,1.033-0.599
		c0.247-0.399,0.374-0.951,0.38-1.656c-0.115,0.258-0.311,0.465-0.589,0.621c-0.277,0.156-0.582,0.233-0.915,0.233
		c-0.541,0-0.976-0.182-1.303-0.547c-0.328-0.365-0.492-0.841-0.492-1.429c0-0.606,0.18-1.087,0.539-1.44s0.852-0.53,1.476-0.53
		C410.385,524.675,411.069,525.63,411.069,527.539z M410.227,526.856c0-0.461-0.115-0.835-0.344-1.123
		c-0.229-0.288-0.525-0.432-0.89-0.432c-0.372,0-0.665,0.124-0.88,0.373c-0.215,0.25-0.322,0.573-0.322,0.971
		c0,0.41,0.107,0.74,0.322,0.99c0.215,0.251,0.505,0.376,0.872,0.376c0.217,0,0.423-0.05,0.616-0.148s0.346-0.236,0.457-0.412
		S410.227,527.077,410.227,526.856z"/>
	<path d="M421.676,528.97c0,0.532-0.18,0.944-0.541,1.236c-0.36,0.292-0.864,0.438-1.512,0.438c-0.612,0-1.103-0.139-1.469-0.417
		c-0.366-0.277-0.583-0.686-0.648-1.224l0.799-0.073c0.104,0.716,0.543,1.074,1.318,1.074c0.39,0,0.695-0.091,0.917-0.271
		c0.222-0.181,0.333-0.444,0.333-0.791c0-0.215-0.065-0.396-0.195-0.543c-0.131-0.147-0.308-0.261-0.53-0.339
		c-0.224-0.079-0.475-0.118-0.752-0.118h-0.438v-0.67h0.421c0.247,0,0.472-0.041,0.677-0.123c0.205-0.081,0.366-0.196,0.483-0.346
		c0.117-0.148,0.176-0.325,0.176-0.528c0-0.304-0.095-0.54-0.285-0.711c-0.19-0.17-0.474-0.255-0.849-0.255
		c-0.341,0-0.616,0.087-0.826,0.262c-0.211,0.175-0.333,0.421-0.367,0.738l-0.778-0.06c0.058-0.495,0.263-0.882,0.617-1.16
		c0.354-0.277,0.808-0.416,1.363-0.416c0.607,0,1.079,0.134,1.415,0.401c0.337,0.268,0.505,0.641,0.505,1.119
		c0,0.341-0.113,0.637-0.34,0.889c-0.226,0.252-0.535,0.418-0.928,0.498v0.018c0.433,0.049,0.78,0.2,1.042,0.455
		S421.676,528.614,421.676,528.97z"/>
	<path d="M426.955,528.651c0,0.398-0.084,0.748-0.253,1.048c-0.169,0.301-0.416,0.534-0.741,0.698
		c-0.325,0.165-0.709,0.247-1.153,0.247c-0.563,0-1.019-0.123-1.365-0.369s-0.565-0.603-0.657-1.069l0.781-0.091
		c0.164,0.599,0.583,0.897,1.259,0.897c0.403,0,0.726-0.12,0.967-0.36c0.24-0.24,0.36-0.568,0.36-0.983
		c0-0.355-0.119-0.646-0.356-0.872c-0.237-0.226-0.556-0.339-0.953-0.339c-0.209,0-0.404,0.032-0.585,0.099
		c-0.18,0.065-0.36,0.178-0.541,0.335h-0.756l0.202-3.127h3.44v0.623h-2.728l-0.125,1.825c0.336-0.258,0.752-0.387,1.25-0.387
		c0.584,0,1.056,0.168,1.415,0.505C426.776,527.667,426.955,528.107,426.955,528.651z"/>
	<path d="M432.212,528.936c0,0.526-0.178,0.943-0.534,1.249c-0.356,0.307-0.865,0.46-1.527,0.46c-0.646,0-1.152-0.15-1.518-0.451
		s-0.548-0.717-0.548-1.25c0-0.369,0.113-0.684,0.339-0.942c0.227-0.259,0.516-0.419,0.868-0.479v-0.018
		c-0.321-0.077-0.579-0.24-0.773-0.489s-0.292-0.534-0.292-0.855c0-0.28,0.079-0.535,0.238-0.764
		c0.159-0.229,0.383-0.407,0.672-0.533c0.29-0.126,0.622-0.188,0.997-0.188c0.392,0,0.734,0.063,1.026,0.19
		c0.292,0.128,0.516,0.305,0.67,0.531c0.154,0.226,0.231,0.483,0.231,0.772c0,0.324-0.099,0.61-0.296,0.859
		s-0.457,0.405-0.777,0.468v0.018c0.372,0.06,0.669,0.217,0.892,0.47C432.102,528.237,432.212,528.555,432.212,528.936z
		 M431.409,528.862c0-0.344-0.111-0.608-0.335-0.793s-0.537-0.276-0.94-0.276c-0.39,0-0.695,0.1-0.917,0.298
		c-0.222,0.199-0.333,0.462-0.333,0.788c0,0.387,0.108,0.681,0.324,0.883s0.533,0.303,0.951,0.303c0.421,0,0.734-0.099,0.94-0.296
		C431.306,529.57,431.409,529.269,431.409,528.862z M431.259,526.212c0-0.317-0.097-0.558-0.29-0.719
		c-0.193-0.162-0.472-0.243-0.835-0.243c-0.353,0-0.627,0.082-0.822,0.245c-0.196,0.163-0.295,0.402-0.295,0.717
		c0,0.318,0.099,0.564,0.297,0.739c0.197,0.175,0.474,0.262,0.829,0.262C430.887,527.213,431.259,526.879,431.259,526.212z"/>
	<path d="M438.744,530.559v-0.623h1.886v-4.385c-0.105,0.224-0.357,0.418-0.754,0.584s-0.786,0.249-1.17,0.249v-0.636
		c0.424,0,0.824-0.093,1.2-0.279c0.377-0.186,0.64-0.421,0.788-0.704h0.713v5.171h1.517v0.623H438.744z"/>
	<path d="M447.373,529.188v1.37H446.6v-1.37h-2.809v-0.602l2.728-3.822h0.854v3.814h0.808v0.609H447.373z M446.6,525.603
		l-2.147,2.977h2.147V525.603z"/>
	<path d="M452.652,529.188v1.37h-0.773v-1.37h-2.809v-0.602l2.728-3.822h0.854v3.814h0.808v0.609H452.652z M451.878,525.603
		l-2.147,2.977h2.147V525.603z"/>
	<path d="M458.496,525.361c-1.354,1.947-2.031,3.68-2.031,5.197h-0.808c0-0.753,0.176-1.565,0.526-2.438s0.873-1.783,1.565-2.733
		h-3.165v-0.623h3.912V525.361z"/>
</g>
<g enable-background="new    ">
	<path d="M389.441,544.25h-0.876l-0.614-2.022l-0.245-0.868l-0.167,0.597l-0.722,2.294h-0.872l-0.786-4.647h0.765l0.399,2.607
		c0.095,0.756,0.142,1.223,0.142,1.4c0.112-0.458,0.195-0.765,0.249-0.919l0.58-1.821h0.829l0.559,1.825
		c0.092,0.301,0.17,0.605,0.236,0.915c0-0.086,0.005-0.193,0.017-0.322s0.026-0.262,0.043-0.397
		c0.018-0.136,0.034-0.266,0.052-0.389s0.03-0.221,0.039-0.292l0.434-2.607h0.756L389.441,544.25z"/>
	<path d="M394.719,544.25h-0.876l-0.614-2.022l-0.245-0.868l-0.167,0.597l-0.722,2.294h-0.872l-0.786-4.647h0.765l0.399,2.607
		c0.095,0.756,0.142,1.223,0.142,1.4c0.112-0.458,0.195-0.765,0.249-0.919l0.58-1.821h0.829l0.559,1.825
		c0.092,0.301,0.17,0.605,0.236,0.915c0-0.086,0.005-0.193,0.017-0.322s0.026-0.262,0.043-0.397
		c0.018-0.136,0.034-0.266,0.052-0.389s0.03-0.221,0.039-0.292l0.434-2.607h0.756L394.719,544.25z"/>
	<path d="M399.997,544.25h-0.876l-0.614-2.022l-0.245-0.868l-0.167,0.597l-0.722,2.294h-0.872l-0.786-4.647h0.765l0.399,2.607
		c0.095,0.756,0.142,1.223,0.142,1.4c0.112-0.458,0.195-0.765,0.249-0.919l0.58-1.821h0.829l0.559,1.825
		c0.092,0.301,0.17,0.605,0.236,0.915c0-0.086,0.005-0.193,0.017-0.322s0.026-0.262,0.043-0.397
		c0.018-0.136,0.034-0.266,0.052-0.389s0.03-0.221,0.039-0.292l0.434-2.607h0.756L399.997,544.25z"/>
	<path d="M403.033,544.25v-1.284h1.01v1.284H403.033z"/>
	<path d="M406.999,540.213v-0.61h0.729l0.249-1.211h0.516v1.211h1.855v0.61h-1.855v2.8c0,0.227,0.061,0.395,0.183,0.503
		s0.321,0.163,0.6,0.163c0.383,0,0.809-0.049,1.275-0.146v0.588c-0.484,0.132-0.964,0.197-1.439,0.197
		c-0.464,0-0.812-0.098-1.043-0.294c-0.232-0.196-0.349-0.506-0.349-0.93v-2.882H406.999z"/>
	<path d="M412.256,537.876h0.777v1.676c0,0.169-0.014,0.45-0.039,0.846h0.013c0.301-0.587,0.786-0.881,1.456-0.881
		c1.002,0,1.504,0.546,1.504,1.637v3.097h-0.778v-2.985c0-0.389-0.074-0.678-0.225-0.867s-0.391-0.283-0.72-0.283
		c-0.355,0-0.646,0.129-0.874,0.389c-0.228,0.259-0.342,0.61-0.342,1.054v2.693h-0.772V537.876z"/>
	<path d="M419.94,543.64h1.632v0.61h-4.218v-0.61h1.812v-3.427h-1.37v-0.61h2.144V543.64z M419.08,538.701v-0.825h0.859v0.825
		H419.08z"/>
	<path d="M425.745,544.25v-2.985c0-0.389-0.074-0.678-0.225-0.867s-0.391-0.283-0.72-0.283c-0.355,0-0.646,0.129-0.874,0.389
		c-0.228,0.259-0.342,0.61-0.342,1.054v2.693h-0.772v-3.655c0-0.541-0.009-0.871-0.026-0.992h0.73
		c0.003,0.015,0.006,0.054,0.009,0.116c0.003,0.063,0.006,0.136,0.011,0.217c0.004,0.082,0.009,0.235,0.015,0.462h0.013
		c0.301-0.587,0.796-0.881,1.486-0.881c0.495,0,0.864,0.134,1.108,0.402c0.243,0.268,0.365,0.679,0.365,1.234v3.097H425.745z"/>
	<path d="M431.222,544.25l-1.572-2.144l-0.566,0.421v1.723h-0.773v-6.374h0.773v3.981l2.04-2.255h0.906l-1.886,1.997l1.984,2.65
		H431.222z"/>
	<path d="M433.391,540.213v-0.61h0.729l0.249-1.211h0.516v1.211h1.855v0.61h-1.855v2.8c0,0.227,0.061,0.395,0.183,0.503
		s0.321,0.163,0.6,0.163c0.383,0,0.809-0.049,1.275-0.146v0.588c-0.484,0.132-0.964,0.197-1.439,0.197
		c-0.464,0-0.812-0.098-1.043-0.294c-0.232-0.196-0.349-0.506-0.349-0.93v-2.882H433.391z"/>
	<path d="M439.983,544.25v-1.284h1.01v1.284H439.983z"/>
	<path d="M443.691,541.922c0-0.772,0.185-1.367,0.554-1.782s0.903-0.623,1.603-0.623c0.521,0,0.95,0.126,1.288,0.376
		c0.338,0.251,0.547,0.588,0.627,1.012l-0.824,0.061c-0.046-0.261-0.161-0.467-0.344-0.617c-0.184-0.15-0.444-0.225-0.782-0.225
		c-0.452,0-0.783,0.14-0.994,0.421c-0.21,0.28-0.315,0.734-0.315,1.361c0,0.636,0.105,1.1,0.315,1.394
		c0.211,0.293,0.541,0.44,0.99,0.44c0.31,0,0.565-0.076,0.769-0.228c0.203-0.152,0.329-0.384,0.378-0.696l0.816,0.052
		c-0.037,0.274-0.142,0.524-0.312,0.749c-0.17,0.226-0.396,0.401-0.677,0.528c-0.28,0.128-0.594,0.191-0.94,0.191
		c-0.701,0-1.235-0.206-1.602-0.618C443.873,543.305,443.691,542.707,443.691,541.922z"/>
	<path d="M453.122,541.922c0,0.782-0.18,1.38-0.539,1.793c-0.359,0.414-0.879,0.621-1.558,0.621c-0.664,0-1.173-0.209-1.526-0.627
		s-0.53-1.014-0.53-1.787c0-0.799,0.181-1.399,0.543-1.802s0.876-0.604,1.54-0.604c0.698,0,1.218,0.199,1.559,0.598
		C452.951,540.512,453.122,541.114,453.122,541.922z M452.31,541.922c0-0.615-0.098-1.075-0.294-1.378
		c-0.196-0.304-0.513-0.456-0.951-0.456c-0.444,0-0.769,0.155-0.975,0.464c-0.206,0.31-0.31,0.767-0.31,1.37
		c0,0.602,0.104,1.059,0.31,1.372s0.515,0.471,0.928,0.471c0.455,0,0.784-0.153,0.987-0.46
		C452.208,542.999,452.31,542.538,452.31,541.922z"/>
	<path d="M455.969,544.25v-2.946c0-0.441-0.035-0.749-0.104-0.926c-0.07-0.176-0.198-0.264-0.385-0.264
		c-0.184,0-0.331,0.137-0.444,0.412c-0.113,0.274-0.17,0.647-0.17,1.116v2.607h-0.726v-3.655c0-0.541-0.009-0.871-0.026-0.992h0.641
		l0.025,0.546v0.206h0.009c0.098-0.292,0.221-0.505,0.369-0.638c0.149-0.133,0.335-0.2,0.559-0.2c0.252,0,0.44,0.069,0.564,0.207
		c0.125,0.137,0.214,0.349,0.269,0.635h0.009c0.114-0.303,0.251-0.52,0.41-0.648s0.36-0.193,0.604-0.193
		c0.338,0,0.58,0.123,0.726,0.37c0.146,0.246,0.219,0.668,0.219,1.267v3.097h-0.722v-2.946c0-0.441-0.034-0.749-0.104-0.926
		c-0.07-0.176-0.198-0.264-0.385-0.264c-0.188,0-0.339,0.12-0.448,0.36c-0.11,0.24-0.166,0.602-0.166,1.082v2.693H455.969z"/>
</g>
<path d="M452.288,713.748v-10.913h11.658v10.913H452.288z"/>
<path d="M130.342,488.534v-10.913h102.934v10.913H130.342z"/>
<path d="M256.467,713.625v-10.914h86.562v10.914H256.467z"/>
<line fill="none" stroke="#000000" stroke-miterlimit="10" stroke-dasharray="8,5" x1="466.303" y1="477.993" x2="237.12" y2="477.993"/>
<polyline fill="none" stroke="#000000" stroke-miterlimit="10" points="152.788,701.223 131.457,701.223 131.457,683.86 "/>
</svg>
