<?xml version="1.0" encoding="utf-8"?>
<!-- Generator: Adobe Illustrator 16.0.0, SVG Export Plug-In . SVG Version: 6.00 Build 0)  -->
<!DOCTYPE svg PUBLIC "-//W3C//DTD SVG 1.1//EN" "http://www.w3.org/Graphics/SVG/1.1/DTD/svg11.dtd">
<svg version="1.1" id="Layer_1" xmlns="http://www.w3.org/2000/svg" xmlns:xlink="http://www.w3.org/1999/xlink" x="0px" y="0px"
	 width="595.279px" height="841.891px" viewBox="0 0 595.279 841.891" enable-background="new 0 0 595.279 841.891"
	 xml:space="preserve">
<rect x="92.765" y="469.063" fill="#FFFFFF" stroke="#000000" stroke-width="0.5086" stroke-miterlimit="10" width="409.751" height="256.963"/>
<rect x="92.765" y="114.128" fill="#FFFFFF" stroke="#000000" stroke-width="0.5086" stroke-miterlimit="10" width="409.751" height="256.962"/>
<polyline fill="none" stroke="#000000" stroke-miterlimit="10" points="442.491,133.722 463.823,133.722 463.823,153.069 "/>
<path d="M128.854,360.921v-11.038h11.657v11.038H128.854z"/>
<line fill="none" stroke="#000000" stroke-miterlimit="10" x1="465.807" y1="360.425" x2="465.807" y2="282.046"/>
<path fill="#0F0FDB" d="M128.854,134.838v-11.038h103.306v11.038H128.854z"/>
<path d="M252.374,360.797v-11.038h213.309v11.038H252.374z"/>
<path stroke="#FFFFFF" stroke-width="0.7965" stroke-miterlimit="10" d="M207.604,226.611v-7.317h5.705v-5.209l8.681-4.96v10.293
	h6.945v7.317h-6.945v16.618h6.945v7.317h-8.185l-7.317-4.216v-19.967L207.604,226.611L207.604,226.611z"/>
<path stroke="#FFFFFF" stroke-width="0.7965" stroke-miterlimit="10" d="M244.189,250.67h-8.681v-46.01h8.681v16.742l4.465-2.604
	h8.186l7.316,4.217v27.531h-8.681v-24.307h-11.41L244.189,250.67L244.189,250.67z"/>
<path stroke="#FFFFFF" stroke-width="0.7965" stroke-miterlimit="10" d="M319.467,223.139v27.531h-8.682v-24.431h-10.789v24.431
	h-8.681v-31.872h7.192l1.488,2.604l4.465-2.604h7.688L319.467,223.139z"/>
<path stroke="#FFFFFF" stroke-width="0.7965" stroke-miterlimit="10" d="M334.597,204.784v27.159h0.124l9.673-12.649h9.922
	l-11.286,14.138l13.146,17.486H346.13l-8.185-11.161l-3.473,4.34v6.821h-8.682v-46.01L334.597,204.784L334.597,204.784z"/>
<path fill="#0F0FDB" stroke="#FFFFFF" stroke-width="0.7965" stroke-miterlimit="10" d="M360.269,226.611v-7.317h5.704v-5.209
	l8.682-4.96v10.293h6.944v7.317h-6.944v16.618h6.944v7.317h-8.309l-7.317-4.216v-19.967L360.269,226.611L360.269,226.611z"/>
<rect x="321.327" y="232.191" fill="#FFFFFF" stroke="#FFFFFF" stroke-width="0.7965" stroke-miterlimit="10" width="34.477" height="29.268"/>
<path fill="#0F0FDB" stroke="#FFFFFF" stroke-width="0.7965" stroke-miterlimit="10" d="M270.729,219.914v-8.681h9.177v8.681
	H270.729z"/>
<line fill="none" stroke="#000000" stroke-miterlimit="10" x1="357.664" y1="217.558" x2="357.664" y2="300.897"/>
<polyline fill="none" stroke="#000000" stroke-width="3" stroke-miterlimit="10" points="286.727,197.219 335.217,197.219 
	358.284,219.79 "/>
<g>
	<g>
		<line fill="none" stroke="#0F0FDB" stroke-miterlimit="10" x1="222.238" y1="259.723" x2="226.206" y2="259.723"/>
		
			<line fill="none" stroke="#0F0FDB" stroke-miterlimit="10" stroke-dasharray="8,5" x1="231.167" y1="259.723" x2="279.781" y2="259.723"/>
		<polyline fill="none" stroke="#0F0FDB" stroke-miterlimit="10" points="281.766,259.723 286.231,259.723 286.231,255.259 		"/>
		
			<line fill="none" stroke="#0F0FDB" stroke-miterlimit="10" stroke-dasharray="7,4" x1="286.231" y1="251.29" x2="286.231" y2="206.644"/>
		<line fill="none" stroke="#0F0FDB" stroke-miterlimit="10" x1="286.231" y1="204.66" x2="286.231" y2="200.691"/>
	</g>
</g>
<line fill="none" stroke="#0F0FDB" stroke-width="2.3896" stroke-miterlimit="10" x1="202.024" y1="269.148" x2="220.502" y2="259.228"/>
<rect x="360.517" y="259.599" fill="none" width="69.449" height="62.132"/>
<g enable-background="new    ">
	<path d="M364.639,264.751c0.064,0,0.139-0.009,0.222-0.026v0.422c-0.171,0.04-0.345,0.06-0.523,0.06
		c-0.251,0-0.434-0.065-0.548-0.197s-0.179-0.339-0.194-0.62h-0.022c-0.163,0.305-0.355,0.522-0.578,0.655
		c-0.223,0.134-0.497,0.2-0.823,0.2c-0.396,0-0.695-0.108-0.896-0.324c-0.2-0.216-0.301-0.512-0.301-0.889
		c0-0.876,0.569-1.321,1.71-1.333l0.889-0.016v-0.222c0-0.329-0.066-0.566-0.199-0.71c-0.134-0.145-0.346-0.217-0.637-0.217
		c-0.297,0-0.51,0.053-0.641,0.158s-0.208,0.269-0.233,0.489l-0.708-0.063c0.115-0.733,0.646-1.101,1.593-1.101
		c0.503,0,0.88,0.118,1.132,0.353c0.253,0.234,0.379,0.574,0.379,1.019v1.756c0,0.2,0.026,0.352,0.079,0.453
		C364.39,264.7,364.49,264.751,364.639,264.751z M362.345,264.728c0.24,0,0.454-0.058,0.64-0.173c0.187-0.115,0.33-0.27,0.434-0.463
		c0.103-0.193,0.154-0.394,0.154-0.6v-0.335l-0.716,0.016c-0.296,0.005-0.522,0.037-0.678,0.098
		c-0.156,0.061-0.277,0.152-0.363,0.276c-0.087,0.125-0.13,0.29-0.13,0.496c0,0.205,0.056,0.371,0.167,0.497
		C361.965,264.665,362.128,264.728,362.345,264.728z"/>
</g>
<g enable-background="new    ">
	<path d="M360.981,275.43c0-0.678,0.162-1.199,0.486-1.562c0.324-0.364,0.792-0.547,1.405-0.547c0.457,0,0.833,0.11,1.13,0.33
		c0.296,0.22,0.479,0.516,0.55,0.887l-0.724,0.053c-0.04-0.229-0.141-0.408-0.301-0.54c-0.161-0.132-0.39-0.198-0.686-0.198
		c-0.397,0-0.688,0.123-0.872,0.369s-0.277,0.645-0.277,1.194c0,0.558,0.093,0.965,0.277,1.222c0.185,0.258,0.474,0.387,0.868,0.387
		c0.271,0,0.496-0.066,0.674-0.2c0.179-0.133,0.289-0.336,0.332-0.609l0.716,0.045c-0.033,0.241-0.124,0.46-0.273,0.657
		s-0.348,0.352-0.594,0.463c-0.246,0.112-0.521,0.168-0.824,0.168c-0.615,0-1.084-0.181-1.405-0.543
		C361.142,276.643,360.981,276.118,360.981,275.43z"/>
	<path d="M369.057,274.014c-0.281-0.048-0.548-0.071-0.799-0.071c-0.404,0-0.73,0.151-0.979,0.455
		c-0.249,0.305-0.373,0.691-0.373,1.16v1.914h-0.678v-2.641c0-0.19-0.017-0.416-0.051-0.674c-0.034-0.259-0.082-0.513-0.146-0.762
		h0.645c0.101,0.347,0.16,0.661,0.181,0.942h0.019c0.126-0.281,0.249-0.488,0.369-0.62c0.121-0.132,0.264-0.23,0.43-0.297
		c0.166-0.067,0.368-0.101,0.606-0.101c0.261,0,0.52,0.021,0.776,0.064V274.014z"/>
	<path d="M370.962,275.577c0,0.457,0.101,0.814,0.303,1.073s0.479,0.388,0.831,0.388c0.259,0,0.485-0.056,0.68-0.167
		c0.194-0.112,0.324-0.265,0.39-0.458l0.596,0.17c-0.11,0.311-0.313,0.55-0.608,0.715c-0.295,0.166-0.647,0.249-1.057,0.249
		c-0.593,0-1.049-0.185-1.367-0.554c-0.319-0.369-0.479-0.897-0.479-1.586c0-0.67,0.156-1.186,0.469-1.546s0.764-0.541,1.354-0.541
		c0.59,0,1.037,0.18,1.341,0.539s0.456,0.901,0.456,1.627v0.091H370.962z M372.08,273.821c-0.336,0-0.603,0.11-0.798,0.33
		c-0.196,0.22-0.301,0.521-0.312,0.905h2.199C373.099,274.233,372.737,273.821,372.08,273.821z"/>
	<path d="M378.527,277.054c0.064,0,0.139-0.009,0.222-0.026v0.422c-0.171,0.04-0.345,0.06-0.523,0.06
		c-0.251,0-0.434-0.065-0.548-0.197s-0.179-0.339-0.194-0.62h-0.022c-0.163,0.305-0.355,0.522-0.578,0.655
		c-0.223,0.134-0.497,0.2-0.823,0.2c-0.396,0-0.695-0.108-0.896-0.324c-0.2-0.216-0.301-0.512-0.301-0.889
		c0-0.876,0.569-1.321,1.71-1.333l0.889-0.016v-0.222c0-0.329-0.066-0.566-0.199-0.71c-0.134-0.145-0.346-0.217-0.637-0.217
		c-0.297,0-0.51,0.053-0.641,0.158s-0.208,0.269-0.233,0.489l-0.708-0.063c0.115-0.733,0.646-1.101,1.593-1.101
		c0.503,0,0.88,0.118,1.132,0.353c0.253,0.234,0.379,0.574,0.379,1.019v1.756c0,0.2,0.026,0.352,0.079,0.453
		C378.278,277.003,378.378,277.054,378.527,277.054z M376.233,277.03c0.24,0,0.454-0.058,0.64-0.173
		c0.187-0.115,0.33-0.27,0.434-0.463c0.103-0.193,0.154-0.394,0.154-0.6v-0.335l-0.716,0.016c-0.296,0.005-0.522,0.037-0.678,0.098
		c-0.156,0.061-0.277,0.152-0.363,0.276c-0.087,0.125-0.13,0.29-0.13,0.496c0,0.205,0.056,0.371,0.167,0.497
		C375.853,276.968,376.016,277.03,376.233,277.03z"/>
	<path d="M379.724,273.931v-0.535h0.641l0.218-1.062h0.452v1.062h1.627v0.535h-1.627v2.456c0,0.198,0.054,0.346,0.16,0.44
		c0.106,0.096,0.282,0.144,0.525,0.144c0.337,0,0.709-0.043,1.119-0.128v0.516c-0.425,0.115-0.846,0.173-1.263,0.173
		c-0.406,0-0.712-0.086-0.915-0.258s-0.305-0.443-0.305-0.815v-2.527H379.724z"/>
	<path d="M386.443,276.937h1.432v0.535h-3.698v-0.535h1.589v-3.006h-1.201v-0.535h1.879V276.937z M385.69,272.605v-0.724h0.753
		v0.724H385.69z"/>
	<path d="M390.959,277.472h-0.803l-1.631-4.076h0.761l1.01,2.652l0.063,0.199l0.196,0.693l0.132-0.44l0.146-0.444l1.04-2.66h0.757
		L390.959,277.472z"/>
	<path d="M394.109,275.577c0,0.457,0.101,0.814,0.303,1.073s0.479,0.388,0.831,0.388c0.259,0,0.485-0.056,0.68-0.167
		c0.194-0.112,0.324-0.265,0.39-0.458l0.596,0.17c-0.11,0.311-0.313,0.55-0.608,0.715c-0.295,0.166-0.647,0.249-1.057,0.249
		c-0.593,0-1.049-0.185-1.367-0.554c-0.319-0.369-0.479-0.897-0.479-1.586c0-0.67,0.156-1.186,0.469-1.546s0.764-0.541,1.354-0.541
		c0.59,0,1.037,0.18,1.341,0.539s0.456,0.901,0.456,1.627v0.091H394.109z M395.227,273.821c-0.336,0-0.603,0.11-0.798,0.33
		c-0.196,0.22-0.301,0.521-0.312,0.905h2.199C396.245,274.233,395.883,273.821,395.227,273.821z"/>
</g>
<g enable-background="new    ">
	<path d="M364.639,289.455c0.064,0,0.139-0.009,0.222-0.026v0.422c-0.171,0.04-0.345,0.06-0.523,0.06
		c-0.251,0-0.434-0.065-0.548-0.197s-0.179-0.339-0.194-0.62h-0.022c-0.163,0.305-0.355,0.522-0.578,0.655
		c-0.223,0.134-0.497,0.2-0.823,0.2c-0.396,0-0.695-0.108-0.896-0.324c-0.2-0.216-0.301-0.512-0.301-0.889
		c0-0.876,0.569-1.321,1.71-1.333l0.889-0.016v-0.222c0-0.329-0.066-0.566-0.199-0.71c-0.134-0.145-0.346-0.217-0.637-0.217
		c-0.297,0-0.51,0.053-0.641,0.158s-0.208,0.269-0.233,0.489l-0.708-0.063c0.115-0.733,0.646-1.101,1.593-1.101
		c0.503,0,0.88,0.118,1.132,0.353c0.253,0.234,0.379,0.574,0.379,1.019v1.756c0,0.2,0.026,0.352,0.079,0.453
		C364.39,289.404,364.49,289.455,364.639,289.455z M362.345,289.432c0.24,0,0.454-0.058,0.64-0.173
		c0.187-0.115,0.33-0.27,0.434-0.463c0.103-0.193,0.154-0.394,0.154-0.6v-0.335l-0.716,0.016c-0.296,0.005-0.522,0.037-0.678,0.098
		c-0.156,0.061-0.277,0.152-0.363,0.276c-0.087,0.125-0.13,0.29-0.13,0.496c0,0.205,0.056,0.371,0.167,0.497
		C361.965,289.369,362.128,289.432,362.345,289.432z"/>
	<path d="M366.495,285.797v2.584c0,0.393,0.062,0.664,0.185,0.815c0.123,0.152,0.343,0.229,0.659,0.229
		c0.323,0,0.58-0.11,0.769-0.332c0.188-0.221,0.282-0.532,0.282-0.934v-2.362h0.682v3.206c0,0.475,0.008,0.765,0.022,0.87h-0.641
		c-0.002-0.013-0.005-0.047-0.007-0.102c-0.003-0.056-0.006-0.119-0.01-0.19s-0.008-0.207-0.013-0.405h-0.012
		c-0.155,0.281-0.336,0.48-0.54,0.598c-0.205,0.116-0.459,0.175-0.764,0.175c-0.446,0-0.773-0.111-0.98-0.333
		c-0.207-0.223-0.311-0.59-0.311-1.103v-2.716H366.495z"/>
	<path d="M372.996,289.218c-0.123,0.264-0.286,0.455-0.49,0.574c-0.203,0.119-0.457,0.179-0.761,0.179
		c-0.507,0-0.88-0.175-1.118-0.523c-0.239-0.349-0.358-0.875-0.358-1.578c0-1.422,0.492-2.132,1.477-2.132
		c0.304,0,0.559,0.054,0.763,0.162c0.205,0.107,0.369,0.284,0.492,0.53h0.007L373,285.861v-1.578h0.678v4.75
		c0,0.424,0.008,0.704,0.022,0.84h-0.647c-0.011-0.038-0.02-0.13-0.026-0.275c-0.008-0.146-0.012-0.272-0.012-0.38H372.996z
		 M370.97,287.847c0,0.558,0.074,0.963,0.224,1.218s0.393,0.383,0.729,0.383c0.367,0,0.639-0.133,0.814-0.397
		s0.264-0.687,0.264-1.264c0-0.54-0.085-0.933-0.255-1.179c-0.169-0.246-0.441-0.369-0.815-0.369c-0.339,0-0.584,0.129-0.734,0.388
		S370.97,287.291,370.97,287.847z"/>
	<path d="M377.185,289.338h1.432v0.535h-3.698v-0.535h1.589v-3.006h-1.201v-0.535h1.879V289.338z M376.432,285.007v-0.724h0.753
		v0.724H376.432z"/>
	<path d="M383.14,287.831c0,0.686-0.157,1.21-0.473,1.573c-0.315,0.362-0.771,0.544-1.365,0.544c-0.583,0-1.029-0.184-1.339-0.55
		c-0.311-0.367-0.466-0.889-0.466-1.567c0-0.7,0.159-1.227,0.477-1.58c0.318-0.353,0.768-0.529,1.351-0.529
		c0.612,0,1.068,0.175,1.367,0.523C382.99,286.595,383.14,287.123,383.14,287.831z M382.428,287.831c0-0.54-0.086-0.942-0.258-1.209
		c-0.172-0.266-0.45-0.399-0.834-0.399c-0.39,0-0.675,0.136-0.855,0.407s-0.271,0.672-0.271,1.201c0,0.527,0.091,0.929,0.271,1.204
		c0.181,0.274,0.452,0.412,0.813,0.412c0.399,0,0.688-0.135,0.866-0.403C382.339,288.775,382.428,288.371,382.428,287.831z"/>
</g>
<g enable-background="new    ">
	<path d="M364.597,300.119c0,1.421-0.492,2.132-1.477,2.132c-0.617,0-1.033-0.231-1.246-0.693h-0.02
		c0.01,0.02,0.016,0.229,0.016,0.625v1.593h-0.682v-4.833c0-0.427-0.008-0.708-0.023-0.844h0.659
		c0.003,0.01,0.007,0.047,0.012,0.111s0.011,0.158,0.017,0.283c0.007,0.124,0.01,0.216,0.01,0.277h0.015
		c0.126-0.264,0.286-0.455,0.48-0.575c0.194-0.119,0.449-0.179,0.763-0.179c0.497,0,0.868,0.171,1.111,0.514
		S364.597,299.404,364.597,300.119z M363.897,300.119c0-0.567-0.077-0.972-0.23-1.215c-0.152-0.242-0.394-0.363-0.723-0.363
		c-0.379,0-0.653,0.138-0.821,0.413s-0.252,0.691-0.252,1.249c0,0.535,0.084,0.927,0.252,1.175s0.439,0.373,0.813,0.373
		c0.334,0,0.578-0.126,0.73-0.38C363.82,301.116,363.897,300.699,363.897,300.119z"/>
	<path d="M369.057,298.718c-0.281-0.048-0.548-0.072-0.799-0.072c-0.404,0-0.73,0.152-0.979,0.456
		c-0.249,0.304-0.373,0.691-0.373,1.16v1.914h-0.678v-2.64c0-0.191-0.017-0.416-0.051-0.674c-0.034-0.259-0.082-0.512-0.146-0.761
		h0.645c0.101,0.347,0.16,0.661,0.181,0.942h0.019c0.126-0.281,0.249-0.488,0.369-0.62c0.121-0.132,0.264-0.231,0.43-0.297
		c0.166-0.067,0.368-0.1,0.606-0.1c0.261,0,0.52,0.021,0.776,0.064V298.718z"/>
	<path d="M373.881,300.134c0,0.686-0.157,1.21-0.473,1.573s-0.771,0.544-1.365,0.544c-0.583,0-1.029-0.183-1.339-0.55
		c-0.311-0.367-0.466-0.889-0.466-1.567c0-0.701,0.159-1.227,0.477-1.58c0.318-0.353,0.768-0.529,1.351-0.529
		c0.612,0,1.068,0.175,1.367,0.523C373.732,298.897,373.881,299.426,373.881,300.134z M373.169,300.134
		c0-0.54-0.086-0.943-0.258-1.209s-0.45-0.399-0.834-0.399c-0.39,0-0.675,0.136-0.855,0.407c-0.181,0.271-0.271,0.672-0.271,1.202
		c0,0.527,0.091,0.929,0.271,1.204s0.452,0.412,0.813,0.412c0.399,0,0.688-0.134,0.866-0.403
		C373.08,301.079,373.169,300.674,373.169,300.134z"/>
	<path d="M377.626,301.521c-0.123,0.264-0.286,0.455-0.49,0.574c-0.203,0.119-0.457,0.179-0.761,0.179
		c-0.507,0-0.88-0.175-1.118-0.524c-0.239-0.349-0.358-0.875-0.358-1.578c0-1.421,0.492-2.132,1.477-2.132
		c0.304,0,0.559,0.054,0.763,0.162c0.205,0.108,0.369,0.285,0.492,0.531h0.007l-0.007-0.568v-1.579h0.678v4.75
		c0,0.424,0.008,0.704,0.022,0.84h-0.647c-0.011-0.038-0.02-0.129-0.026-0.275c-0.008-0.146-0.012-0.272-0.012-0.38H377.626z
		 M375.6,300.149c0,0.558,0.074,0.963,0.224,1.218s0.393,0.382,0.729,0.382c0.367,0,0.639-0.132,0.814-0.397
		c0.176-0.265,0.264-0.686,0.264-1.264c0-0.54-0.085-0.933-0.255-1.179c-0.169-0.246-0.441-0.369-0.815-0.369
		c-0.339,0-0.584,0.129-0.734,0.388C375.675,299.188,375.6,299.594,375.6,300.149z"/>
	<path d="M380.383,298.1v2.584c0,0.392,0.062,0.664,0.185,0.815c0.123,0.152,0.343,0.228,0.659,0.228c0.323,0,0.58-0.11,0.769-0.332
		c0.188-0.221,0.282-0.532,0.282-0.934V298.1h0.682v3.206c0,0.475,0.008,0.765,0.022,0.87h-0.641
		c-0.002-0.013-0.005-0.046-0.007-0.102c-0.003-0.055-0.006-0.119-0.01-0.19c-0.004-0.071-0.008-0.207-0.013-0.405H382.3
		c-0.155,0.281-0.336,0.48-0.54,0.597c-0.205,0.117-0.459,0.175-0.764,0.175c-0.446,0-0.773-0.111-0.98-0.333
		c-0.207-0.223-0.311-0.59-0.311-1.102V298.1H380.383z"/>
	<path d="M384.126,300.134c0-0.678,0.162-1.199,0.486-1.563c0.324-0.364,0.792-0.546,1.405-0.546c0.457,0,0.833,0.11,1.13,0.33
		c0.296,0.22,0.479,0.516,0.55,0.887l-0.724,0.053c-0.04-0.229-0.141-0.409-0.301-0.541c-0.161-0.132-0.39-0.198-0.686-0.198
		c-0.397,0-0.688,0.123-0.872,0.369s-0.277,0.644-0.277,1.194c0,0.558,0.093,0.965,0.277,1.222c0.185,0.258,0.474,0.386,0.868,0.386
		c0.271,0,0.496-0.066,0.674-0.2c0.179-0.133,0.289-0.336,0.332-0.61l0.716,0.045c-0.033,0.241-0.124,0.46-0.273,0.657
		c-0.149,0.197-0.348,0.352-0.594,0.463s-0.521,0.167-0.824,0.167c-0.615,0-1.084-0.181-1.405-0.542
		C384.287,301.347,384.126,300.822,384.126,300.134z"/>
	<path d="M388.982,298.635V298.1h0.641l0.218-1.062h0.452v1.062h1.627v0.535h-1.627v2.456c0,0.199,0.054,0.346,0.16,0.441
		s0.282,0.143,0.525,0.143c0.337,0,0.709-0.042,1.119-0.128v0.516c-0.425,0.115-0.846,0.173-1.263,0.173
		c-0.406,0-0.712-0.086-0.915-0.258s-0.305-0.444-0.305-0.815v-2.527H388.982z"/>
	<path d="M395.701,301.641h1.432v0.535h-3.698v-0.535h1.589v-3.006h-1.201V298.1h1.879V301.641z M394.948,297.31v-0.724h0.753v0.724
		H394.948z"/>
	<path d="M401.656,300.134c0,0.686-0.157,1.21-0.473,1.573s-0.771,0.544-1.365,0.544c-0.583,0-1.029-0.183-1.339-0.55
		c-0.311-0.367-0.466-0.889-0.466-1.567c0-0.701,0.159-1.227,0.477-1.58c0.318-0.353,0.768-0.529,1.351-0.529
		c0.612,0,1.068,0.175,1.367,0.523C401.507,298.897,401.656,299.426,401.656,300.134z M400.945,300.134
		c0-0.54-0.086-0.943-0.258-1.209s-0.45-0.399-0.834-0.399c-0.39,0-0.675,0.136-0.855,0.407c-0.181,0.271-0.271,0.672-0.271,1.202
		c0,0.527,0.091,0.929,0.271,1.204s0.452,0.412,0.813,0.412c0.399,0,0.688-0.134,0.866-0.403
		C400.856,301.079,400.945,300.674,400.945,300.134z"/>
	<path d="M405.423,302.176v-2.618c0-0.342-0.066-0.595-0.198-0.761c-0.132-0.166-0.342-0.249-0.631-0.249
		c-0.312,0-0.566,0.114-0.767,0.341c-0.199,0.227-0.299,0.535-0.299,0.924v2.362h-0.678v-3.206c0-0.475-0.008-0.765-0.023-0.87
		h0.641c0.003,0.013,0.005,0.047,0.008,0.102c0.002,0.055,0.006,0.119,0.009,0.19c0.004,0.072,0.009,0.207,0.014,0.405h0.012
		c0.264-0.515,0.697-0.772,1.303-0.772c0.435,0,0.759,0.118,0.972,0.352c0.214,0.235,0.32,0.596,0.32,1.083v2.716H405.423z"/>
</g>
<g enable-background="new    ">
	<path d="M362.676,311.037v3.541h-0.678v-3.541h-0.987v-0.535h0.987v-0.094c0-0.515,0.121-0.88,0.363-1.096s0.646-0.324,1.211-0.324
		c0.181,0,0.376,0.008,0.586,0.025c0.209,0.016,0.367,0.034,0.473,0.054v0.546c-0.075-0.013-0.229-0.026-0.458-0.042
		s-0.403-0.022-0.521-0.022c-0.261,0-0.458,0.029-0.592,0.086c-0.133,0.058-0.229,0.152-0.291,0.283
		c-0.062,0.13-0.093,0.312-0.093,0.546v0.038h1.85v0.535H362.676z"/>
	<path d="M369.268,314.159c0.064,0,0.139-0.009,0.222-0.026v0.422c-0.171,0.04-0.345,0.06-0.523,0.06
		c-0.251,0-0.434-0.066-0.548-0.198s-0.179-0.338-0.194-0.62h-0.022c-0.163,0.304-0.355,0.522-0.578,0.655
		c-0.223,0.133-0.497,0.2-0.823,0.2c-0.396,0-0.695-0.108-0.896-0.324c-0.2-0.216-0.301-0.512-0.301-0.889
		c0-0.876,0.569-1.321,1.71-1.333l0.889-0.015v-0.222c0-0.329-0.066-0.566-0.199-0.71c-0.134-0.145-0.346-0.217-0.637-0.217
		c-0.297,0-0.51,0.053-0.641,0.158s-0.208,0.269-0.233,0.49l-0.708-0.064c0.115-0.733,0.646-1.1,1.593-1.1
		c0.503,0,0.88,0.118,1.132,0.352c0.253,0.235,0.379,0.575,0.379,1.019v1.755c0,0.201,0.026,0.352,0.079,0.454
		C369.019,314.108,369.119,314.159,369.268,314.159z M366.974,314.136c0.24,0,0.454-0.058,0.64-0.173
		c0.187-0.116,0.33-0.27,0.434-0.463c0.103-0.193,0.154-0.393,0.154-0.599v-0.335l-0.716,0.015
		c-0.296,0.005-0.522,0.038-0.678,0.098c-0.156,0.061-0.277,0.153-0.363,0.277c-0.087,0.125-0.13,0.29-0.13,0.496
		c0,0.206,0.056,0.372,0.167,0.497C366.594,314.074,366.757,314.136,366.974,314.136z"/>
	<path d="M370.239,312.536c0-0.678,0.162-1.199,0.486-1.563c0.324-0.364,0.792-0.546,1.405-0.546c0.457,0,0.833,0.11,1.13,0.33
		c0.296,0.22,0.479,0.516,0.55,0.887l-0.724,0.053c-0.04-0.229-0.141-0.409-0.301-0.541c-0.161-0.132-0.39-0.198-0.686-0.198
		c-0.397,0-0.688,0.123-0.872,0.369s-0.277,0.644-0.277,1.194c0,0.558,0.093,0.965,0.277,1.222c0.185,0.258,0.474,0.386,0.868,0.386
		c0.271,0,0.496-0.066,0.674-0.2c0.179-0.133,0.289-0.336,0.332-0.61l0.716,0.045c-0.033,0.241-0.124,0.46-0.273,0.657
		c-0.149,0.197-0.348,0.352-0.594,0.463s-0.521,0.167-0.824,0.167c-0.615,0-1.084-0.181-1.405-0.542
		C370.4,313.749,370.239,313.224,370.239,312.536z"/>
	<path d="M377.185,314.042h1.432v0.535h-3.698v-0.535h1.589v-3.006h-1.201v-0.535h1.879V314.042z M376.432,309.711v-0.724h0.753
		v0.724H376.432z"/>
	<path d="M381.781,314.042h1.431v0.535h-3.698v-0.535h1.589v-4.52h-1.088v-0.535h1.767V314.042z"/>
	<path d="M386.443,314.042h1.432v0.535h-3.698v-0.535h1.589v-3.006h-1.201v-0.535h1.879V314.042z M385.69,309.711v-0.724h0.753
		v0.724H385.69z"/>
	<path d="M388.982,311.037v-0.535h0.641l0.218-1.062h0.452v1.062h1.627v0.535h-1.627v2.456c0,0.199,0.054,0.346,0.16,0.441
		s0.282,0.143,0.525,0.143c0.337,0,0.709-0.042,1.119-0.128v0.516c-0.425,0.115-0.846,0.173-1.263,0.173
		c-0.406,0-0.712-0.086-0.915-0.258s-0.305-0.444-0.305-0.815v-2.527H388.982z"/>
	<path d="M393.995,316.178c-0.186,0-0.341-0.014-0.467-0.041v-0.509c0.096,0.015,0.201,0.022,0.316,0.022
		c0.198,0,0.385-0.074,0.56-0.222c0.174-0.148,0.321-0.384,0.442-0.708l0.067-0.185l-1.77-4.034h0.723l0.994,2.418
		c0.229,0.562,0.352,0.881,0.369,0.957l0.154-0.414l1.168-2.961h0.716l-1.718,4.076c-0.224,0.59-0.455,1.004-0.694,1.243
		C394.616,316.059,394.329,316.178,393.995,316.178z"/>
</g>
<polygon points="423.517,165.967 432.323,165.967 421.905,179.856 413.348,179.856 "/>
<rect x="287.347" y="305.485" fill="#0F0FDB" width="27.159" height="8.681"/>
<polygon points="148.82,236.408 157.625,236.408 147.208,250.298 138.651,250.298 "/>
<polyline fill="none" stroke="#000000" stroke-miterlimit="10" stroke-dasharray="11.1348,6.9592" points="127.986,314.291 
	199.915,314.291 199.915,361.417 "/>
<rect x="130.218" y="614.907" fill="none" width="123.893" height="78.131"/>
<g enable-background="new    ">
	<path fill="#0F0FDB" d="M133.724,624.289c-0.813,0-1.465-0.227-1.955-0.679c-0.49-0.453-0.797-1.103-0.921-1.949l1.812-0.268
		c0.083,0.489,0.218,0.854,0.405,1.096c0.187,0.24,0.411,0.361,0.673,0.361c0.303,0,0.543-0.123,0.722-0.368
		c0.178-0.244,0.268-0.595,0.268-1.052v-4.228h-1.874v-1.438h3.705v5.622c0,0.905-0.251,1.615-0.753,2.13
		S134.608,624.289,133.724,624.289z"/>
	<path fill="#0F0FDB" d="M144.944,620.789c0,1.117-0.282,1.979-0.847,2.587c-0.565,0.608-1.376,0.913-2.435,0.913
		c-1.021,0-1.814-0.305-2.379-0.913c-0.564-0.607-0.847-1.47-0.847-2.587c0-1.112,0.28-1.972,0.841-2.577
		c0.56-0.606,1.368-0.909,2.422-0.909C143.863,617.303,144.944,618.465,144.944,620.789z M143.114,620.789
		c0-0.797-0.106-1.377-0.317-1.74c-0.212-0.363-0.569-0.545-1.071-0.545c-0.515,0-0.885,0.183-1.111,0.548s-0.339,0.944-0.339,1.737
		c0,0.802,0.115,1.386,0.346,1.753s0.572,0.551,1.024,0.551c0.515,0,0.889-0.182,1.121-0.545
		C142.997,622.186,143.114,621.599,143.114,620.789z"/>
	<path fill="#0F0FDB" d="M152.391,622.196c0,0.652-0.267,1.164-0.8,1.535c-0.533,0.371-1.271,0.558-2.213,0.558
		c-0.926,0-1.634-0.146-2.126-0.439c-0.492-0.293-0.818-0.748-0.98-1.367l1.538-0.229c0.087,0.319,0.237,0.546,0.451,0.679
		s0.586,0.199,1.118,0.199c0.49,0,0.847-0.062,1.071-0.188c0.224-0.124,0.336-0.319,0.336-0.585c0-0.216-0.09-0.387-0.271-0.514
		c-0.18-0.127-0.486-0.233-0.918-0.32c-0.988-0.195-1.654-0.377-1.999-0.545s-0.607-0.387-0.788-0.654s-0.271-0.597-0.271-0.986
		c0-0.644,0.248-1.145,0.744-1.504s1.199-0.539,2.108-0.539c0.801,0,1.445,0.156,1.933,0.468c0.488,0.311,0.792,0.762,0.912,1.351
		l-1.55,0.162c-0.05-0.274-0.172-0.479-0.367-0.613c-0.195-0.135-0.504-0.202-0.928-0.202c-0.416,0-0.727,0.053-0.934,0.158
		c-0.208,0.106-0.312,0.283-0.312,0.532c0,0.195,0.08,0.351,0.24,0.464c0.16,0.114,0.429,0.209,0.807,0.283
		c0.527,0.108,0.995,0.22,1.404,0.334s0.737,0.25,0.984,0.407c0.247,0.158,0.444,0.36,0.591,0.607
		C152.317,621.494,152.391,621.811,152.391,622.196z"/>
	<path fill="#0F0FDB" d="M155.784,618.771c0.236-0.515,0.533-0.888,0.89-1.12s0.783-0.349,1.276-0.349
		c0.698,0,1.221,0.211,1.569,0.635s0.523,1.075,0.523,1.955v4.271H158.3v-3.866c0-0.627-0.084-1.064-0.252-1.312
		c-0.168-0.246-0.443-0.37-0.825-0.37c-0.423,0-0.765,0.182-1.024,0.545c-0.26,0.363-0.389,0.829-0.389,1.397v3.605h-1.75v-9.24
		h1.75v2.521c0,0.453-0.017,0.895-0.05,1.326H155.784z"/>
	<path fill="#0F0FDB" d="M163.412,617.427v3.779c0,0.573,0.092,1.013,0.277,1.317s0.449,0.458,0.794,0.458
		c0.374,0,0.682-0.185,0.925-0.552c0.243-0.367,0.364-0.831,0.364-1.392v-3.611h1.75v5.23c0,0.573,0.017,1.075,0.05,1.507h-1.668
		c-0.05-0.598-0.075-1.044-0.075-1.339h-0.031c-0.444,0.976-1.125,1.464-2.042,1.464c-0.681,0-1.2-0.218-1.557-0.651
		s-0.535-1.078-0.535-1.933v-4.278H163.412z"/>
	<path fill="#0F0FDB" d="M171.207,624.289c-0.652,0-1.16-0.178-1.525-0.533c-0.365-0.354-0.548-0.854-0.548-1.497
		c0-0.697,0.217-1.228,0.65-1.591c0.434-0.363,1.083-0.551,1.946-0.563l1.389-0.025v-0.342c0-0.428-0.073-0.752-0.218-0.972
		c-0.146-0.22-0.38-0.33-0.704-0.33c-0.303,0-0.526,0.076-0.669,0.228s-0.231,0.394-0.265,0.726l-1.824-0.088
		c0.224-1.332,1.168-1.998,2.833-1.998c0.838,0,1.48,0.205,1.927,0.616s0.669,1.015,0.669,1.812v2.441
		c0,0.378,0.042,0.638,0.128,0.781c0.085,0.144,0.227,0.215,0.426,0.215c0.133,0,0.262-0.013,0.386-0.037v0.946
		c-0.104,0.024-0.197,0.048-0.28,0.068s-0.166,0.037-0.249,0.05s-0.171,0.022-0.265,0.031c-0.093,0.008-0.203,0.013-0.327,0.013
		c-0.44,0-0.765-0.108-0.974-0.324c-0.21-0.216-0.335-0.533-0.377-0.953H173.3c-0.262,0.47-0.56,0.808-0.894,1.016
		C172.072,624.185,171.672,624.289,171.207,624.289z M173.119,621.045l-0.834,0.012c-0.374,0.009-0.645,0.047-0.812,0.115
		s-0.296,0.179-0.383,0.33c-0.087,0.151-0.131,0.358-0.131,0.62c0,0.631,0.249,0.946,0.747,0.946c0.403,0,0.739-0.159,1.009-0.477
		s0.405-0.719,0.405-1.205V621.045z"/>
	<path fill="#0F0FDB" d="M185.093,624.164v-8.399h1.836v6.979h3.836v1.42H185.093z"/>
	<path fill="#0F0FDB" d="M193.454,626.811c-0.44,0-0.818-0.027-1.133-0.081v-1.245l0.317,0.031l0.317,0.019
		c0.249,0,0.456-0.04,0.62-0.118c0.164-0.079,0.312-0.21,0.442-0.393c0.131-0.183,0.277-0.492,0.439-0.928l-2.789-6.669h1.849
		l1.183,3.281c0.166,0.453,0.375,1.146,0.629,2.08l0.056-0.23l0.504-1.824l1.121-3.307h1.831l-2.79,7.092
		c-0.332,0.855-0.695,1.451-1.09,1.787C194.567,626.643,194.065,626.811,193.454,626.811z"/>
	<path fill="#0F0FDB" d="M204.215,624.164v-3.854c0-0.585-0.08-1.015-0.24-1.289c-0.16-0.273-0.435-0.41-0.825-0.41
		c-0.432,0-0.777,0.184-1.037,0.551c-0.26,0.367-0.389,0.831-0.389,1.392v3.611h-1.75v-5.23c0-0.361-0.005-0.656-0.016-0.887
		c-0.011-0.23-0.022-0.438-0.034-0.62h1.668c0.013,0.079,0.029,0.29,0.05,0.632c0.021,0.343,0.031,0.578,0.031,0.707h0.025
		c0.236-0.515,0.533-0.889,0.89-1.121s0.783-0.349,1.276-0.349c1.395,0,2.092,0.863,2.092,2.591v4.277H204.215z"/>
	<path fill="#0F0FDB" d="M211.867,624.164v-3.854c0-0.585-0.08-1.015-0.24-1.289c-0.16-0.273-0.435-0.41-0.825-0.41
		c-0.432,0-0.777,0.184-1.037,0.551c-0.26,0.367-0.389,0.831-0.389,1.392v3.611h-1.75v-5.23c0-0.361-0.005-0.656-0.016-0.887
		c-0.011-0.23-0.022-0.438-0.034-0.62h1.668c0.013,0.079,0.029,0.29,0.05,0.632c0.021,0.343,0.031,0.578,0.031,0.707h0.025
		c0.236-0.515,0.533-0.889,0.89-1.121s0.783-0.349,1.276-0.349c1.395,0,2.092,0.863,2.092,2.591v4.277H211.867z"/>
</g>
<g enable-background="new    ">
	<path d="M136.266,638.215c0,1.159-0.271,2.051-0.812,2.674c-0.541,0.624-1.312,0.936-2.313,0.936h-2.218v-7.107h1.902
		c1.152,0,2.013,0.289,2.584,0.867C135.98,636.161,136.266,637.039,136.266,638.215z M134.701,638.215
		c0-0.797-0.15-1.379-0.45-1.746s-0.784-0.551-1.452-0.551h-0.321v4.705h0.537C134.139,640.623,134.701,639.82,134.701,638.215z"/>
	<path d="M140.87,640.823h1.86v1.001h-5.421v-1.001h2.081v-3.698h-1.528v-1.001h3.008V640.823z M139.39,635.097v-1.091h1.48v1.091
		H139.39z"/>
	<path d="M148.858,637.356c-0.394-0.066-0.766-0.1-1.117-0.1c-0.548,0-0.983,0.207-1.304,0.621
		c-0.321,0.415-0.482,0.961-0.482,1.639v2.308h-1.475v-3.693c0-0.267-0.024-0.581-0.071-0.943c-0.047-0.361-0.115-0.716-0.203-1.063
		h1.428c0.126,0.456,0.207,0.856,0.242,1.201h0.021c0.176-0.478,0.413-0.815,0.711-1.012c0.298-0.197,0.687-0.295,1.164-0.295
		c0.365,0,0.727,0.029,1.085,0.089V637.356z"/>
	<path d="M152.936,641.93c-0.885,0-1.568-0.261-2.05-0.782c-0.481-0.521-0.722-1.255-0.722-2.2c0-0.632,0.113-1.166,0.34-1.602
		s0.549-0.766,0.967-0.99s0.913-0.337,1.486-0.337c0.833,0,1.479,0.277,1.938,0.832c0.46,0.555,0.69,1.344,0.69,2.365v0.043h-3.867
		c0,0.516,0.115,0.925,0.345,1.228c0.23,0.302,0.545,0.453,0.946,0.453c0.26,0,0.49-0.056,0.69-0.166
		c0.2-0.111,0.335-0.282,0.406-0.514l1.396,0.121c-0.193,0.495-0.515,0.877-0.964,1.146
		C154.088,641.795,153.554,641.93,152.936,641.93z M152.936,636.951c-0.362,0-0.65,0.122-0.864,0.366s-0.329,0.582-0.342,1.014
		h2.423c-0.024-0.422-0.145-0.757-0.361-1.006C153.576,637.075,153.29,636.951,152.936,636.951z"/>
	<path d="M159.4,641.93c-0.864,0-1.531-0.258-2.002-0.771c-0.471-0.515-0.706-1.232-0.706-2.152c0-0.941,0.237-1.675,0.711-2.2
		c0.474-0.524,1.146-0.787,2.018-0.787c0.671,0,1.226,0.168,1.665,0.506c0.439,0.337,0.715,0.802,0.827,1.396l-1.491,0.074
		c-0.042-0.292-0.147-0.524-0.316-0.698s-0.408-0.261-0.717-0.261c-0.762,0-1.143,0.638-1.143,1.912
		c0,1.314,0.388,1.971,1.165,1.971c0.281,0,0.516-0.089,0.706-0.266c0.19-0.178,0.308-0.442,0.353-0.793l1.486,0.068
		c-0.053,0.39-0.192,0.737-0.419,1.043s-0.524,0.542-0.893,0.709C160.275,641.846,159.86,641.93,159.4,641.93z"/>
	<path d="M164.316,637.125h-0.88v-1.001h0.954l0.464-1.486h0.927v1.486h2.028v1.001h-2.028v2.792c0,0.31,0.029,0.518,0.087,0.624
		c0.058,0.107,0.152,0.191,0.282,0.253s0.312,0.093,0.548,0.093c0.436,0,0.883-0.048,1.344-0.143v0.979
		c-0.499,0.081-0.852,0.13-1.059,0.146c-0.208,0.016-0.423,0.023-0.648,0.023c-0.446,0-0.819-0.061-1.12-0.182
		s-0.527-0.311-0.68-0.569c-0.153-0.258-0.229-0.62-0.229-1.088L164.316,637.125z"/>
	<path d="M175.053,638.969c0,0.944-0.239,1.675-0.716,2.189c-0.478,0.514-1.165,0.771-2.06,0.771c-0.864,0-1.535-0.258-2.013-0.771
		c-0.478-0.515-0.716-1.245-0.716-2.189c0-0.941,0.237-1.668,0.711-2.182c0.474-0.513,1.157-0.769,2.05-0.769
		C174.138,636.019,175.053,637.002,175.053,638.969z M173.504,638.969c0-0.675-0.089-1.165-0.269-1.473s-0.481-0.461-0.906-0.461
		c-0.436,0-0.749,0.154-0.94,0.464c-0.191,0.309-0.287,0.799-0.287,1.47c0,0.678,0.097,1.172,0.292,1.483
		c0.195,0.311,0.483,0.466,0.867,0.466c0.435,0,0.751-0.153,0.948-0.461S173.504,639.653,173.504,638.969z"/>
	<path d="M181.233,637.356c-0.394-0.066-0.766-0.1-1.117-0.1c-0.548,0-0.983,0.207-1.304,0.621
		c-0.321,0.415-0.482,0.961-0.482,1.639v2.308h-1.475v-3.693c0-0.267-0.024-0.581-0.071-0.943c-0.047-0.361-0.115-0.716-0.203-1.063
		h1.428c0.126,0.456,0.207,0.856,0.242,1.201h0.021c0.176-0.478,0.413-0.815,0.711-1.012c0.298-0.197,0.687-0.295,1.164-0.295
		c0.365,0,0.727,0.029,1.085,0.089V637.356z"/>
</g>
<g enable-background="new    ">
	<path d="M135.495,654.267c0,1.08-0.199,1.904-0.597,2.475c-0.397,0.569-0.984,0.854-1.76,0.854c-0.776,0-1.358-0.283-1.748-0.85
		c-0.39-0.567-0.584-1.394-0.584-2.479c0-1.114,0.19-1.947,0.57-2.5c0.38-0.552,0.977-0.828,1.791-0.828
		c0.795,0,1.382,0.278,1.76,0.836C135.306,652.331,135.495,653.162,135.495,654.267z M134.618,654.267
		c0-0.926-0.112-1.596-0.337-2.009c-0.225-0.414-0.596-0.62-1.114-0.62c-0.53,0-0.911,0.204-1.142,0.613
		c-0.231,0.408-0.347,1.08-0.347,2.016c0,0.91,0.117,1.575,0.352,1.995c0.234,0.42,0.607,0.63,1.118,0.63
		c0.508,0,0.88-0.216,1.116-0.646C134.5,655.814,134.618,655.154,134.618,654.267z M132.588,654.842v-1.192h1.126v1.192H132.588z"/>
	<path d="M136.789,657.5v-0.561c0.156-0.348,0.4-0.698,0.73-1.051c0.331-0.354,0.78-0.756,1.349-1.21
		c0.508-0.405,0.873-0.758,1.097-1.059c0.224-0.3,0.335-0.589,0.335-0.866c0-0.354-0.11-0.628-0.331-0.819s-0.535-0.287-0.944-0.287
		c-0.364,0-0.658,0.1-0.883,0.299s-0.359,0.479-0.4,0.841l-0.881-0.082c0.063-0.542,0.286-0.973,0.666-1.29
		c0.38-0.318,0.88-0.477,1.499-0.477c0.68,0,1.21,0.153,1.59,0.46c0.38,0.306,0.57,0.74,0.57,1.303c0,0.367-0.121,0.733-0.364,1.099
		c-0.243,0.366-0.605,0.74-1.087,1.123c-0.658,0.524-1.113,0.909-1.367,1.157c-0.254,0.247-0.434,0.487-0.539,0.721h3.463v0.699
		H136.789z"/>
	<path d="M142.737,657.5v-0.694h2.103v-4.891c-0.118,0.249-0.398,0.467-0.84,0.651c-0.442,0.186-0.877,0.278-1.305,0.278v-0.709
		c0.473,0,0.918-0.104,1.338-0.312c0.42-0.207,0.713-0.47,0.879-0.785h0.795v5.767h1.69v0.694H142.737z"/>
	<path d="M159.041,654.267c0,1.08-0.199,1.904-0.597,2.475c-0.397,0.569-0.984,0.854-1.76,0.854c-0.776,0-1.358-0.283-1.748-0.85
		c-0.39-0.567-0.584-1.394-0.584-2.479c0-1.114,0.19-1.947,0.57-2.5c0.38-0.552,0.977-0.828,1.791-0.828
		c0.795,0,1.382,0.278,1.76,0.836C158.852,652.331,159.041,653.162,159.041,654.267z M158.164,654.267
		c0-0.926-0.112-1.596-0.337-2.009c-0.225-0.414-0.596-0.62-1.114-0.62c-0.53,0-0.911,0.204-1.142,0.613
		c-0.231,0.408-0.347,1.08-0.347,2.016c0,0.91,0.117,1.575,0.352,1.995c0.234,0.42,0.607,0.63,1.118,0.63
		c0.508,0,0.88-0.216,1.116-0.646C158.046,655.814,158.164,655.154,158.164,654.267z M156.134,654.842v-1.192h1.126v1.192H156.134z"
		/>
	<path d="M164.908,655.373c0,0.444-0.094,0.834-0.282,1.169c-0.188,0.335-0.464,0.595-0.826,0.778
		c-0.363,0.184-0.792,0.275-1.286,0.275c-0.629,0-1.137-0.137-1.523-0.412c-0.386-0.274-0.63-0.672-0.732-1.192l0.872-0.101
		c0.182,0.667,0.65,1.001,1.403,1.001c0.45,0,0.81-0.134,1.078-0.402s0.402-0.634,0.402-1.097c0-0.396-0.132-0.72-0.397-0.973
		c-0.265-0.252-0.62-0.378-1.063-0.378c-0.233,0-0.45,0.036-0.651,0.11c-0.201,0.073-0.402,0.197-0.604,0.373h-0.843l0.225-3.486
		h3.836v0.694h-3.042l-0.139,2.035c0.374-0.287,0.838-0.431,1.394-0.431c0.651,0,1.178,0.188,1.578,0.562
		C164.708,654.275,164.908,654.767,164.908,655.373z"/>
	<path d="M170.651,651.704c-1.51,2.172-2.266,4.104-2.266,5.796h-0.9c0-0.84,0.196-1.746,0.587-2.718
		c0.391-0.973,0.973-1.989,1.746-3.049h-3.53v-0.694h4.363V651.704z"/>
	<path d="M181.792,655.972v1.528h-0.862v-1.528h-3.133v-0.67l3.042-4.263h0.953v4.253h0.9v0.68H181.792z M180.93,651.973
		l-2.395,3.319h2.395V651.973z"/>
	<path d="M188.44,655.364c0,0.677-0.194,1.218-0.582,1.623c-0.388,0.405-0.92,0.608-1.597,0.608c-0.754,0-1.333-0.275-1.739-0.826
		c-0.406-0.551-0.608-1.332-0.608-2.345c0-1.111,0.211-1.97,0.632-2.576c0.421-0.607,1.016-0.91,1.782-0.91
		c1.019,0,1.66,0.458,1.925,1.374l-0.824,0.148c-0.169-0.549-0.54-0.823-1.111-0.823c-0.488,0-0.868,0.222-1.14,0.665
		c-0.271,0.444-0.407,1.067-0.407,1.868c0.156-0.29,0.377-0.512,0.661-0.663s0.61-0.228,0.977-0.228
		c0.613,0,1.104,0.189,1.475,0.567C188.255,654.227,188.44,654.731,188.44,655.364z M187.564,655.402
		c0-0.46-0.122-0.817-0.367-1.073c-0.244-0.255-0.575-0.383-0.994-0.383c-0.236,0-0.46,0.054-0.67,0.16
		c-0.211,0.107-0.376,0.256-0.496,0.445c-0.12,0.19-0.179,0.405-0.179,0.645c0,0.485,0.128,0.891,0.385,1.217
		c0.257,0.325,0.587,0.488,0.989,0.488c0.405,0,0.729-0.134,0.97-0.402S187.564,655.865,187.564,655.402z"/>
	<path d="M194.317,655.689c0,0.588-0.199,1.052-0.596,1.394s-0.965,0.513-1.703,0.513c-0.722,0-1.286-0.168-1.693-0.503
		c-0.407-0.335-0.61-0.8-0.61-1.394c0-0.412,0.126-0.763,0.378-1.052c0.252-0.289,0.575-0.467,0.967-0.534v-0.019
		c-0.357-0.086-0.645-0.269-0.862-0.546c-0.217-0.278-0.326-0.596-0.326-0.953c0-0.313,0.089-0.598,0.266-0.853
		c0.177-0.256,0.427-0.454,0.75-0.595c0.322-0.14,0.693-0.21,1.111-0.21c0.437,0,0.819,0.07,1.145,0.213
		c0.326,0.142,0.575,0.339,0.747,0.592c0.172,0.252,0.259,0.539,0.259,0.861c0,0.361-0.11,0.681-0.331,0.958
		c-0.22,0.278-0.509,0.452-0.867,0.522v0.02c0.415,0.066,0.746,0.241,0.994,0.524C194.193,654.911,194.317,655.265,194.317,655.689z
		 M193.421,655.608c0-0.384-0.125-0.678-0.374-0.884s-0.599-0.31-1.049-0.31c-0.435,0-0.775,0.111-1.023,0.333
		c-0.248,0.223-0.371,0.516-0.371,0.879c0,0.432,0.121,0.76,0.362,0.984c0.241,0.226,0.595,0.338,1.061,0.338
		c0.47,0,0.819-0.11,1.049-0.33C193.306,656.398,193.421,656.062,193.421,655.608z M193.254,652.653
		c0-0.354-0.108-0.622-0.323-0.803c-0.216-0.181-0.526-0.271-0.932-0.271c-0.393,0-0.699,0.091-0.917,0.272
		c-0.219,0.183-0.328,0.449-0.328,0.801c0,0.354,0.11,0.629,0.331,0.823c0.22,0.195,0.528,0.292,0.924,0.292
		C192.838,653.769,193.254,653.396,193.254,652.653z"/>
	<path d="M200.17,654.133c0,1.104-0.212,1.958-0.637,2.561c-0.425,0.602-1.027,0.902-1.806,0.902c-0.527,0-0.949-0.11-1.267-0.333
		c-0.317-0.222-0.545-0.58-0.682-1.075l0.824-0.129c0.172,0.562,0.552,0.843,1.14,0.843c0.492,0,0.876-0.223,1.152-0.668
		c0.276-0.445,0.417-1.062,0.424-1.847c-0.128,0.287-0.347,0.519-0.656,0.692c-0.31,0.174-0.65,0.261-1.021,0.261
		c-0.604,0-1.088-0.203-1.454-0.61s-0.548-0.938-0.548-1.593c0-0.677,0.2-1.213,0.601-1.607c0.401-0.394,0.949-0.591,1.646-0.591
		C199.408,650.938,200.17,652.003,200.17,654.133z M199.231,653.371c0-0.514-0.128-0.932-0.383-1.252
		c-0.255-0.321-0.586-0.481-0.991-0.481c-0.415,0-0.743,0.139-0.982,0.416c-0.24,0.278-0.359,0.639-0.359,1.083
		c0,0.457,0.12,0.824,0.359,1.104c0.239,0.28,0.563,0.42,0.972,0.42c0.243,0,0.472-0.056,0.688-0.166
		c0.215-0.109,0.385-0.263,0.51-0.459C199.169,653.838,199.231,653.617,199.231,653.371z"/>
</g>
<g enable-background="new    ">
	<path d="M134.217,673.31c0,0.598-0.179,1.063-0.537,1.398c-0.358,0.336-0.867,0.503-1.528,0.503c-0.252,0-0.509-0.021-0.771-0.062
		c-0.262-0.042-0.464-0.09-0.608-0.144v-0.671c0.479,0.108,0.915,0.163,1.308,0.163c0.409,0,0.723-0.105,0.943-0.316
		s0.331-0.506,0.331-0.886v-4.622h-1.95v-0.681h2.812V673.31z M133.259,666.987v-0.919h0.958v0.919H133.259z"/>
	<path d="M141.353,670.58c0,0.871-0.201,1.538-0.601,1.999c-0.401,0.462-0.979,0.692-1.736,0.692c-0.741,0-1.309-0.233-1.703-0.699
		c-0.395-0.466-0.592-1.13-0.592-1.992c0-0.892,0.202-1.561,0.606-2.01c0.404-0.448,0.976-0.673,1.717-0.673
		c0.779,0,1.358,0.222,1.738,0.666C141.163,669.007,141.353,669.68,141.353,670.58z M140.448,670.58
		c0-0.687-0.109-1.199-0.328-1.538c-0.219-0.338-0.572-0.508-1.061-0.508c-0.495,0-0.857,0.173-1.087,0.518
		c-0.229,0.345-0.345,0.854-0.345,1.528c0,0.67,0.115,1.181,0.345,1.53c0.23,0.35,0.575,0.524,1.035,0.524
		c0.508,0,0.875-0.171,1.102-0.513C140.335,671.78,140.448,671.267,140.448,670.58z"/>
	<path d="M147.062,671.695c0,0.492-0.186,0.878-0.558,1.157s-0.887,0.419-1.544,0.419c-0.658,0-1.159-0.103-1.502-0.309
		s-0.567-0.531-0.673-0.975l0.762-0.148c0.061,0.274,0.19,0.475,0.39,0.601s0.541,0.189,1.023,0.189
		c0.862,0,1.293-0.273,1.293-0.819c0-0.204-0.078-0.369-0.235-0.495c-0.156-0.127-0.396-0.229-0.718-0.31
		c-0.843-0.207-1.378-0.37-1.604-0.488c-0.227-0.118-0.401-0.266-0.522-0.443c-0.122-0.177-0.182-0.398-0.182-0.663
		c0-0.47,0.169-0.837,0.508-1.102c0.338-0.265,0.829-0.397,1.47-0.397c0.562,0,1.011,0.106,1.346,0.318
		c0.335,0.212,0.544,0.521,0.627,0.927l-0.776,0.096c-0.035-0.229-0.148-0.403-0.34-0.521s-0.478-0.178-0.857-0.178
		c-0.782,0-1.173,0.241-1.173,0.724c0,0.191,0.066,0.345,0.199,0.459c0.132,0.115,0.346,0.208,0.64,0.278l0.57,0.148
		c0.521,0.128,0.895,0.254,1.123,0.378c0.229,0.125,0.408,0.28,0.539,0.468C146.997,671.195,147.062,671.425,147.062,671.695z"/>
	<path d="M148.758,666.068h0.867v1.867c0,0.188-0.014,0.503-0.043,0.944h0.014c0.335-0.655,0.876-0.982,1.624-0.982
		c1.117,0,1.676,0.608,1.676,1.825v3.453h-0.867v-3.329c0-0.434-0.083-0.757-0.251-0.967c-0.167-0.211-0.435-0.316-0.802-0.316
		c-0.396,0-0.721,0.145-0.975,0.434s-0.381,0.681-0.381,1.176v3.003h-0.862V666.068z"/>
	<path d="M155.506,667.993v3.286c0,0.498,0.079,0.844,0.235,1.037c0.156,0.192,0.436,0.289,0.838,0.289
		c0.412,0,0.737-0.14,0.977-0.421c0.239-0.281,0.359-0.677,0.359-1.188v-3.003h0.867v4.076c0,0.604,0.009,0.973,0.029,1.106h-0.814
		c-0.003-0.016-0.006-0.059-0.009-0.129c-0.003-0.07-0.007-0.151-0.012-0.242s-0.01-0.263-0.017-0.515h-0.015
		c-0.198,0.357-0.427,0.61-0.687,0.759s-0.584,0.223-0.97,0.223c-0.568,0-0.984-0.142-1.248-0.424
		c-0.264-0.282-0.395-0.75-0.395-1.401v-3.453H155.506z"/>
	<path d="M164.918,672.645c0.083,0,0.177-0.012,0.283-0.034v0.537c-0.217,0.051-0.439,0.076-0.666,0.076
		c-0.319,0-0.552-0.084-0.697-0.251c-0.146-0.168-0.228-0.431-0.247-0.788h-0.029c-0.208,0.386-0.453,0.664-0.735,0.833
		s-0.631,0.254-1.046,0.254c-0.504,0-0.885-0.137-1.14-0.412c-0.255-0.274-0.383-0.651-0.383-1.13c0-1.114,0.725-1.68,2.174-1.695
		l1.13-0.02v-0.282c0-0.419-0.084-0.72-0.254-0.903s-0.439-0.275-0.81-0.275c-0.376,0-0.648,0.067-0.814,0.201
		s-0.265,0.342-0.297,0.623l-0.901-0.082c0.147-0.932,0.822-1.398,2.026-1.398c0.639,0,1.118,0.149,1.439,0.448
		c0.321,0.298,0.481,0.73,0.481,1.295v2.232c0,0.256,0.034,0.448,0.101,0.577C164.602,672.579,164.73,672.645,164.918,672.645z
		 M162.001,672.615c0.307,0,0.578-0.073,0.814-0.22c0.236-0.147,0.42-0.344,0.551-0.59c0.131-0.245,0.196-0.499,0.196-0.762v-0.426
		l-0.91,0.02c-0.377,0.006-0.664,0.048-0.862,0.124c-0.198,0.077-0.352,0.194-0.462,0.353c-0.11,0.157-0.165,0.367-0.165,0.63
		c0,0.262,0.071,0.472,0.213,0.632C161.518,672.535,161.727,672.615,162.001,672.615z"/>
	<path d="M171.226,669.56c0,0.951-0.132,1.709-0.395,2.272c-0.264,0.563-0.619,0.846-1.066,0.846c-0.457,0-0.685-0.251-0.685-0.752
		v-0.038l0.009-0.144h-0.029c-0.108,0.28-0.261,0.507-0.457,0.678c-0.197,0.17-0.419,0.256-0.668,0.256
		c-0.338,0-0.603-0.16-0.792-0.479c-0.19-0.318-0.285-0.773-0.285-1.364c0-0.515,0.078-1,0.232-1.456
		c0.155-0.457,0.366-0.817,0.632-1.08c0.267-0.264,0.564-0.396,0.893-0.396c0.227,0,0.413,0.066,0.558,0.199
		c0.145,0.132,0.253,0.342,0.323,0.63h0.024l0.153-0.724h0.556l-0.474,2.429c-0.128,0.67-0.192,1.114-0.192,1.331
		c0,0.281,0.079,0.422,0.235,0.422c0.249,0,0.453-0.238,0.611-0.714c0.158-0.476,0.237-1.111,0.237-1.906
		c0-0.875-0.174-1.585-0.522-2.129c-0.348-0.545-0.81-0.817-1.384-0.817c-0.473,0-0.891,0.172-1.255,0.516
		c-0.364,0.343-0.645,0.826-0.843,1.448c-0.198,0.623-0.297,1.332-0.297,2.127c0,0.986,0.185,1.775,0.555,2.366
		c0.371,0.591,0.878,0.886,1.523,0.886c0.3,0,0.589-0.056,0.867-0.167c0.278-0.112,0.578-0.309,0.9-0.59l0.34,0.417
		c-0.367,0.316-0.723,0.546-1.068,0.689c-0.345,0.144-0.707,0.216-1.087,0.216c-0.527,0-0.991-0.155-1.392-0.465
		s-0.708-0.756-0.922-1.339c-0.214-0.582-0.321-1.254-0.321-2.014c0-0.913,0.123-1.724,0.369-2.431
		c0.246-0.707,0.597-1.253,1.054-1.638s0.985-0.577,1.585-0.577c0.504,0,0.943,0.145,1.314,0.433
		c0.372,0.289,0.659,0.698,0.86,1.227S171.226,668.867,171.226,669.56z M169.243,669.421c0-0.339-0.056-0.595-0.167-0.769
		c-0.112-0.175-0.262-0.262-0.45-0.262c-0.201,0-0.387,0.106-0.556,0.318c-0.169,0.213-0.306,0.513-0.41,0.901
		c-0.104,0.388-0.156,0.792-0.156,1.214c0,0.897,0.182,1.346,0.546,1.346c0.236,0,0.448-0.151,0.637-0.455s0.328-0.705,0.419-1.207
		C169.198,670.007,169.243,669.645,169.243,669.421z"/>
	<path d="M172.328,668.674v-0.681h0.814l0.278-1.351h0.575v1.351h2.069v0.681h-2.069v3.122c0,0.253,0.068,0.439,0.204,0.561
		c0.136,0.122,0.358,0.183,0.668,0.183c0.428,0,0.902-0.055,1.422-0.163v0.656c-0.54,0.146-1.075,0.22-1.604,0.22
		c-0.518,0-0.905-0.108-1.164-0.327c-0.258-0.219-0.388-0.564-0.388-1.037v-3.214H172.328z"/>
	<path d="M178.19,666.068h0.867v1.867c0,0.188-0.014,0.503-0.043,0.944h0.014c0.335-0.655,0.876-0.982,1.624-0.982
		c1.117,0,1.676,0.608,1.676,1.825v3.453h-0.867v-3.329c0-0.434-0.083-0.757-0.251-0.967c-0.167-0.211-0.435-0.316-0.802-0.316
		c-0.396,0-0.721,0.145-0.975,0.434s-0.381,0.681-0.381,1.176v3.003h-0.862V666.068z"/>
	<path d="M186.759,672.496h1.82v0.68h-4.703v-0.68h2.021v-3.822h-1.528v-0.681h2.39V672.496z M185.801,666.987v-0.919h0.958v0.919
		H185.801z"/>
	<path d="M193.234,673.176v-3.329c0-0.434-0.083-0.757-0.251-0.967c-0.167-0.211-0.435-0.316-0.802-0.316
		c-0.396,0-0.721,0.145-0.975,0.434s-0.381,0.681-0.381,1.176v3.003h-0.862V669.1c0-0.604-0.01-0.972-0.029-1.106h0.814
		c0.003,0.017,0.006,0.06,0.01,0.13c0.003,0.07,0.007,0.15,0.012,0.241c0.004,0.092,0.01,0.263,0.017,0.516h0.014
		c0.335-0.655,0.888-0.982,1.657-0.982c0.553,0,0.964,0.149,1.236,0.448c0.271,0.298,0.407,0.757,0.407,1.377v3.453H193.234z"/>
	<path d="M199.342,673.176l-1.753-2.39l-0.632,0.469v1.921h-0.862v-7.107h0.862v4.439l2.275-2.515h1.011l-2.103,2.228l2.212,2.955
		H199.342z"/>
	<path d="M201.76,668.674v-0.681h0.814l0.278-1.351h0.575v1.351h2.069v0.681h-2.069v3.122c0,0.253,0.068,0.439,0.204,0.561
		c0.136,0.122,0.358,0.183,0.668,0.183c0.428,0,0.902-0.055,1.422-0.163v0.656c-0.54,0.146-1.075,0.22-1.604,0.22
		c-0.518,0-0.905-0.108-1.164-0.327c-0.258-0.219-0.388-0.564-0.388-1.037v-3.214H201.76z"/>
	<path d="M209.112,673.176v-1.432h1.126v1.432H209.112z"/>
	<path d="M213.245,670.58c0-0.862,0.206-1.525,0.618-1.988c0.412-0.463,1.007-0.694,1.786-0.694c0.582,0,1.06,0.14,1.437,0.419
		s0.61,0.655,0.699,1.128l-0.919,0.067c-0.051-0.291-0.179-0.52-0.383-0.688c-0.204-0.168-0.495-0.251-0.872-0.251
		c-0.504,0-0.874,0.156-1.109,0.469c-0.235,0.313-0.352,0.819-0.352,1.519c0,0.709,0.117,1.228,0.352,1.555s0.603,0.49,1.104,0.49
		c0.345,0,0.631-0.084,0.857-0.254c0.227-0.169,0.367-0.428,0.421-0.775l0.91,0.058c-0.042,0.307-0.157,0.585-0.347,0.836
		c-0.19,0.25-0.441,0.446-0.754,0.589c-0.313,0.142-0.663,0.213-1.049,0.213c-0.783,0-1.378-0.229-1.787-0.689
		S213.245,671.455,213.245,670.58z"/>
	<path d="M223.764,670.58c0,0.871-0.201,1.538-0.601,1.999c-0.401,0.462-0.979,0.692-1.736,0.692c-0.741,0-1.309-0.233-1.703-0.699
		c-0.395-0.466-0.592-1.13-0.592-1.992c0-0.892,0.202-1.561,0.606-2.01c0.404-0.448,0.976-0.673,1.717-0.673
		c0.779,0,1.358,0.222,1.738,0.666C223.574,669.007,223.764,669.68,223.764,670.58z M222.859,670.58
		c0-0.687-0.109-1.199-0.328-1.538c-0.219-0.338-0.572-0.508-1.061-0.508c-0.495,0-0.857,0.173-1.087,0.518
		c-0.229,0.345-0.345,0.854-0.345,1.528c0,0.67,0.115,1.181,0.345,1.53c0.23,0.35,0.575,0.524,1.035,0.524
		c0.508,0,0.875-0.171,1.102-0.513C222.745,671.78,222.859,671.267,222.859,670.58z"/>
	<path d="M226.939,673.176v-3.286c0-0.491-0.039-0.835-0.118-1.032c-0.078-0.196-0.221-0.294-0.429-0.294
		c-0.204,0-0.37,0.153-0.496,0.46s-0.189,0.722-0.189,1.245v2.907h-0.81V669.1c0-0.604-0.01-0.972-0.029-1.106h0.714l0.029,0.608
		v0.23h0.009c0.108-0.326,0.246-0.563,0.412-0.712s0.374-0.223,0.623-0.223c0.281,0,0.491,0.077,0.63,0.23
		c0.139,0.152,0.239,0.389,0.299,0.708h0.01c0.127-0.338,0.28-0.579,0.457-0.723s0.402-0.216,0.673-0.216
		c0.376,0,0.646,0.138,0.809,0.412c0.163,0.274,0.245,0.745,0.245,1.413v3.453h-0.805v-3.286c0-0.491-0.04-0.835-0.118-1.032
		c-0.078-0.196-0.221-0.294-0.429-0.294c-0.21,0-0.377,0.134-0.5,0.402s-0.184,0.67-0.184,1.207v3.003H226.939z"/>
</g>
<rect x="234.516" y="496.72" fill="none" width="231.167" height="67.837"/>
<g enable-background="new    ">
	<path fill="#0F0FDB" d="M427.349,502.529c0,0.674-0.257,1.203-0.771,1.588s-1.23,0.577-2.147,0.577
		c-0.825,0-1.498-0.174-2.018-0.521s-0.854-0.854-1.001-1.518l1.502-0.195c0.08,0.331,0.249,0.592,0.506,0.783
		c0.256,0.191,0.607,0.287,1.054,0.287c0.463,0,0.807-0.074,1.029-0.222c0.224-0.147,0.335-0.378,0.335-0.69
		c0-0.231-0.099-0.428-0.295-0.587c-0.197-0.16-0.483-0.285-0.859-0.377c-0.755-0.183-1.288-0.342-1.599-0.477
		c-0.311-0.136-0.56-0.287-0.745-0.456c-0.187-0.169-0.33-0.366-0.43-0.593c-0.101-0.227-0.15-0.48-0.15-0.761
		c0-0.615,0.247-1.102,0.74-1.46s1.145-0.537,1.952-0.537c0.787,0,1.401,0.155,1.844,0.466c0.442,0.312,0.729,0.793,0.859,1.446
		l-1.507,0.153c-0.155-0.644-0.564-0.965-1.228-0.965c-0.373,0-0.657,0.069-0.854,0.208c-0.197,0.14-0.296,0.339-0.296,0.599
		c0,0.172,0.048,0.315,0.143,0.429c0.095,0.114,0.224,0.211,0.388,0.29c0.163,0.079,0.496,0.184,0.998,0.313
		c0.66,0.162,1.168,0.342,1.522,0.54s0.615,0.438,0.78,0.72C427.267,501.851,427.349,502.171,427.349,502.529z"/>
	<path fill="#0F0FDB" d="M429.414,499.89h-0.88v-1.001h0.953l0.464-1.486h0.927v1.486h2.028v1.001h-2.028v2.792
		c0,0.31,0.029,0.518,0.087,0.624c0.059,0.107,0.152,0.191,0.282,0.253s0.312,0.093,0.548,0.093c0.436,0,0.884-0.048,1.344-0.143
		v0.979c-0.499,0.081-0.852,0.13-1.06,0.146c-0.207,0.016-0.423,0.023-0.647,0.023c-0.446,0-0.819-0.061-1.12-0.182
		c-0.3-0.121-0.526-0.311-0.68-0.569c-0.152-0.258-0.229-0.62-0.229-1.088L429.414,499.89z"/>
	<path fill="#0F0FDB" d="M436.353,498.889v3.197c0,0.485,0.078,0.856,0.234,1.114c0.156,0.259,0.381,0.388,0.672,0.388
		c0.316,0,0.577-0.155,0.782-0.467c0.206-0.311,0.309-0.703,0.309-1.177v-3.056h1.48v4.425c0,0.485,0.014,0.91,0.042,1.275h-1.412
		c-0.042-0.506-0.062-0.884-0.062-1.133h-0.026c-0.376,0.825-0.952,1.238-1.729,1.238c-0.576,0-1.015-0.184-1.317-0.551
		c-0.302-0.367-0.453-0.912-0.453-1.636v-3.619H436.353z"/>
	<path fill="#0F0FDB" d="M444.941,504.589c-0.015-0.053-0.031-0.186-0.051-0.397c-0.019-0.213-0.028-0.39-0.028-0.53h-0.021
		c-0.186,0.376-0.416,0.643-0.69,0.799c-0.273,0.156-0.599,0.234-0.975,0.234c-0.628,0-1.124-0.264-1.485-0.79
		c-0.361-0.527-0.543-1.245-0.543-2.155c0-0.931,0.182-1.656,0.546-2.176c0.363-0.52,0.877-0.78,1.541-0.78
		c0.376,0,0.702,0.086,0.979,0.256c0.277,0.171,0.49,0.421,0.638,0.751h0.011l-0.011-0.938v-2.092h1.48v6.575
		c0,0.351,0.014,0.766,0.042,1.243H444.941z M444.872,501.712c0-0.607-0.099-1.078-0.296-1.412c-0.196-0.333-0.469-0.5-0.816-0.5
		c-0.351,0-0.617,0.164-0.798,0.492c-0.181,0.329-0.271,0.814-0.271,1.457c0,0.646,0.092,1.13,0.276,1.451
		c0.185,0.322,0.445,0.482,0.782,0.482c0.218,0,0.413-0.078,0.585-0.234s0.305-0.38,0.398-0.672
		C444.825,502.485,444.872,502.13,444.872,501.712z"/>
	<path fill="#0F0FDB" d="M451.295,503.588h1.859v1.001h-5.421v-1.001h2.081v-3.698h-1.528v-1.001h3.009V503.588z M449.815,497.861
		v-1.091h1.48v1.091H449.815z"/>
	<path fill="#0F0FDB" d="M459.576,501.733c0,0.944-0.238,1.675-0.717,2.189c-0.478,0.514-1.164,0.771-2.06,0.771
		c-0.864,0-1.535-0.258-2.013-0.771c-0.478-0.515-0.717-1.245-0.717-2.189c0-0.941,0.237-1.668,0.712-2.182
		c0.474-0.513,1.157-0.769,2.049-0.769C458.661,498.783,459.576,499.767,459.576,501.733z M458.028,501.733
		c0-0.675-0.09-1.165-0.269-1.473c-0.18-0.308-0.481-0.461-0.906-0.461c-0.436,0-0.749,0.154-0.94,0.464
		c-0.191,0.309-0.287,0.799-0.287,1.47c0,0.678,0.098,1.172,0.292,1.483c0.195,0.311,0.484,0.466,0.867,0.466
		c0.436,0,0.751-0.153,0.948-0.461C457.929,502.914,458.028,502.418,458.028,501.733z"/>
</g>
<g enable-background="new    ">
	<path d="M331.974,518.281l-1.577-2.479h-1.026v2.479h-0.823v-5.815h2.078c0.669,0,1.18,0.139,1.53,0.416s0.525,0.675,0.525,1.192
		c0,0.428-0.134,0.789-0.402,1.082c-0.27,0.293-0.629,0.477-1.08,0.552l1.724,2.573H331.974z M331.854,514.087
		c0-0.641-0.438-0.961-1.311-0.961h-1.173v2.025h1.207c0.411,0,0.727-0.092,0.946-0.275S331.854,514.429,331.854,514.087z"/>
	<path d="M337.893,517.803c0.074,0,0.159-0.01,0.254-0.03v0.483c-0.195,0.046-0.395,0.068-0.599,0.068
		c-0.287,0-0.497-0.075-0.627-0.227c-0.131-0.15-0.205-0.387-0.223-0.709h-0.025c-0.188,0.348-0.407,0.598-0.662,0.75
		c-0.254,0.152-0.568,0.229-0.941,0.229c-0.454,0-0.796-0.123-1.026-0.37c-0.229-0.247-0.345-0.587-0.345-1.018
		c0-1.003,0.652-1.512,1.957-1.526l1.018-0.017v-0.255c0-0.376-0.076-0.647-0.229-0.812s-0.396-0.248-0.729-0.248
		c-0.339,0-0.584,0.061-0.733,0.182c-0.149,0.12-0.238,0.308-0.267,0.561l-0.811-0.073c0.132-0.84,0.74-1.259,1.823-1.259
		c0.575,0,1.007,0.134,1.296,0.402c0.288,0.27,0.433,0.658,0.433,1.166v2.009c0,0.23,0.03,0.403,0.091,0.52
		S337.723,517.803,337.893,517.803z M335.268,517.777c0.275,0,0.52-0.066,0.732-0.199c0.213-0.132,0.378-0.309,0.496-0.529
		c0.117-0.222,0.177-0.45,0.177-0.686v-0.384l-0.819,0.018c-0.339,0.005-0.598,0.043-0.775,0.111
		c-0.179,0.069-0.317,0.175-0.416,0.317c-0.1,0.142-0.149,0.331-0.149,0.566c0,0.236,0.064,0.426,0.192,0.569
		S335.021,517.777,335.268,517.777z"/>
	<path d="M342.186,518.281v-2.996c0-0.391-0.075-0.681-0.226-0.87c-0.151-0.19-0.392-0.285-0.723-0.285
		c-0.356,0-0.648,0.13-0.877,0.391c-0.229,0.26-0.343,0.612-0.343,1.058v2.703h-0.775v-3.668c0-0.544-0.009-0.875-0.026-0.996h0.733
		c0.002,0.015,0.005,0.053,0.008,0.116s0.007,0.136,0.011,0.218c0.005,0.082,0.01,0.236,0.016,0.464h0.013
		c0.302-0.59,0.799-0.884,1.491-0.884c0.497,0,0.868,0.134,1.112,0.402c0.244,0.27,0.366,0.683,0.366,1.239v3.108H342.186z"/>
	<path d="M347.458,517.531c-0.141,0.302-0.327,0.521-0.561,0.657c-0.232,0.137-0.522,0.205-0.871,0.205c-0.58,0-1.007-0.2-1.28-0.6
		c-0.272-0.399-0.409-1.001-0.409-1.806c0-1.627,0.563-2.44,1.689-2.44c0.349,0,0.639,0.062,0.873,0.186
		c0.234,0.124,0.422,0.326,0.562,0.607h0.009l-0.009-0.65v-1.807h0.776v5.437c0,0.485,0.009,0.806,0.025,0.961h-0.741
		c-0.012-0.043-0.021-0.148-0.03-0.314c-0.009-0.167-0.013-0.312-0.013-0.436H347.458z M345.139,515.962
		c0,0.638,0.086,1.104,0.257,1.395c0.171,0.292,0.449,0.438,0.834,0.438c0.42,0,0.729-0.151,0.931-0.454
		c0.201-0.304,0.302-0.786,0.302-1.446c0-0.618-0.097-1.068-0.291-1.35c-0.193-0.281-0.505-0.423-0.933-0.423
		c-0.388,0-0.668,0.148-0.841,0.444S345.139,515.327,345.139,515.962z"/>
	<path d="M353.769,515.945c0,0.784-0.18,1.384-0.541,1.799c-0.36,0.416-0.881,0.623-1.562,0.623c-0.667,0-1.178-0.209-1.532-0.629
		s-0.532-1.018-0.532-1.793c0-0.802,0.182-1.405,0.545-1.809c0.363-0.404,0.879-0.605,1.546-0.605c0.701,0,1.223,0.199,1.564,0.599
		S353.769,515.135,353.769,515.945z M352.954,515.945c0-0.618-0.099-1.079-0.295-1.384c-0.197-0.305-0.516-0.457-0.955-0.457
		c-0.445,0-0.771,0.155-0.979,0.465c-0.207,0.311-0.311,0.77-0.311,1.376c0,0.604,0.104,1.062,0.311,1.377s0.518,0.472,0.931,0.472
		c0.457,0,0.788-0.153,0.992-0.461S352.954,516.562,352.954,515.945z"/>
	<path d="M357.511,517.669h1.638v0.612h-4.233v-0.612h1.819v-5.173h-1.245v-0.612h2.021V517.669z"/>
	<path d="M364.334,515.928c0,1.627-0.562,2.439-1.689,2.439c-0.707,0-1.183-0.264-1.427-0.793h-0.021
		c0.012,0.023,0.018,0.262,0.018,0.716v1.823h-0.78v-5.53c0-0.489-0.009-0.811-0.026-0.966h0.755
		c0.002,0.012,0.007,0.054,0.013,0.127s0.012,0.182,0.02,0.323c0.007,0.143,0.011,0.248,0.011,0.317h0.017
		c0.145-0.302,0.327-0.521,0.55-0.658c0.223-0.136,0.514-0.204,0.873-0.204c0.569,0,0.993,0.196,1.271,0.588
		C364.196,514.503,364.334,515.108,364.334,515.928z M363.532,515.928c0-0.649-0.087-1.113-0.263-1.391
		c-0.175-0.277-0.451-0.416-0.827-0.416c-0.435,0-0.748,0.157-0.94,0.473c-0.192,0.314-0.288,0.791-0.288,1.429
		c0,0.612,0.096,1.061,0.288,1.345c0.192,0.285,0.503,0.427,0.932,0.427c0.382,0,0.661-0.145,0.836-0.436
		C363.446,517.068,363.532,516.592,363.532,515.928z"/>
	<path d="M365.732,511.884h0.78v1.682c0,0.17-0.014,0.452-0.039,0.85h0.013c0.302-0.59,0.789-0.884,1.461-0.884
		c1.006,0,1.509,0.547,1.509,1.642v3.108h-0.78v-2.996c0-0.391-0.075-0.681-0.226-0.87c-0.151-0.19-0.392-0.285-0.723-0.285
		c-0.356,0-0.648,0.13-0.877,0.391c-0.229,0.26-0.343,0.612-0.343,1.058v2.703h-0.775V511.884z"/>
	<path d="M380.392,516.687c0,0.528-0.193,0.941-0.58,1.237c-0.386,0.296-0.938,0.443-1.652,0.443c-1.313,0-2.077-0.514-2.289-1.543
		l0.797-0.159c0.081,0.37,0.247,0.64,0.5,0.808c0.253,0.169,0.591,0.253,1.014,0.253c0.457,0,0.804-0.09,1.041-0.268
		c0.236-0.179,0.355-0.432,0.355-0.759c0-0.201-0.047-0.365-0.141-0.491c-0.093-0.127-0.216-0.23-0.368-0.311
		s-0.324-0.146-0.515-0.196c-0.191-0.05-0.385-0.1-0.58-0.148c-0.463-0.121-0.793-0.229-0.989-0.323
		c-0.197-0.095-0.354-0.203-0.473-0.325c-0.117-0.123-0.206-0.263-0.267-0.421s-0.091-0.343-0.091-0.556
		c0-0.497,0.175-0.88,0.523-1.149c0.35-0.269,0.851-0.402,1.503-0.402c0.609,0,1.074,0.106,1.396,0.318
		c0.321,0.213,0.546,0.572,0.672,1.078l-0.81,0.142c-0.069-0.321-0.207-0.555-0.414-0.7c-0.207-0.145-0.49-0.218-0.85-0.218
		c-0.813,0-1.22,0.307-1.22,0.918c0,0.173,0.038,0.313,0.114,0.421s0.18,0.196,0.311,0.268c0.131,0.07,0.283,0.128,0.457,0.174
		s0.359,0.095,0.558,0.146c0.399,0.101,0.688,0.186,0.862,0.253c0.176,0.067,0.331,0.144,0.468,0.23
		c0.137,0.086,0.254,0.188,0.352,0.306c0.098,0.118,0.175,0.256,0.23,0.414S380.392,516.471,380.392,516.687z"/>
	<path d="M381.647,514.229v-0.612h0.732l0.25-1.216h0.518v1.216h1.862v0.612h-1.862v2.811c0,0.227,0.061,0.395,0.183,0.504
		s0.323,0.164,0.602,0.164c0.385,0,0.812-0.049,1.28-0.146v0.591c-0.485,0.132-0.967,0.198-1.444,0.198
		c-0.465,0-0.814-0.099-1.047-0.296c-0.233-0.196-0.35-0.508-0.35-0.933v-2.893H381.647z"/>
	<path d="M387.24,519.846l0.729-2.854h1.143l-1.341,2.854H387.24z"/>
	<path d="M397.418,518.281v-5.815h3.962v0.673h-3.139v1.819h2.88v0.663h-2.88v1.987h3.315v0.673H397.418z"/>
	<path d="M405.734,517.531c-0.141,0.302-0.327,0.521-0.561,0.657c-0.232,0.137-0.522,0.205-0.871,0.205c-0.58,0-1.007-0.2-1.28-0.6
		c-0.272-0.399-0.409-1.001-0.409-1.806c0-1.627,0.563-2.44,1.689-2.44c0.349,0,0.639,0.062,0.873,0.186
		c0.234,0.124,0.422,0.326,0.562,0.607h0.009l-0.009-0.65v-1.807h0.776v5.437c0,0.485,0.009,0.806,0.025,0.961h-0.741
		c-0.012-0.043-0.021-0.148-0.03-0.314c-0.009-0.167-0.013-0.312-0.013-0.436H405.734z M403.414,515.962
		c0,0.638,0.086,1.104,0.257,1.395c0.171,0.292,0.449,0.438,0.834,0.438c0.42,0,0.729-0.151,0.931-0.454
		c0.201-0.304,0.302-0.786,0.302-1.446c0-0.618-0.097-1.068-0.291-1.35c-0.193-0.281-0.505-0.423-0.933-0.423
		c-0.388,0-0.668,0.148-0.841,0.444S403.414,515.327,403.414,515.962z"/>
	<path d="M408.703,516.113c0,0.522,0.116,0.933,0.348,1.229s0.548,0.443,0.95,0.443c0.296,0,0.556-0.063,0.778-0.191
		s0.371-0.303,0.446-0.523l0.681,0.193c-0.126,0.356-0.358,0.63-0.696,0.819s-0.74,0.284-1.209,0.284
		c-0.679,0-1.2-0.211-1.564-0.634c-0.365-0.422-0.548-1.027-0.548-1.814c0-0.768,0.179-1.357,0.537-1.77
		c0.357-0.412,0.874-0.618,1.55-0.618c0.675,0,1.187,0.205,1.534,0.616s0.521,1.031,0.521,1.862v0.104H408.703z M409.984,514.104
		c-0.385,0-0.689,0.125-0.913,0.377c-0.225,0.251-0.344,0.597-0.358,1.037h2.518C411.15,514.575,410.734,514.104,409.984,514.104z"
		/>
	<path d="M416.355,518.281v-2.996c0-0.391-0.075-0.681-0.226-0.87c-0.151-0.19-0.392-0.285-0.723-0.285
		c-0.356,0-0.648,0.13-0.877,0.391c-0.229,0.26-0.343,0.612-0.343,1.058v2.703h-0.775v-3.668c0-0.544-0.009-0.875-0.026-0.996h0.733
		c0.002,0.015,0.005,0.053,0.008,0.116s0.007,0.136,0.011,0.218c0.005,0.082,0.01,0.236,0.016,0.464h0.013
		c0.302-0.59,0.799-0.884,1.491-0.884c0.497,0,0.868,0.134,1.112,0.402c0.244,0.27,0.366,0.683,0.366,1.239v3.108H416.355z"/>
	<path d="M426.266,513.139v5.143h-0.819v-5.143h-1.91v-0.673h4.639v0.673H426.266z"/>
	<path d="M429.068,515.945c0-0.776,0.186-1.373,0.556-1.789c0.371-0.417,0.907-0.625,1.608-0.625c0.522,0,0.954,0.125,1.293,0.377
		c0.339,0.251,0.549,0.59,0.629,1.015l-0.827,0.061c-0.046-0.262-0.161-0.468-0.345-0.618c-0.185-0.151-0.445-0.227-0.785-0.227
		c-0.454,0-0.786,0.141-0.997,0.423c-0.212,0.281-0.317,0.736-0.317,1.366c0,0.638,0.105,1.104,0.317,1.398
		c0.211,0.295,0.542,0.442,0.993,0.442c0.311,0,0.567-0.076,0.771-0.229s0.331-0.386,0.38-0.698l0.818,0.052
		c-0.037,0.275-0.142,0.526-0.312,0.752s-0.397,0.402-0.679,0.53s-0.597,0.191-0.944,0.191c-0.704,0-1.24-0.207-1.607-0.62
		C429.251,517.333,429.068,516.732,429.068,515.945z"/>
	<path d="M435.193,516.113c0,0.522,0.116,0.933,0.348,1.229s0.548,0.443,0.95,0.443c0.296,0,0.556-0.063,0.778-0.191
		s0.371-0.303,0.446-0.523l0.681,0.193c-0.126,0.356-0.358,0.63-0.696,0.819s-0.74,0.284-1.209,0.284
		c-0.679,0-1.2-0.211-1.564-0.634c-0.365-0.422-0.548-1.027-0.548-1.814c0-0.768,0.179-1.357,0.537-1.77
		c0.357-0.412,0.874-0.618,1.55-0.618c0.675,0,1.187,0.205,1.534,0.616s0.521,1.031,0.521,1.862v0.104H435.193z M436.473,514.104
		c-0.385,0-0.689,0.125-0.913,0.377c-0.225,0.251-0.344,0.597-0.358,1.037h2.518C437.639,514.575,437.223,514.104,436.473,514.104z"
		/>
	<path d="M440.219,519.846l0.729-2.854h1.143l-1.341,2.854H440.219z"/>
	<path d="M454.156,518.281l-0.595-1.646h-2.427l-0.591,1.646h-0.845l2.198-5.815h0.936l2.16,5.815H454.156z M452.354,513.087
		l-0.052,0.168l-0.297,0.914l-0.651,1.823h1.996l-0.746-2.155L452.354,513.087z"/>
	<path d="M458.937,518.281l-1.578-2.151l-0.569,0.423v1.729h-0.775v-6.397h0.775v3.996l2.048-2.263h0.909l-1.892,2.004l1.991,2.66
		H458.937z"/>
</g>
<g enable-background="new    ">
	<path d="M406.615,529.161c0,0.972-0.179,1.714-0.537,2.227c-0.357,0.514-0.886,0.77-1.584,0.77s-1.223-0.255-1.573-0.765
		c-0.351-0.511-0.526-1.254-0.526-2.231c0-1.003,0.171-1.753,0.514-2.25c0.342-0.497,0.879-0.745,1.612-0.745
		c0.715,0,1.243,0.25,1.584,0.752C406.444,527.419,406.615,528.167,406.615,529.161z M405.825,529.161
		c0-0.833-0.102-1.436-0.304-1.808c-0.203-0.372-0.537-0.559-1.002-0.559c-0.478,0-0.82,0.184-1.028,0.552
		c-0.209,0.368-0.312,0.973-0.312,1.814c0,0.819,0.105,1.418,0.316,1.796s0.547,0.566,1.007,0.566c0.457,0,0.792-0.193,1.004-0.582
		C405.719,530.554,405.825,529.961,405.825,529.161z M403.997,529.679v-1.073h1.014v1.073H403.997z"/>
	<path d="M411.843,529.041c0,0.994-0.191,1.763-0.573,2.304c-0.382,0.542-0.924,0.812-1.625,0.812c-0.475,0-0.854-0.1-1.141-0.299
		c-0.285-0.2-0.49-0.522-0.614-0.968l0.742-0.117c0.155,0.506,0.497,0.759,1.025,0.759c0.442,0,0.788-0.2,1.037-0.602
		c0.248-0.4,0.376-0.954,0.381-1.661c-0.114,0.259-0.312,0.466-0.59,0.623c-0.279,0.156-0.585,0.234-0.919,0.234
		c-0.543,0-0.979-0.183-1.308-0.55c-0.329-0.366-0.494-0.844-0.494-1.433c0-0.609,0.181-1.092,0.541-1.446
		c0.361-0.355,0.854-0.532,1.481-0.532C411.157,526.166,411.843,527.124,411.843,529.041z M410.998,528.355
		c0-0.463-0.115-0.839-0.345-1.127c-0.23-0.289-0.527-0.434-0.893-0.434c-0.373,0-0.668,0.125-0.884,0.375
		c-0.215,0.25-0.323,0.575-0.323,0.975c0,0.411,0.108,0.742,0.323,0.993c0.216,0.252,0.508,0.377,0.875,0.377
		c0.219,0,0.425-0.049,0.619-0.148c0.193-0.099,0.347-0.237,0.459-0.414S410.998,528.577,410.998,528.355z"/>
	<path d="M422.49,530.477c0,0.534-0.181,0.948-0.543,1.241s-0.868,0.439-1.518,0.439c-0.615,0-1.106-0.139-1.474-0.418
		c-0.368-0.278-0.585-0.688-0.651-1.229l0.802-0.073c0.104,0.719,0.545,1.078,1.323,1.078c0.391,0,0.698-0.091,0.921-0.272
		c0.223-0.181,0.334-0.445,0.334-0.793c0-0.215-0.065-0.397-0.196-0.545c-0.131-0.148-0.309-0.262-0.532-0.341
		c-0.225-0.079-0.476-0.118-0.755-0.118h-0.439v-0.673h0.423c0.247,0,0.473-0.041,0.679-0.123c0.205-0.081,0.367-0.197,0.484-0.347
		c0.118-0.149,0.177-0.326,0.177-0.53c0-0.305-0.096-0.542-0.286-0.713c-0.191-0.171-0.475-0.257-0.852-0.257
		c-0.342,0-0.618,0.088-0.83,0.263c-0.211,0.176-0.334,0.423-0.368,0.741l-0.78-0.06c0.058-0.497,0.264-0.886,0.618-1.164
		c0.355-0.279,0.812-0.418,1.369-0.418c0.609,0,1.082,0.134,1.42,0.402c0.338,0.27,0.507,0.644,0.507,1.123
		c0,0.342-0.113,0.64-0.341,0.893c-0.227,0.253-0.537,0.42-0.931,0.5v0.018c0.434,0.049,0.782,0.201,1.045,0.457
		S422.49,530.12,422.49,530.477z"/>
	<path d="M427.788,530.157c0,0.399-0.085,0.75-0.254,1.052c-0.17,0.302-0.418,0.535-0.744,0.7c-0.326,0.166-0.712,0.248-1.157,0.248
		c-0.566,0-1.023-0.123-1.371-0.37s-0.567-0.605-0.659-1.073l0.784-0.091c0.164,0.601,0.585,0.9,1.264,0.9
		c0.405,0,0.729-0.12,0.97-0.361c0.241-0.242,0.362-0.57,0.362-0.987c0-0.356-0.119-0.648-0.358-0.875
		c-0.238-0.228-0.558-0.341-0.957-0.341c-0.209,0-0.405,0.033-0.586,0.1c-0.181,0.065-0.362,0.178-0.543,0.336h-0.759l0.202-3.139
		h3.453v0.625h-2.737l-0.125,1.832c0.336-0.258,0.755-0.388,1.255-0.388c0.586,0,1.06,0.169,1.42,0.507
		S427.788,529.611,427.788,530.157z"/>
	<path d="M433.065,530.441c0,0.529-0.179,0.947-0.537,1.255c-0.357,0.308-0.868,0.461-1.532,0.461c-0.649,0-1.157-0.15-1.523-0.452
		s-0.55-0.72-0.55-1.255c0-0.37,0.113-0.686,0.341-0.946c0.227-0.26,0.517-0.42,0.87-0.48v-0.017
		c-0.321-0.078-0.58-0.242-0.775-0.492s-0.293-0.535-0.293-0.857c0-0.281,0.079-0.537,0.239-0.768
		c0.159-0.229,0.384-0.408,0.675-0.534c0.29-0.127,0.623-0.189,1-0.189c0.394,0,0.736,0.063,1.03,0.191
		c0.293,0.128,0.517,0.306,0.672,0.532c0.155,0.228,0.233,0.486,0.233,0.776c0,0.324-0.1,0.612-0.298,0.862s-0.458,0.406-0.78,0.47
		v0.017c0.374,0.061,0.672,0.218,0.895,0.473C432.953,529.741,433.065,530.06,433.065,530.441z M432.259,530.368
		c0-0.345-0.112-0.609-0.337-0.795c-0.224-0.186-0.538-0.278-0.943-0.278c-0.392,0-0.698,0.101-0.921,0.3
		c-0.223,0.2-0.334,0.464-0.334,0.791c0,0.388,0.108,0.684,0.325,0.886c0.218,0.203,0.535,0.304,0.955,0.304
		c0.423,0,0.737-0.099,0.944-0.297S432.259,530.776,432.259,530.368z M432.108,527.709c0-0.319-0.097-0.56-0.291-0.722
		c-0.193-0.163-0.474-0.244-0.838-0.244c-0.354,0-0.629,0.082-0.826,0.246c-0.196,0.163-0.295,0.403-0.295,0.72
		c0,0.319,0.099,0.566,0.298,0.741c0.198,0.176,0.476,0.263,0.831,0.263C431.735,528.713,432.108,528.379,432.108,527.709z"/>
	<path d="M439.621,532.071v-0.625h1.893v-4.401c-0.106,0.225-0.358,0.42-0.757,0.586c-0.397,0.167-0.789,0.25-1.175,0.25v-0.638
		c0.426,0,0.827-0.093,1.205-0.28c0.378-0.187,0.642-0.422,0.791-0.707h0.716v5.19h1.521v0.625H439.621z"/>
	<path d="M448.281,530.696v1.375h-0.776v-1.375h-2.818v-0.604l2.737-3.837h0.857v3.828h0.811v0.612H448.281z M447.505,527.097
		l-2.155,2.987h2.155V527.097z"/>
	<path d="M453.579,530.696v1.375h-0.776v-1.375h-2.818v-0.604l2.737-3.837h0.857v3.828h0.811v0.612H453.579z M452.803,527.097
		l-2.155,2.987h2.155V527.097z"/>
	<path d="M459.447,526.855c-1.359,1.954-2.039,3.692-2.039,5.216h-0.811c0-0.756,0.176-1.571,0.528-2.446
		c0.352-0.875,0.875-1.79,1.571-2.744h-3.178v-0.625h3.928V526.855z"/>
</g>
<g enable-background="new    ">
	<path d="M389.929,545.763h-0.88l-0.616-2.03l-0.246-0.871l-0.168,0.6l-0.724,2.302h-0.876l-0.788-4.664h0.767l0.401,2.616
		c0.095,0.759,0.143,1.228,0.143,1.405c0.111-0.459,0.195-0.767,0.25-0.922l0.582-1.828h0.831l0.561,1.832
		c0.092,0.302,0.171,0.607,0.237,0.918c0-0.086,0.006-0.193,0.018-0.323c0.011-0.129,0.025-0.262,0.043-0.398
		s0.034-0.267,0.052-0.391c0.017-0.123,0.03-0.221,0.039-0.293l0.435-2.616h0.759L389.929,545.763z"/>
	<path d="M395.227,545.763h-0.88l-0.616-2.03l-0.246-0.871l-0.168,0.6l-0.724,2.302h-0.876l-0.788-4.664h0.767l0.401,2.616
		c0.095,0.759,0.143,1.228,0.143,1.405c0.111-0.459,0.195-0.767,0.25-0.922l0.582-1.828h0.831l0.561,1.832
		c0.092,0.302,0.171,0.607,0.237,0.918c0-0.086,0.006-0.193,0.018-0.323c0.011-0.129,0.025-0.262,0.043-0.398
		s0.034-0.267,0.052-0.391c0.017-0.123,0.03-0.221,0.039-0.293l0.435-2.616h0.759L395.227,545.763z"/>
	<path d="M400.525,545.763h-0.88l-0.616-2.03l-0.246-0.871l-0.168,0.6l-0.724,2.302h-0.876l-0.788-4.664h0.767l0.401,2.616
		c0.095,0.759,0.143,1.228,0.143,1.405c0.111-0.459,0.195-0.767,0.25-0.922l0.582-1.828h0.831l0.561,1.832
		c0.092,0.302,0.171,0.607,0.237,0.918c0-0.086,0.006-0.193,0.018-0.323c0.011-0.129,0.025-0.262,0.043-0.398
		s0.034-0.267,0.052-0.391c0.017-0.123,0.03-0.221,0.039-0.293l0.435-2.616h0.759L400.525,545.763z"/>
	<path d="M403.572,545.763v-1.289h1.014v1.289H403.572z"/>
	<path d="M407.551,541.711v-0.612h0.732l0.25-1.216h0.518v1.216h1.862v0.612h-1.862v2.811c0,0.227,0.061,0.395,0.183,0.504
		s0.323,0.164,0.602,0.164c0.385,0,0.812-0.049,1.28-0.146v0.591c-0.485,0.132-0.967,0.198-1.444,0.198
		c-0.465,0-0.814-0.099-1.047-0.296c-0.233-0.196-0.35-0.508-0.35-0.933v-2.893H407.551z"/>
	<path d="M412.827,539.365h0.78v1.682c0,0.17-0.014,0.452-0.039,0.85h0.013c0.302-0.59,0.789-0.884,1.461-0.884
		c1.006,0,1.509,0.547,1.509,1.642v3.108h-0.78v-2.996c0-0.391-0.075-0.681-0.226-0.87c-0.151-0.19-0.392-0.285-0.723-0.285
		c-0.356,0-0.648,0.13-0.877,0.391c-0.229,0.26-0.343,0.612-0.343,1.058v2.703h-0.775V539.365z"/>
	<path d="M420.539,545.15h1.638v0.612h-4.233v-0.612h1.819v-3.439h-1.375v-0.612h2.151V545.15z M419.677,540.193v-0.828h0.862v0.828
		H419.677z"/>
	<path d="M426.366,545.763v-2.996c0-0.391-0.075-0.681-0.226-0.87c-0.151-0.19-0.392-0.285-0.723-0.285
		c-0.356,0-0.648,0.13-0.877,0.391c-0.229,0.26-0.343,0.612-0.343,1.058v2.703h-0.775v-3.668c0-0.544-0.009-0.875-0.026-0.996h0.733
		c0.002,0.015,0.005,0.053,0.008,0.116s0.007,0.136,0.011,0.218c0.005,0.082,0.01,0.236,0.016,0.464h0.013
		c0.302-0.59,0.799-0.884,1.491-0.884c0.497,0,0.868,0.134,1.112,0.402c0.244,0.27,0.366,0.683,0.366,1.239v3.108H426.366z"/>
	<path d="M431.864,545.763l-1.578-2.151l-0.569,0.423v1.729h-0.775v-6.397h0.775v3.996l2.048-2.263h0.909l-1.892,2.004l1.991,2.66
		H431.864z"/>
	<path d="M434.04,541.711v-0.612h0.732l0.25-1.216h0.518v1.216h1.862v0.612h-1.862v2.811c0,0.227,0.061,0.395,0.183,0.504
		s0.323,0.164,0.602,0.164c0.385,0,0.812-0.049,1.28-0.146v0.591c-0.485,0.132-0.967,0.198-1.444,0.198
		c-0.465,0-0.814-0.099-1.047-0.296c-0.233-0.196-0.35-0.508-0.35-0.933v-2.893H434.04z"/>
	<path d="M440.656,545.763v-1.289h1.014v1.289H440.656z"/>
	<path d="M444.376,543.427c0-0.776,0.186-1.373,0.556-1.789c0.371-0.417,0.907-0.625,1.608-0.625c0.522,0,0.954,0.125,1.293,0.377
		c0.339,0.251,0.549,0.59,0.629,1.015l-0.827,0.061c-0.046-0.262-0.161-0.468-0.345-0.618c-0.185-0.151-0.445-0.227-0.785-0.227
		c-0.454,0-0.786,0.141-0.997,0.423c-0.212,0.281-0.317,0.736-0.317,1.366c0,0.638,0.105,1.104,0.317,1.398
		c0.211,0.295,0.542,0.442,0.993,0.442c0.311,0,0.567-0.076,0.771-0.229s0.331-0.386,0.38-0.698l0.818,0.052
		c-0.037,0.275-0.142,0.526-0.312,0.752s-0.397,0.402-0.679,0.53s-0.597,0.191-0.944,0.191c-0.704,0-1.24-0.207-1.607-0.62
		C444.56,544.814,444.376,544.214,444.376,543.427z"/>
	<path d="M453.842,543.427c0,0.784-0.18,1.384-0.541,1.799c-0.36,0.416-0.881,0.623-1.562,0.623c-0.667,0-1.178-0.209-1.532-0.629
		s-0.532-1.018-0.532-1.793c0-0.802,0.182-1.405,0.545-1.809c0.363-0.404,0.879-0.605,1.546-0.605c0.701,0,1.223,0.199,1.564,0.599
		S453.842,542.616,453.842,543.427z M453.028,543.427c0-0.618-0.099-1.079-0.295-1.384c-0.197-0.305-0.516-0.457-0.955-0.457
		c-0.445,0-0.771,0.155-0.979,0.465c-0.207,0.311-0.311,0.77-0.311,1.376c0,0.604,0.104,1.062,0.311,1.377s0.518,0.472,0.931,0.472
		c0.457,0,0.788-0.153,0.992-0.461S453.028,544.044,453.028,543.427z"/>
	<path d="M456.7,545.763v-2.957c0-0.442-0.035-0.752-0.105-0.929s-0.199-0.266-0.386-0.266c-0.185,0-0.333,0.138-0.446,0.414
		c-0.113,0.275-0.171,0.649-0.171,1.121v2.616h-0.729v-3.668c0-0.544-0.008-0.875-0.025-0.996h0.643l0.025,0.548v0.206h0.009
		c0.098-0.293,0.222-0.506,0.371-0.64s0.336-0.2,0.56-0.2c0.253,0,0.442,0.068,0.567,0.207c0.125,0.138,0.215,0.351,0.27,0.638
		h0.009c0.114-0.305,0.252-0.521,0.411-0.651c0.16-0.129,0.361-0.193,0.605-0.193c0.34,0,0.582,0.123,0.729,0.37
		s0.22,0.671,0.22,1.271v3.108h-0.724v-2.957c0-0.442-0.035-0.752-0.105-0.929s-0.199-0.266-0.386-0.266
		c-0.19,0-0.34,0.121-0.451,0.362c-0.11,0.241-0.166,0.604-0.166,1.086v2.703H456.7z"/>
</g>
<path fill="#0F0FDB" d="M453.653,715.856v-10.913h11.658v11.037h-11.658V715.856z"/>
<path fill="#0F0FDB" d="M130.466,489.774v-11.037h103.306v11.037H130.466z"/>
<path d="M257.086,715.856v-11.037h86.812v11.037H257.086z"/>
<line fill="none" stroke="#000000" stroke-miterlimit="10" stroke-dasharray="8,5" x1="467.295" y1="478.985" x2="238.113" y2="478.985"/>
<polyline fill="none" stroke="#000000" stroke-miterlimit="10" points="152.788,704.199 131.457,704.199 131.457,685.845 "/>
</svg>
