<?xml version="1.0" encoding="utf-8"?>
<!-- Generator: Adobe Illustrator 18.1.1, SVG Export Plug-In . SVG Version: 6.00 Build 0)  -->
<svg version="1.1" id="Layer_1" xmlns="http://www.w3.org/2000/svg" xmlns:xlink="http://www.w3.org/1999/xlink" x="0px" y="0px"
	 viewBox="28.6 0 546 841.9" enable-background="new 28.6 0 546 841.9" xml:space="preserve">
<rect x="95.1" y="-99.2" fill="none" width="499" height="964.1"/>
<g enable-background="new    ">
	<path fill="none" stroke="#000000" stroke-width="1.8214" d="M289.2,185.8h-67v-28.4l-36.9,29.1c-4.4,1.7-9.8,2.6-16.3,2.6
		c-19.6,0-33.8-4.8-42.6-14.5c-8.8-9.7-13.2-21.4-13.2-35.1c0-8.1,2.8-15.9,8.3-23.7c5.6-7.7,13.4-15.1,23.7-22h77.1v-15
		c0-24.8-13.3-37.2-39.8-37.2c-13.9,0-31.8,7.3-53.6,21.9L119,48.7l46.4-36.9c9.1-2.4,20.6-3.6,34.3-3.6c21.6,0,38.3,5.1,50.3,15.4
		c12,10.2,18,25.1,18,44.7v89.8l29.4,11.4L289.2,185.8z M222.2,138.2v-27.8h-55.9c-4.4,5.2-6.5,11.5-6.5,18.9c0,7.2,2,13.2,6,18.1
		c4,4.9,9.3,7.3,15.8,7.3C193.9,154.8,207.4,149.3,222.2,138.2z"/>
	<path fill="none" stroke="#000000" stroke-width="1.8214" d="M395,62.1v93.7l47.4,13.7l-8.2,16.3h-114v-13.4l29.1-23.5V64
		l-29.1-17.6V33l60.8-27.8L392,43.8l32.3-33c3.9-1.7,9.6-2.6,17-2.6c8.9,0,16.7,2.2,23.2,6.5c6.5,4.4,11.3,10.5,14.4,18.3l-25.5,32
		h-15.7c-0.7-6.3-2-10.8-4.1-13.6c-2.1-2.7-5.2-4.1-9.3-4.1V47C414.8,47,405,52,395,62.1z"/>
</g>
<g enable-background="new    ">
	<path fill="none" stroke="#000000" stroke-width="1.8214" d="M244.4,338.5c12.4,2.5,21.4,5.3,27.1,8.3v54.2h-15.7
		c-8.3-10.9-17.9-19.4-28.7-25.6c-10.9-6.2-22.1-9.3-33.6-9.3c-9.1,0-16.1,4.2-20.9,12.6c-4.8,8.4-7.2,20.5-7.2,36.4
		c0,19.4,4.1,35.6,12.4,48.5c8.3,13,20.3,19.4,35.9,19.4c13.3,0,32-8.2,56.2-24.5l9.8,15l-49,38.5c-9.6,2.4-21.6,3.6-35.9,3.6
		c-15,0-28.5-3.8-40.3-11.3c-11.9-7.5-21.2-17.7-27.9-30.7c-6.8-13-10.1-27.3-10.1-43c0-17,4.9-32.8,14.7-47.5
		c9.8-14.7,22.2-26.5,37.1-35.3c14.9-8.8,29.3-13.2,43.3-13.2C221,334.8,232,336,244.4,338.5z"/>
	<path fill="none" stroke="#000000" stroke-width="1.8214" d="M515.5,512.5h-67V404.7c0-11.5-1.7-19.5-5.2-24
		c-3.5-4.5-9.6-6.7-18.3-6.7c-6.5,0-13.1,1.1-19.6,3.3c-6.5,2.2-13.9,6.3-22.2,12.4v95.7l29.4,10.8l-8.2,16.3h-96v-13.4l29.1-23.5
		v-192l-29.1-19.9v-13.4l59.1-22.9h15.7v142.7l41.5-32.7c4.6-1.7,10.9-2.6,18.9-2.6c15.5,0,27.8,4.5,36.9,13.6
		c9.1,9,13.7,21.3,13.7,36.7v100.3l29.4,10.8L515.5,512.5z"/>
</g>
<g enable-background="new    ">
	<path fill="none" stroke="#000000" stroke-width="1.8214" d="M207.5,839.1h-96v-13.4l29.1-23.5v-87.5l-29.1-19.9v-13.4l59.1-22.9
		h15.7V812l29.4,10.8L207.5,839.1z M181.4,568.1c5,5.3,7.5,11.9,7.5,19.8c0,5.4-1.8,10.6-5.4,15.5s-8.1,8.8-13.4,11.6
		c-5.3,2.8-10.5,4.2-15.5,4.2c-7.6,0-13.9-2.6-18.9-7.8c-5-5.2-7.5-11.8-7.5-19.6c0-5.7,1.8-10.9,5.4-15.7
		c3.6-4.8,8.1-8.7,13.4-11.6c5.3-2.9,10.5-4.4,15.5-4.4C170,560.1,176.4,562.8,181.4,568.1z"/>
</g>
</svg>
