<?xml version="1.0" encoding="utf-8"?>
<!-- Generator: Adobe Illustrator 18.1.1, SVG Export Plug-In . SVG Version: 6.00 Build 0)  -->
<svg version="1.1" id="Layer_1" xmlns="http://www.w3.org/2000/svg" xmlns:xlink="http://www.w3.org/1999/xlink" x="0px" y="0px"
	 viewBox="0 0 1040.1 628.1" enable-background="new 0 0 1040.1 628.1" xml:space="preserve">
<g>
	<path fill="none" stroke="#000000" d="M882.2,169.6h-25.6v-10.9l-14.1,11.1c-1.7,0.7-3.8,1-6.2,1c-7.5,0-12.9-1.9-16.3-5.6
		c-3.4-3.7-5.1-8.2-5.1-13.4c0-3.1,1.1-6.1,3.2-9.1c2.1-3,5.1-5.8,9.1-8.4h29.5v-5.8c0-9.5-5.1-14.2-15.2-14.2
		c-5.3,0-12.2,2.8-20.5,8.4l-3.8-5.6l17.8-14.1c3.5-0.9,7.9-1.4,13.1-1.4c8.2,0,14.7,2,19.2,5.9c4.6,3.9,6.9,9.6,6.9,17.1V159
		l11.2,4.4L882.2,169.6z M856.6,151.4v-10.6h-21.4c-1.7,2-2.5,4.4-2.5,7.2c0,2.8,0.8,5.1,2.3,6.9c1.5,1.9,3.6,2.8,6.1,2.8
		C845.8,157.7,851,155.6,856.6,151.4z"/>
	<path fill="none" stroke="#000000" d="M922.7,122.2v35.9l18.1,5.2l-3.1,6.2h-43.6v-5.1l11.1-9V123l-11.1-6.8v-5.1l23.2-10.6
		l4.2,14.8l12.4-12.6c1.5-0.7,3.7-1,6.5-1c3.4,0,6.4,0.8,8.9,2.5c2.5,1.7,4.3,4,5.5,7l-9.8,12.2h-6c-0.2-2.4-0.8-4.1-1.6-5.2
		c-0.8-1-2-1.6-3.6-1.6v-0.1C930.3,116.5,926.6,118.4,922.7,122.2z"/>
	<path fill="none" stroke="#000000" d="M865.1,228.1c4.8,1,8.2,2,10.4,3.2V252h-6c-3.2-4.2-6.8-7.4-11-9.8
		c-4.2-2.4-8.5-3.6-12.9-3.6c-3.5,0-6.2,1.6-8,4.8c-1.8,3.2-2.8,7.9-2.8,13.9c0,7.4,1.6,13.6,4.8,18.6c3.2,5,7.8,7.4,13.8,7.4
		c5.1,0,12.2-3.1,21.5-9.4l3.8,5.8l-18.8,14.8c-3.7,0.9-8.2,1.4-13.8,1.4c-5.8,0-10.9-1.4-15.4-4.3c-4.5-2.9-8.1-6.8-10.7-11.8
		c-2.6-5-3.9-10.4-3.9-16.4c0-6.5,1.9-12.6,5.6-18.2s8.5-10.1,14.2-13.5c5.7-3.4,11.2-5.1,16.6-5.1
		C856.2,226.6,860.4,227.1,865.1,228.1z"/>
	<path fill="none" stroke="#000000" d="M968.9,294.6h-25.6v-41.2c0-4.4-0.7-7.5-2-9.2c-1.3-1.7-3.7-2.6-7-2.6c-2.5,0-5,0.4-7.5,1.2
		c-2.5,0.8-5.3,2.4-8.5,4.8v36.6l11.2,4.1l-3.1,6.2h-36.8v-5.1l11.1-9V207l-11.1-7.6v-5.1l22.6-8.8h6v54.6l15.9-12.5
		c1.8-0.7,4.2-1,7.2-1c5.9,0,10.6,1.7,14.1,5.2c3.5,3.5,5.2,8.1,5.2,14.1v38.4l11.2,4.1L968.9,294.6z"/>
	<path fill="none" stroke="#000000" d="M851,419.6h-36.8v-5.1l11.1-9V372l-11.1-7.6v-5.1l22.6-8.8h6v58.8l11.2,4.1L851,419.6z
		 M841,315.9c1.9,2,2.9,4.6,2.9,7.6c0,2.1-0.7,4.1-2.1,5.9s-3.1,3.4-5.1,4.4c-2,1.1-4,1.6-5.9,1.6c-2.9,0-5.3-1-7.2-3
		c-1.9-2-2.9-4.5-2.9-7.5c0-2.2,0.7-4.2,2.1-6c1.4-1.8,3.1-3.3,5.1-4.4c2-1.1,4-1.7,5.9-1.7C836.7,312.9,839.1,313.9,841,315.9z"/>
</g>
<polygon fill="#CCCCCC" points="746,11 1000,11 1000,295 994,295 994,82 745,82 "/>
<polyline fill="none" stroke="#000000" stroke-miterlimit="10" points="25,12.5 534.5,12.5 534.5,38.5 165.5,38.5 165.5,539.5 
	24.5,539.5 24.5,12 "/>
</svg>
