<?xml version="1.0" encoding="utf-8"?>
<!-- Generator: Adobe Illustrator 18.1.1, SVG Export Plug-In . SVG Version: 6.00 Build 0)  -->
<svg version="1.1" id="Layer_1" xmlns="http://www.w3.org/2000/svg" xmlns:xlink="http://www.w3.org/1999/xlink" x="0px" y="0px"
	 viewBox="0 -9.1 477 851" enable-background="new 0 -9.1 477 851" xml:space="preserve">
<polygon fill="#CCCCCC" points="0,76.8 478,76.8 478,607.2 466.7,607.2 466.7,209.3 0,209.3 "/>
<rect x="106.5" y="169" fill="none" width="356.6" height="689"/>
<g enable-background="new    ">
	<path fill="none" stroke="#000000" stroke-width="1.8214" d="M245.3,372.7h-47.8v-20.3L171,373.1c-3.1,1.2-7,1.9-11.7,1.9
		c-14,0-24.2-3.5-30.5-10.4c-6.3-6.9-9.5-15.3-9.5-25.1c0-5.8,2-11.4,6-16.9c4-5.5,9.6-10.8,16.9-15.8h55.1v-10.7
		c0-17.7-9.5-26.6-28.5-26.6c-10,0-22.7,5.2-38.3,15.6l-7-10.5l33.1-26.4c6.5-1.7,14.7-2.6,24.5-2.6c15.4,0,27.4,3.7,35.9,11
		c8.6,7.3,12.8,18,12.8,32v64.2l21,8.2L245.3,372.7z M197.4,338.6v-19.8h-39.9c-3.1,3.7-4.7,8.2-4.7,13.5c0,5.1,1.4,9.5,4.3,13
		c2.9,3.5,6.7,5.3,11.3,5.3C177.2,350.5,186.8,346.5,197.4,338.6z"/>
	<path fill="none" stroke="#000000" stroke-width="1.8214" d="M320.9,284.2v67l33.8,9.8l-5.8,11.7h-81.5v-9.6l20.8-16.8v-60.7
		L267.4,273v-9.6l43.4-19.8l7.9,27.5l23.1-23.6c2.8-1.2,6.8-1.9,12.1-1.9c6.4,0,11.9,1.6,16.6,4.7c4.7,3.1,8.1,7.5,10.3,13.1
		l-18.2,22.9h-11.2c-0.5-4.5-1.4-7.7-2.9-9.7c-1.5-1.9-3.7-2.9-6.7-2.9v-0.2C335,273.5,328,277.1,320.9,284.2z"/>
</g>
<g enable-background="new    ">
	<path fill="none" stroke="#000000" stroke-width="1.8214" d="M213.3,481.8c8.9,1.8,15.3,3.8,19.4,6v38.7h-11.2
		c-5.9-7.8-12.8-13.9-20.5-18.3c-7.8-4.4-15.8-6.7-24-6.7c-6.5,0-11.5,3-14.9,9c-3.4,6-5.1,14.7-5.1,26c0,13.9,3,25.4,8.9,34.7
		c5.9,9.3,14.5,13.9,25.7,13.9c9.5,0,22.9-5.8,40.1-17.5l7,10.7l-35,27.5c-6.8,1.7-15.4,2.6-25.7,2.6c-10.7,0-20.3-2.7-28.8-8.1
		c-8.5-5.4-15.1-12.7-20-21.9c-4.8-9.3-7.2-19.5-7.2-30.7c0-12.1,3.5-23.5,10.5-34c7-10.5,15.8-18.9,26.5-25.2
		c10.7-6.3,21-9.5,30.9-9.5C196.6,479.1,204.4,480,213.3,481.8z"/>
	<path fill="none" stroke="#000000" stroke-width="1.8214" d="M407,606.1h-47.8v-77c0-8.2-1.2-14-3.7-17.2
		c-2.5-3.2-6.8-4.8-13.1-4.8c-4.7,0-9.3,0.8-14,2.3c-4.7,1.6-10,4.5-15.9,8.9v68.4l21,7.7l-5.8,11.7H259v-9.6l20.8-16.8V442.5
		L259,428.2v-9.6l42.2-16.3h11.2v102l29.6-23.3c3.3-1.2,7.8-1.9,13.5-1.9c11,0,19.8,3.2,26.4,9.7c6.5,6.5,9.8,15.2,9.8,26.3v71.7
		l21,7.7L407,606.1z"/>
</g>
<g enable-background="new    ">
	<path fill="none" stroke="#000000" stroke-width="1.8214" d="M186.9,839.5h-68.6v-9.6l20.8-16.8v-62.5l-20.8-14.2v-9.6l42.2-16.3
		h11.2v109.7l21,7.7L186.9,839.5z M168.2,645.9c3.6,3.8,5.4,8.5,5.4,14.1c0,3.9-1.3,7.6-3.9,11.1s-5.8,6.3-9.6,8.3
		c-3.8,2-7.5,3-11.1,3c-5.4,0-10-1.9-13.5-5.6c-3.6-3.7-5.4-8.4-5.4-14c0-4,1.3-7.8,3.9-11.2c2.6-3.4,5.8-6.2,9.6-8.3
		c3.8-2.1,7.5-3.2,11.1-3.2C160.1,640.1,164.7,642,168.2,645.9z"/>
</g>
</svg>
